<svg width="276" height="59" viewBox="0 0 276 59" fill="none" xmlns="http://www.w3.org/2000/svg">
<g clip-path="url(#clip0_921_4168)">
<path d="M90.1626 46.8126L102.542 12.8418H111.246L123.625 46.8126H115.985L113.469 39.5871H100.267L97.7505 46.8126H90.1626ZM102.35 33.6043H111.443L106.896 20.4957L102.35 33.6043Z" fill="white"/>
<path d="M131.927 46.8128C127.722 46.8128 125.157 44.8517 125.157 40.1157V12.842H132.413V39.3493C132.413 40.8819 133.139 41.4534 134.491 41.4534H136.233V46.8128H131.927Z" fill="white"/>
<path d="M146.352 21.167H139.097V46.8128H146.352V21.167Z" fill="white"/>
<path d="M146.447 12.842H138.951V18.011H146.447V12.842Z" fill="white"/>
<path d="M150.149 46.813V21.1672H156.678L156.823 25.3794C158.275 21.9334 161.08 20.5957 164.511 20.5957C170.073 20.5957 173.311 24.3751 173.311 30.306V46.813H166.056V32.7C166.056 28.5873 165.137 26.2885 162.091 26.2885C159.046 26.2885 157.4 28.583 157.4 32.7V46.813H150.145H150.149Z" fill="white"/>
<path d="M189.006 47.3845C181.077 47.3845 175.852 42.1202 175.852 33.9901C175.852 25.8599 181.073 20.5957 189.006 20.5957C196.94 20.5957 202.16 25.9076 202.16 33.9901C202.16 42.0725 196.936 47.3845 189.006 47.3845ZM189.006 41.8821C192.634 41.8821 194.664 38.9643 194.664 33.9858C194.664 29.0072 192.634 26.0894 189.006 26.0894C185.379 26.0894 183.3 29.0072 183.3 33.9858C183.3 38.9643 185.379 41.8821 189.006 41.8821Z" fill="white"/>
<path d="M204.717 46.8129V21.1671H211.246L211.39 25.3274C212.742 22.3143 215.355 20.5913 218.453 20.5913C222.177 20.5913 224.741 22.5524 225.853 25.8079C227.108 22.4095 229.721 20.5913 233.156 20.5913C238.477 20.5913 241.86 23.9897 241.86 30.3016V46.8086H234.604V32.3103C234.604 28.2929 233.397 26.2841 230.688 26.2841C227.979 26.2841 226.531 28.5309 226.531 32.4098V46.8129H220.002V32.4098C220.002 28.44 218.939 26.2841 216.134 26.2841C213.473 26.2841 211.976 28.5309 211.976 32.4098V46.8129H204.721H204.717Z" fill="white"/>
</g>
<mask id="mask0_921_4168" style="mask-type:luminance" maskUnits="userSpaceOnUse" x="34" y="5" width="45" height="49">
<path d="M78.4597 5.71582H34V53.7375H78.4597V5.71582Z" fill="white"/>
</mask>
<g mask="url(#mask0_921_4168)">
<path fill-rule="evenodd" clip-rule="evenodd" d="M54.5548 6.12416C55.0788 5.85132 55.6601 5.71125 56.2492 5.71593H56.4573C58.2416 8.06442 59.2971 10.2016 59.2971 13.1552L56.2492 11.4791L50.5698 8.33337L54.5548 6.12416ZM78.4506 35.7276L72.7761 38.8542L69.7044 40.5495C72.3832 42.0336 74.8584 42.216 77.8779 41.9039C77.9158 41.851 77.949 41.7933 77.9868 41.7357C78.2821 41.2584 78.4454 40.7095 78.46 40.146L78.4506 35.7276ZM39.6844 45.1265V35.4923C37.0057 36.9331 35.6095 38.907 34.3743 41.5628C34.4074 41.6205 34.4358 41.6781 34.4737 41.7357C34.7719 42.2261 35.1869 42.6324 35.6805 42.9172L39.6844 45.1265Z" fill="white"/>
<path fill-rule="evenodd" clip-rule="evenodd" d="M60.5904 24.9267V12.6127C60.5099 10.4083 60.0793 8.41038 58.6547 6.53735L64.5232 9.77913C64.79 9.92993 65.0326 10.121 65.2426 10.3459C65.8606 10.9371 66.2245 11.7514 66.2555 12.6127V19.9223C66.2377 20.4851 66.0745 21.0333 65.7821 21.512C65.4839 22.0023 65.0689 22.4086 64.5754 22.6935L60.5904 24.9267ZM58.4228 40.1702C58.4391 40.7334 58.6025 41.2818 58.896 41.7599C59.1939 42.2518 59.6089 42.6597 60.1029 42.9462L66.7288 46.5962C67.2456 46.8655 67.8184 47.0054 68.3995 47.0044C68.6979 47.0051 68.9951 46.9679 69.2844 46.894C69.5932 46.8304 69.8912 46.7219 70.1695 46.5723L76.0382 43.3303C73.6291 43.5754 71.5941 42.9462 69.5685 41.8896L58.4228 35.7518V40.1702ZM45.6726 26.3242C45.1545 26.056 44.5812 25.9163 43.9996 25.9163C43.418 25.9163 42.8447 26.056 42.3266 26.3242L35.7007 29.9791C34.9511 30.4062 34.3944 31.1123 34.1483 31.9482C34.0549 32.2364 34.007 32.538 34.0063 32.8414V39.3346C34.9908 37.2166 36.5762 35.8478 38.5403 34.6952L49.6766 28.5478L45.6726 26.3242Z" fill="white"/>
<path fill-rule="evenodd" clip-rule="evenodd" d="M76.7795 16.541C77.2742 16.8243 77.6896 17.2309 77.9864 17.7225C78.0196 17.7801 78.0527 17.8377 78.081 17.9002C76.8506 20.5464 75.4544 22.5251 72.7756 23.9658V14.3318L76.7795 16.541ZM61.9282 51.1248L56.2487 47.9791L53.1582 46.2981C53.1582 49.2518 54.2374 51.389 56.0216 53.7375H56.2487C56.8298 53.739 57.4028 53.5991 57.9194 53.3293L61.9282 51.1248ZM34.0047 23.7305L39.6841 20.604L42.7509 18.9087C40.0769 17.4295 37.5969 17.2422 34.5821 17.5544C34.5443 17.6072 34.5064 17.6648 34.4733 17.7225C34.181 18.2011 34.0178 18.7493 34 19.3121L34.0047 23.7305Z" fill="white"/>
<path fill-rule="evenodd" clip-rule="evenodd" d="M62.7885 30.925L73.92 24.7826C75.8842 23.625 77.4696 22.2563 78.454 20.1431V26.6171C78.4526 26.9209 78.4031 27.2225 78.3074 27.5103C78.2291 27.785 78.1127 28.047 77.9618 28.2883C77.6674 28.7802 77.2534 29.187 76.7598 29.4698L70.1339 33.1247C69.6149 33.3929 69.0408 33.5327 68.4585 33.5327C67.876 33.5327 67.3019 33.3929 66.783 33.1247L62.7885 30.925ZM47.8709 36.765C47.3763 37.0485 46.961 37.4551 46.664 37.9465C46.3696 38.4243 46.2063 38.973 46.1907 39.5362V46.8409C46.2235 47.701 46.5851 48.5141 47.1988 49.1078C47.4149 49.334 47.6639 49.5252 47.9371 49.6746L53.801 52.9164C52.3812 51.0434 51.9316 49.0455 51.87 46.8409V34.5559L47.8709 36.765ZM54.0234 19.2883C54.0096 18.7248 53.8461 18.1756 53.5502 17.6986C53.2531 17.2057 52.8359 16.7987 52.3386 16.5171L45.7127 12.8623C44.9226 12.4529 44.0132 12.3471 43.1523 12.5646C42.8428 12.6277 42.5444 12.7378 42.2673 12.8911L36.4318 16.1281C38.8407 15.8832 40.8758 16.5123 42.9062 17.5689L54.0377 23.7163L54.0234 19.2883Z" fill="white"/>
</g>
<path d="M264.5 3C264.102 3 263.721 3.15804 263.439 3.43934C263.158 3.72064 263 4.10218 263 4.5V11.5C263 11.8978 263.158 12.2794 263.439 12.5607C263.721 12.842 264.102 13 264.5 13H271.5C271.898 13 272.279 12.842 272.561 12.5607C272.842 12.2794 273 11.8978 273 11.5V9.27C273 9.13739 273.053 9.01021 273.146 8.91645C273.24 8.82268 273.367 8.77 273.5 8.77C273.633 8.77 273.76 8.82268 273.854 8.91645C273.947 9.01021 274 9.13739 274 9.27V11.5C274 12.163 273.737 12.7989 273.268 13.2678C272.799 13.7366 272.163 14 271.5 14H264.5C263.837 14 263.201 13.7366 262.732 13.2678C262.263 12.7989 262 12.163 262 11.5V4.5C262 3.83696 262.263 3.20107 262.732 2.73223C263.201 2.26339 263.837 2 264.5 2H266.73C266.863 2 266.99 2.05268 267.084 2.14645C267.177 2.24021 267.23 2.36739 267.23 2.5C267.23 2.63261 267.177 2.75979 267.084 2.85355C266.99 2.94732 266.863 3 266.73 3H264.5ZM268.77 2.5C268.77 2.36739 268.823 2.24021 268.916 2.14645C269.01 2.05268 269.137 2 269.27 2H273.5C273.633 2 273.76 2.05268 273.854 2.14645C273.947 2.24021 274 2.36739 274 2.5V6.73C274 6.86261 273.947 6.98979 273.854 7.08355C273.76 7.17732 273.633 7.23 273.5 7.23C273.367 7.23 273.24 7.17732 273.146 7.08355C273.053 6.98979 273 6.86261 273 6.73V3.708L269.623 7.084C269.577 7.13176 269.522 7.16985 269.461 7.19605C269.4 7.22226 269.334 7.23605 269.268 7.23663C269.201 7.2372 269.135 7.22455 269.074 7.19941C269.013 7.17427 268.957 7.13714 268.91 7.0902C268.863 7.04325 268.826 6.98743 268.801 6.92598C268.775 6.86453 268.763 6.79869 268.763 6.7323C268.764 6.66591 268.778 6.6003 268.804 6.5393C268.83 6.4783 268.868 6.42312 268.916 6.377L272.293 3H269.269C269.136 3 269.009 2.94732 268.915 2.85355C268.822 2.75979 268.769 2.63261 268.769 2.5" fill="white"/>
<defs>
<clipPath id="clip0_921_4168">
<rect width="152.997" height="34.7721" fill="white" transform="translate(88.8623 12.7271)"/>
</clipPath>
</defs>
</svg>
