<svg width="276" height="59" viewBox="0 0 276 59" fill="none" xmlns="http://www.w3.org/2000/svg">
<g clip-path="url(#clip0_2001_3575)">
<path fill-rule="evenodd" clip-rule="evenodd" d="M34.6035 32.5099C38.6967 32.6723 41.4251 32.5631 41.4251 37.3229C41.4251 42.8479 39.4058 42.5202 34.6035 42.6295V32.5099ZM34.6035 16.3706C37.9876 16.3706 40.7701 16.2065 40.7701 20.2544C40.7701 25.1237 38.8064 24.8504 34.6035 25.1237V16.3706ZM38.5327 50.0161C46.3363 50.0161 51.0291 46.4584 51.0291 38.1444C51.0291 33.0566 50.1015 30.8672 45.7356 28.3513V28.2421C49.0644 26.437 50.3744 23.2089 50.3744 19.5987C50.3744 11.3376 44.6993 8.98462 37.4413 8.98462H25V50.0161H38.5327Z" fill="white"/>
<path d="M77.6362 50.0161V41.808H64.594V32.9473H76.5999V24.7409H64.594V17.1911H76.981V8.98438H54.9897V50.0161H77.6362Z" fill="white"/>
<path d="M107.449 23.3181V19.8715C107.449 11.501 102.537 8 94.3516 8C85.5658 8 81.4736 12.1578 81.4736 21.0748V37.9257C81.4736 46.2962 84.9111 51 93.7517 51C103.574 51 107.612 46.0777 107.612 39.019V33.9872H98.0081V37.7072C98.0081 40.2245 97.7355 43.6167 94.4613 43.6167C91.951 43.6167 91.0238 42.2486 91.0238 39.95L91.0781 19.6533C91.0781 16.9718 91.7865 15.3316 94.7883 15.3859C96.589 15.3859 97.8449 17.1913 97.8449 20.6925V23.3183L107.449 23.3181Z" fill="white"/>
<path d="M121.231 50.0161V39.8965L123.359 35.7363L128.653 50.0161H138.802L129.526 27.0927L138.257 8.98438H128.434L121.34 25.3975H121.231V8.98438H111.627V50.0161H121.231Z" fill="white"/>
<path d="M150.949 50.0161V32.9473H157.606V50.0161H167.21V8.98438H157.606V24.7409H150.949V8.98438H141.345V50.0161H150.949Z" fill="white"/>
<path fill-rule="evenodd" clip-rule="evenodd" d="M187.596 37.7601C187.596 40.1119 187.379 43.6165 184.268 43.6165C181.157 43.6165 180.775 40.1121 180.775 37.7601V20.9107C180.775 18.3941 181.157 15.3857 184.214 15.3857C187.379 15.3857 187.596 18.3941 187.596 20.9107V37.7601ZM197.201 20.2541C197.201 12.3766 192.671 8 184.268 8C175.864 8 171.17 12.3766 171.17 20.2541V36.9418C171.17 46.1865 174.554 50.9998 184.268 50.9998C193.98 50.9998 197.201 46.1865 197.201 36.9418V20.2541Z" fill="white"/>
<path d="M211.147 50.0161V32.6723H223.099V24.4666H211.147V17.1911H224.135V8.98438H201.543V50.0161H211.147Z" fill="white"/>
<path d="M238.012 50.0161V32.6723H249.964V24.4666H238.012V17.1911H251V8.98438H228.409V50.0161H238.012Z" fill="white"/>
</g>
<path d="M264.5 3C264.102 3 263.721 3.15804 263.439 3.43934C263.158 3.72064 263 4.10218 263 4.5V11.5C263 11.8978 263.158 12.2794 263.439 12.5607C263.721 12.842 264.102 13 264.5 13H271.5C271.898 13 272.279 12.842 272.561 12.5607C272.842 12.2794 273 11.8978 273 11.5V9.27C273 9.13739 273.053 9.01021 273.146 8.91645C273.24 8.82268 273.367 8.77 273.5 8.77C273.633 8.77 273.76 8.82268 273.854 8.91645C273.947 9.01021 274 9.13739 274 9.27V11.5C274 12.163 273.737 12.7989 273.268 13.2678C272.799 13.7366 272.163 14 271.5 14H264.5C263.837 14 263.201 13.7366 262.732 13.2678C262.263 12.7989 262 12.163 262 11.5V4.5C262 3.83696 262.263 3.20107 262.732 2.73223C263.201 2.26339 263.837 2 264.5 2H266.73C266.863 2 266.99 2.05268 267.084 2.14645C267.177 2.24021 267.23 2.36739 267.23 2.5C267.23 2.63261 267.177 2.75979 267.084 2.85355C266.99 2.94732 266.863 3 266.73 3H264.5ZM268.77 2.5C268.77 2.36739 268.823 2.24021 268.916 2.14645C269.01 2.05268 269.137 2 269.27 2H273.5C273.633 2 273.76 2.05268 273.854 2.14645C273.947 2.24021 274 2.36739 274 2.5V6.73C274 6.86261 273.947 6.98979 273.854 7.08355C273.76 7.17732 273.633 7.23 273.5 7.23C273.367 7.23 273.24 7.17732 273.146 7.08355C273.053 6.98979 273 6.86261 273 6.73V3.708L269.623 7.084C269.577 7.13176 269.522 7.16985 269.461 7.19605C269.4 7.22226 269.334 7.23605 269.268 7.23663C269.201 7.2372 269.135 7.22455 269.074 7.19941C269.013 7.17427 268.957 7.13714 268.91 7.0902C268.863 7.04325 268.826 6.98743 268.801 6.92598C268.775 6.86453 268.763 6.79869 268.763 6.7323C268.764 6.66591 268.778 6.6003 268.804 6.5393C268.83 6.4783 268.868 6.42312 268.916 6.377L272.293 3H269.269C269.136 3 269.009 2.94732 268.915 2.85355C268.822 2.75979 268.769 2.63261 268.769 2.5" fill="white"/>
<defs>
<clipPath id="clip0_2001_3575">
<rect width="226" height="43" fill="white" transform="translate(25 8)"/>
</clipPath>
</defs>
</svg>
