<svg width="276" height="59" viewBox="0 0 276 59" fill="none" xmlns="http://www.w3.org/2000/svg">
<path d="M137.556 37.936L137.546 37.9525C137.549 37.9455 137.553 37.9393 137.556 37.936ZM158.759 46.9179C155.888 45.5589 151.979 45.4358 151.979 43.8461C151.979 42.5897 153.249 42.2134 154.75 42.2134C157.097 42.2134 159.121 43.1332 159.317 43.1332C159.447 43.1332 159.579 43.0505 159.674 42.9239L159.897 42.6401L161.065 41.1695V41.1679C161.068 41.1679 161.062 41.1652 161.031 41.1547C160.96 41.119 160.757 41.0288 160.474 40.9172C160.244 40.8293 160.1 40.7808 160.029 40.7581C158.866 40.3746 156.718 39.9524 154.62 39.9524C150.835 39.9524 147.443 41.2082 147.443 44.2216C147.443 45.9587 148.245 47.0566 149.974 47.7272C153.302 49.0254 156.641 48.9518 156.641 50.8134C156.641 52.1119 155.828 52.7388 154 52.7388C151.194 52.7388 148.781 51.819 148.584 51.819C148.453 51.819 148.291 51.9026 148.227 52.0279L147.87 52.6844L147.243 53.8327L147.754 54.0227C148.795 54.4293 151.511 54.9993 154.13 54.9993C158.242 54.9993 161.253 53.6674 161.176 50.5833C161.138 48.994 160.424 47.7128 158.759 46.9169M102.679 49.2238L97.14 40.6921C96.9338 40.4627 96.8645 40.4208 96.3465 40.4208H93.5167L92.7927 40.4234V54.7622C92.7927 54.7622 92.9317 54.7553 93.5167 54.7553H96.0368C96.6218 54.7553 96.7583 54.7622 96.7583 54.7622V46.783C96.7583 45.8205 96.7318 45.4421 96.7318 45.1693C96.7318 45.1693 102.195 53.8256 102.737 54.4348L102.767 54.4339C103.31 53.822 108.494 45.1696 108.494 45.1696C108.494 45.4422 108.464 45.8207 108.464 46.7832V54.7622C108.464 54.7622 108.604 54.7553 109.188 54.7553H111.706C112.294 54.7553 112.431 54.7622 112.431 54.7622V40.4232L111.706 40.4205H108.877C108.359 40.4205 108.292 40.4626 108.086 40.6919L102.824 49.2236H102.678M82.2445 48.2817H88.7673V46.0214H82.2445V42.5679H89.5225L90.5109 40.3068H78.2571C77.7365 40.3137 77.5956 40.379 77.5872 40.7121V54.6406L90.3492 54.6441V52.823L90.3527 52.383H82.2437V48.2814M197.32 40.3069H194.8L194.076 40.3035C194.076 40.3035 194.164 48.9611 194.164 49.6293L186.387 40.5786C186.181 40.3486 186.109 40.3066 185.592 40.3066H182.764L182.683 40.3082C182.234 40.3117 182.074 40.3683 182.041 40.6166V54.6481C182.041 54.6481 182.178 54.6446 182.764 54.6446H185.283C185.869 54.6446 186.008 54.6481 186.008 54.6481V46.6697C186.008 45.7064 185.981 45.0706 185.981 44.7979C185.981 44.7979 193.932 53.9999 194.252 54.3512C194.573 54.7021 195.047 54.6442 195.047 54.6442H197.321L198.047 54.654V40.3048L197.321 40.3083M120.065 48.2818H126.59V46.0215H120.065V42.568H127.345L128.335 40.3069H116.073C115.597 40.3138 115.437 40.3688 115.409 40.6368V54.6407L128.17 54.6442L128.171 54.2049V52.8231L128.173 52.3831H120.066V48.2815M179.785 47.4859C179.785 42.4222 176.509 39.9526 171.198 39.9526C165.885 39.9526 162.61 42.4002 162.61 47.4859C162.61 52.5516 165.849 54.9998 171.198 54.9998C176.541 54.9998 179.785 52.5516 179.785 47.4859ZM171.198 52.8032C168.61 52.8032 167.507 50.7515 167.507 47.4859C167.507 44.2218 168.61 42.1495 171.198 42.1495C173.785 42.1495 174.885 44.2003 174.885 47.4859C174.885 50.7515 173.785 52.8032 171.198 52.8032ZM135.237 48.7222H136.892L141.863 54.6399H147.068L140.996 48.2196C142.274 47.8217 144.929 47.0475 144.929 44.3469C144.929 40.4126 139.548 40.3072 136.892 40.3072H131.306C130.72 40.3072 130.58 40.3691 130.58 40.7486V54.6486C130.58 54.6486 130.72 54.6451 131.306 54.6451H134.514L135.237 54.6486L135.237 48.7222ZM135.237 46.5234V42.505H136.512C138.304 42.505 140.272 42.568 140.272 44.3887C140.272 46.3144 138.376 46.5233 136.136 46.5233L135.237 46.5234Z" fill="white"/>
<path d="M136.837 21.7501L141.871 27.8469C142.84 28.993 142.803 29.1837 142.714 29.3188L144.561 26.2519C144.639 26.1069 144.421 25.8006 144.106 25.4132L144.006 25.2909L138.809 18.9952L138.779 18.9574L133.744 12.8596C132.777 11.7145 132.861 11.4951 132.916 11.3785L131.077 14.4347C130.995 14.5791 131.195 14.9062 131.513 15.2947L131.612 15.4161L136.806 21.7122L136.836 21.7503M139.357 34.9408C139.357 34.9408 139.421 34.8516 139.38 34.7049C139.32 34.5416 139.15 34.3131 138.932 34.047L138.834 33.9249L133.637 27.6296L133.604 27.5903L128.573 21.4941C127.604 20.3488 127.689 20.1286 127.742 20.0116L125.905 23.0691C125.82 23.2127 126.024 23.5408 126.34 23.929L126.438 24.0501L131.632 30.3454L131.662 30.3844L136.698 36.4827C137.621 37.5784 137.632 37.7982 137.553 37.9365L139.354 34.9409M140.142 33.6196L140.133 33.636C140.135 33.6291 140.14 33.6229 140.142 33.6196ZM141.951 30.6076C141.971 30.5744 141.997 30.497 141.968 30.3871C141.907 30.2234 141.735 29.9964 141.519 29.7298L141.421 29.6081L136.224 23.312L136.194 23.2736L131.158 17.1768C130.192 16.0325 130.274 15.8124 130.33 15.6947L128.492 18.7528C128.408 18.8958 128.608 19.2246 128.926 19.6114L129.024 19.7337L134.219 26.0294L134.252 26.0669L139.285 32.1651C140.213 33.2623 140.221 33.483 140.142 33.6196L141.951 30.6076ZM147.898 20.6687L147.888 20.6851C147.892 20.6782 147.895 20.6753 147.898 20.6687ZM149.278 16.7796L149.177 16.6572L143.981 10.3615L143.951 10.3232L138.915 4.22633C137.95 3.08131 138.033 2.85318 138.082 2.7373L136.259 5.77072C136.243 5.80483 136.219 5.87602 136.243 5.97542C136.295 6.14536 136.462 6.38821 136.684 6.66096L136.781 6.78267L141.977 13.079L142.007 13.1154L147.041 19.2131C147.966 20.311 147.974 20.5326 147.896 20.6691L149.731 17.6199C149.81 17.4736 149.59 17.168 149.275 16.7802M146.693 21.096L146.593 20.9743L141.395 14.6782L141.365 14.6395L136.334 8.54372C135.365 7.39803 135.449 7.17063 135.499 7.0554L133.676 10.088C133.659 10.1208 133.636 10.19 133.659 10.2874C133.709 10.4587 133.875 10.7035 134.101 10.9783L134.199 11.0981L139.395 17.3948L139.425 17.4326L144.458 23.5302C145.385 24.6285 145.39 24.8487 145.315 24.9845L147.15 21.9351C147.227 21.7887 147.011 21.4846 146.695 21.0957M145.314 24.9848L145.304 25.0045C145.306 24.9976 145.314 24.9947 145.314 24.9848Z" fill="#B3B3B3"/>
<path d="M148.108 17.3473L141.164 14.4892L141.12 14.4728L133.95 11.522L133.839 11.4787C133.616 11.3992 133.136 11.2516 132.933 11.3638C132.91 11.3769 132.889 11.4006 132.878 11.4209L131.073 14.4353C131.149 14.3414 131.368 14.1676 132.683 14.7279L139.63 17.586L139.673 17.6024L146.843 20.5526L146.944 20.593C147.161 20.6711 147.655 20.8252 147.86 20.7108C147.883 20.6976 147.937 20.6307 147.948 20.6107L149.724 17.6387C149.648 17.7325 149.422 17.9051 148.107 17.3464M145.525 21.6641L138.579 18.8068L138.537 18.7904L131.363 15.8406L131.251 15.7964C131.032 15.7186 130.549 15.5694 130.346 15.6825C130.323 15.6956 130.302 15.7192 130.293 15.7389L128.487 18.7543C128.566 18.6595 128.783 18.4849 130.097 19.0456L137.043 21.9052L137.086 21.9216L144.258 24.8724L144.36 24.9128C144.576 24.9899 145.069 25.1451 145.273 25.0296C145.296 25.0165 145.351 24.9488 145.362 24.9302L147.139 21.958C147.061 22.0528 146.836 22.225 145.525 21.666M142.938 25.9811L135.992 23.1225L135.949 23.1061L128.777 20.1557L128.665 20.1114C128.446 20.032 127.963 19.8841 127.76 19.9966C127.736 20.0097 127.717 20.0324 127.707 20.055L125.9 23.0691C125.978 22.974 126.197 22.8001 127.511 23.3611L134.458 26.2184L134.499 26.2348L141.67 29.1852L141.775 29.2256C141.989 29.3024 142.483 29.4582 142.69 29.3417C142.71 29.3319 142.766 29.261 142.774 29.2417L144.553 26.2701C144.477 26.3649 144.249 26.5388 142.938 25.9782" fill="white"/>
<path d="M264.5 3C264.102 3 263.721 3.15804 263.439 3.43934C263.158 3.72064 263 4.10218 263 4.5V11.5C263 11.8978 263.158 12.2794 263.439 12.5607C263.721 12.842 264.102 13 264.5 13H271.5C271.898 13 272.279 12.842 272.561 12.5607C272.842 12.2794 273 11.8978 273 11.5V9.27C273 9.13739 273.053 9.01021 273.146 8.91645C273.24 8.82268 273.367 8.77 273.5 8.77C273.633 8.77 273.76 8.82268 273.854 8.91645C273.947 9.01021 274 9.13739 274 9.27V11.5C274 12.163 273.737 12.7989 273.268 13.2678C272.799 13.7366 272.163 14 271.5 14H264.5C263.837 14 263.201 13.7366 262.732 13.2678C262.263 12.7989 262 12.163 262 11.5V4.5C262 3.83696 262.263 3.20107 262.732 2.73223C263.201 2.26339 263.837 2 264.5 2H266.73C266.863 2 266.99 2.05268 267.084 2.14645C267.177 2.24021 267.23 2.36739 267.23 2.5C267.23 2.63261 267.177 2.75979 267.084 2.85355C266.99 2.94732 266.863 3 266.73 3H264.5ZM268.77 2.5C268.77 2.36739 268.823 2.24021 268.916 2.14645C269.01 2.05268 269.137 2 269.27 2H273.5C273.633 2 273.76 2.05268 273.854 2.14645C273.947 2.24021 274 2.36739 274 2.5V6.73C274 6.86261 273.947 6.98979 273.854 7.08355C273.76 7.17732 273.633 7.23 273.5 7.23C273.367 7.23 273.24 7.17732 273.146 7.08355C273.053 6.98979 273 6.86261 273 6.73V3.708L269.623 7.084C269.577 7.13176 269.522 7.16985 269.461 7.19605C269.4 7.22226 269.334 7.23605 269.268 7.23663C269.201 7.2372 269.135 7.22455 269.074 7.19941C269.013 7.17427 268.957 7.13714 268.91 7.0902C268.863 7.04325 268.826 6.98743 268.801 6.92598C268.775 6.86453 268.763 6.79869 268.763 6.7323C268.764 6.66591 268.778 6.6003 268.804 6.5393C268.83 6.4783 268.868 6.42312 268.916 6.377L272.293 3H269.269C269.136 3 269.009 2.94732 268.915 2.85355C268.822 2.75979 268.769 2.63261 268.769 2.5" fill="white"/>
</svg>
