<svg width="276" height="59" viewBox="0 0 276 59" fill="none" xmlns="http://www.w3.org/2000/svg">
<path d="M137.556 37.9363L137.546 37.9527C137.549 37.9457 137.553 37.9396 137.556 37.9363ZM158.759 46.9182C155.888 45.5591 151.979 45.4361 151.979 43.8463C151.979 42.5899 153.249 42.2136 154.75 42.2136C157.097 42.2136 159.121 43.1334 159.317 43.1334C159.447 43.1334 159.579 43.0508 159.674 42.9241L159.897 42.6403L161.065 41.1697V41.1681C161.068 41.1681 161.062 41.1655 161.031 41.155C160.96 41.1192 160.757 41.029 160.474 40.9175C160.244 40.8296 160.1 40.781 160.029 40.7584C158.866 40.3749 156.718 39.9526 154.62 39.9526C150.835 39.9526 147.443 41.2084 147.443 44.2219C147.443 45.9589 148.245 47.0568 149.974 47.7274C153.302 49.0256 156.641 48.9521 156.641 50.8137C156.641 52.1122 155.828 52.739 154 52.739C151.194 52.739 148.781 51.8192 148.584 51.8192C148.453 51.8192 148.291 51.9029 148.227 52.0282L147.87 52.6847L147.243 53.833L147.754 54.0229C148.795 54.4295 151.511 54.9995 154.13 54.9995C158.242 54.9995 161.253 53.6677 161.176 50.5836C161.138 48.9943 160.424 47.7131 158.759 46.9171M102.679 49.224L97.14 40.6923C96.9338 40.463 96.8645 40.421 96.3465 40.421H93.5167L92.7927 40.4236V54.7624C92.7927 54.7624 92.9317 54.7555 93.5167 54.7555H96.0368C96.6218 54.7555 96.7583 54.7624 96.7583 54.7624V46.7832C96.7583 45.8207 96.7318 45.4423 96.7318 45.1696C96.7318 45.1696 102.195 53.8258 102.737 54.435L102.767 54.4342C103.31 53.8222 108.494 45.1698 108.494 45.1698C108.494 45.4424 108.464 45.8209 108.464 46.7834V54.7624C108.464 54.7624 108.604 54.7555 109.188 54.7555H111.706C112.294 54.7555 112.431 54.7624 112.431 54.7624V40.4234L111.706 40.4208H108.877C108.359 40.4208 108.292 40.4628 108.086 40.6921L102.824 49.2238H102.678M82.2445 48.282H88.7673V46.0217H82.2445V42.5681H89.5225L90.5109 40.307H78.2571C77.7365 40.314 77.5956 40.3792 77.5872 40.7123V54.6409L90.3492 54.6443V52.8233L90.3527 52.3833H82.2437V48.2817M197.32 40.3072H194.8L194.076 40.3037C194.076 40.3037 194.164 48.9614 194.164 49.6295L186.387 40.5788C186.181 40.3488 186.109 40.3068 185.592 40.3068H182.764L182.683 40.3085C182.234 40.312 182.074 40.3686 182.041 40.6169V54.6483C182.041 54.6483 182.178 54.6449 182.764 54.6449H185.283C185.869 54.6449 186.008 54.6483 186.008 54.6483V46.6699C186.008 45.7066 185.981 45.0708 185.981 44.7982C185.981 44.7982 193.932 54.0001 194.252 54.3514C194.573 54.7023 195.047 54.6444 195.047 54.6444H197.321L198.047 54.6542V40.3051L197.321 40.3085M120.065 48.282H126.59V46.0218H120.065V42.5682H127.345L128.335 40.3071H116.073C115.597 40.3141 115.437 40.3691 115.409 40.637V54.6409L128.17 54.6444L128.171 54.2052V52.8234L128.173 52.3834H120.066V48.2818M179.785 47.4862C179.785 42.4224 176.509 39.9528 171.198 39.9528C165.885 39.9528 162.61 42.4004 162.61 47.4862C162.61 52.5518 165.849 55.0001 171.198 55.0001C176.541 55.0001 179.785 52.5518 179.785 47.4862ZM171.198 52.8035C168.61 52.8035 167.507 50.7518 167.507 47.4862C167.507 44.222 168.61 42.1498 171.198 42.1498C173.785 42.1498 174.885 44.2005 174.885 47.4862C174.885 50.7518 173.785 52.8035 171.198 52.8035ZM135.237 48.7224H136.892L141.863 54.6401H147.068L140.996 48.2199C142.274 47.822 144.929 47.0477 144.929 44.3472C144.929 40.4128 139.548 40.3074 136.892 40.3074H131.306C130.72 40.3074 130.58 40.3694 130.58 40.7489V54.6489C130.58 54.6489 130.72 54.6454 131.306 54.6454H134.514L135.237 54.6489L135.237 48.7224ZM135.237 46.5236V42.5052H136.512C138.304 42.5052 140.272 42.5682 140.272 44.389C140.272 46.3147 138.376 46.5235 136.136 46.5235L135.237 46.5236Z" fill="white"/>
<path d="M136.837 21.7501L141.871 27.8469C142.84 28.993 142.803 29.1837 142.714 29.3188L144.561 26.2519C144.639 26.1069 144.421 25.8006 144.106 25.4132L144.006 25.2909L138.809 18.9952L138.779 18.9574L133.744 12.8596C132.777 11.7145 132.861 11.4951 132.916 11.3785L131.077 14.4347C130.995 14.5791 131.195 14.9062 131.513 15.2947L131.612 15.4161L136.806 21.7122L136.836 21.7503M139.357 34.9408C139.357 34.9408 139.421 34.8516 139.38 34.7049C139.32 34.5416 139.15 34.3131 138.932 34.047L138.834 33.9249L133.637 27.6296L133.604 27.5903L128.573 21.4941C127.604 20.3488 127.689 20.1286 127.742 20.0116L125.905 23.0691C125.82 23.2127 126.024 23.5408 126.34 23.929L126.438 24.0501L131.632 30.3454L131.662 30.3844L136.698 36.4827C137.621 37.5784 137.632 37.7982 137.553 37.9365L139.354 34.9409M140.142 33.6196L140.133 33.636C140.135 33.6291 140.14 33.6229 140.142 33.6196ZM141.951 30.6076C141.971 30.5744 141.997 30.497 141.968 30.3871C141.907 30.2234 141.735 29.9964 141.519 29.7298L141.421 29.6081L136.224 23.312L136.194 23.2736L131.158 17.1768C130.192 16.0325 130.274 15.8124 130.33 15.6947L128.492 18.7528C128.408 18.8958 128.608 19.2246 128.926 19.6114L129.024 19.7337L134.219 26.0294L134.252 26.0669L139.285 32.1651C140.213 33.2623 140.221 33.483 140.142 33.6196L141.951 30.6076ZM147.898 20.6687L147.888 20.6851C147.892 20.6782 147.895 20.6753 147.898 20.6687ZM149.278 16.7796L149.177 16.6572L143.981 10.3615L143.951 10.3232L138.915 4.22633C137.95 3.08131 138.033 2.85318 138.082 2.7373L136.259 5.77072C136.243 5.80483 136.219 5.87602 136.243 5.97542C136.295 6.14536 136.462 6.38821 136.684 6.66096L136.781 6.78267L141.977 13.079L142.007 13.1154L147.041 19.2131C147.966 20.311 147.974 20.5326 147.896 20.6691L149.731 17.6199C149.81 17.4736 149.59 17.168 149.275 16.7802M146.693 21.096L146.593 20.9743L141.395 14.6782L141.365 14.6395L136.334 8.54372C135.365 7.39803 135.449 7.17063 135.499 7.0554L133.676 10.088C133.659 10.1208 133.636 10.19 133.659 10.2874C133.709 10.4587 133.875 10.7035 134.101 10.9783L134.199 11.0981L139.395 17.3948L139.425 17.4326L144.458 23.5302C145.385 24.6285 145.39 24.8487 145.315 24.9845L147.15 21.9351C147.227 21.7887 147.011 21.4846 146.695 21.0957M145.314 24.9848L145.304 25.0045C145.306 24.9976 145.314 24.9947 145.314 24.9848Z" fill="#B9B9B9"/>
<path d="M148.108 17.3471L141.164 14.4889L141.12 14.4725L133.95 11.5217L133.839 11.4784C133.616 11.399 133.136 11.2514 132.933 11.3636C132.91 11.3767 132.889 11.4003 132.878 11.4207L131.073 14.435C131.149 14.3412 131.368 14.1673 132.683 14.7276L139.63 17.5858L139.673 17.6022L146.843 20.5524L146.944 20.5927C147.161 20.6709 147.655 20.825 147.86 20.7105C147.883 20.6974 147.937 20.6305 147.948 20.6104L149.724 17.6385C149.648 17.7323 149.422 17.9049 148.107 17.3462M145.525 21.6639L138.579 18.8066L138.537 18.7902L131.363 15.8404L131.251 15.7961C131.032 15.7183 130.549 15.5691 130.346 15.6823C130.323 15.6954 130.302 15.719 130.293 15.7387L128.487 18.754C128.566 18.6592 128.783 18.4847 130.097 19.0454L137.043 21.9049L137.086 21.9214L144.258 24.8722L144.36 24.9125C144.576 24.9896 145.069 25.1448 145.273 25.0293C145.296 25.0162 145.351 24.9486 145.362 24.9299L147.139 21.9577C147.061 22.0526 146.836 22.2248 145.525 21.6658M142.938 25.9808L135.992 23.1223L135.949 23.1059L128.777 20.1555L128.665 20.1112C128.446 20.0318 127.963 19.8839 127.76 19.9964C127.736 20.0095 127.717 20.0321 127.707 20.0548L125.9 23.0689C125.978 22.9738 126.197 22.7999 127.511 23.3609L134.458 26.2182L134.499 26.2346L141.67 29.185L141.775 29.2254C141.989 29.3022 142.483 29.458 142.69 29.3415C142.71 29.3317 142.766 29.2608 142.774 29.2414L144.553 26.2699C144.477 26.3647 144.249 26.5386 142.938 25.9779" fill="white"/>
</svg>
