<svg width="276" height="59" viewBox="0 0 276 59" fill="none" xmlns="http://www.w3.org/2000/svg">
<path fill-rule="evenodd" clip-rule="evenodd" d="M41 16.1354V22.2708H44.0976H47.1953V19.2031V16.1354H53.8745H60.5538V13.0677V10H50.7769H41V16.1354ZM194.182 12.8203L194.236 15.6406H197.043H199.85L199.904 12.8203L199.958 10H197.043H194.128L194.182 12.8203ZM224.999 13.245C224.943 13.397 224.925 17.9616 224.961 23.3883L225.025 33.2552L225.576 34.8759C226.831 38.5681 229.766 40.609 233.577 40.439L234.892 40.3802L234.946 37.6589L235 34.9375H234.007C232.73 34.9375 231.816 34.4851 231.265 33.5806C230.846 32.8916 230.824 32.6442 230.763 28.0599L230.7 23.2604H232.651H234.602V20.6875V18.1146H232.666H230.73V15.5417V12.9688H227.917C225.687 12.9688 225.082 13.0261 224.999 13.245ZM67.0098 17.9137C62.6331 19.0867 59.4367 22.6681 58.6288 27.3046C58.351 28.8989 58.3707 29.7384 58.7283 31.5317C59.4385 35.0935 61.7108 38.1184 64.8326 39.6578C66.8604 40.6577 67.7366 40.8641 69.9818 40.8703C76.9728 40.8893 82.3557 34.3746 81.1689 27.3314C80.7351 24.7571 79.8209 22.9622 77.9815 21.0726C74.9611 17.9703 71.0261 16.8374 67.0098 17.9137ZM92.7885 17.7977C91.6486 18.1662 90.8269 18.6436 89.9697 19.4353L89.2069 20.1399V19.1271V18.1146H86.4965H83.786V29.3022V40.4897L86.6417 40.435L89.4973 40.3802L89.5941 33.5521C89.689 26.857 89.6998 26.7054 90.1522 25.766C90.9787 24.0499 92.955 23.1021 95.2922 23.3008L96.2734 23.3843L96.2174 20.7C96.1866 19.2235 96.1241 17.9044 96.0784 17.7682C95.9688 17.4425 93.8278 17.4617 92.7885 17.7977ZM105.082 17.8341C101.246 18.8686 98.0824 22.1511 97.0383 26.1799C96.6892 27.5267 96.6518 30.7504 96.9694 32.1083C97.7064 35.2595 100.228 38.4743 102.981 39.7714C104.869 40.6615 106.382 40.9419 108.701 40.8319C111.739 40.6876 114.065 39.6562 116.043 37.5755C116.858 36.7182 118.106 34.4168 118.359 33.3047L118.483 32.7604H115.534H112.585L111.793 33.6795C109.249 36.634 105.08 35.9613 103.186 32.291C102.718 31.3839 102.662 31.0655 102.662 29.2969C102.662 27.7015 102.741 27.1431 103.07 26.417C104.454 23.36 107.659 22.1014 110.307 23.5751C110.866 23.8862 111.553 24.4548 111.832 24.8386C112.112 25.2224 112.428 25.6032 112.535 25.6847C112.642 25.7664 113.993 25.811 115.537 25.7837L118.344 25.7344L118.314 25.2384C118.26 24.343 117.026 22.0294 116.001 20.9024C113.997 18.6982 111.145 17.5101 107.916 17.5339C106.943 17.541 105.668 17.6762 105.082 17.8341ZM128.827 17.8343C126.96 18.2961 125.08 19.4218 123.548 20.9939C119.066 25.5944 119.091 32.949 123.606 37.5646C125.76 39.7659 128.374 40.8683 131.451 40.8726C134.783 40.8774 137.255 39.8939 139.359 37.7273C140.471 36.5822 141.673 34.6165 141.673 33.9426C141.673 33.826 140.481 33.75 138.655 33.75H135.636L134.839 34.4473C132.227 36.7332 127.917 35.761 126.44 32.5526L126.034 31.6719L134.241 31.6202L142.447 31.5688V29.9249C142.447 25.6366 141.077 22.2968 138.368 19.9827C135.911 17.8844 132.096 17.0253 128.827 17.8343ZM154.598 17.8292C153.249 18.1635 152.095 18.74 151.063 19.5962L150.288 20.2382L150.355 19.1764L150.421 18.1146H147.596H144.771V33.0573V48H147.675H150.579V43.2466V38.4935L151.55 39.1765C154.262 41.0836 157.84 41.388 160.839 39.967C164.549 38.2087 166.872 34.5035 167.157 29.8906C167.631 22.2194 161.324 16.1625 154.598 17.8292ZM177.75 17.9137C175.24 18.5862 173.124 20.0205 171.617 22.0711C168.374 26.4805 168.366 32.0467 171.595 36.3366C173.795 39.26 177.008 40.875 180.623 40.875C183.887 40.875 186.282 39.8442 188.628 37.4291C191.041 34.9452 192.003 32.629 192.007 29.2929C192.011 25.9366 190.751 22.9453 188.37 20.6638C185.526 17.9382 181.525 16.9021 177.75 17.9137ZM211.739 17.7969C210.475 18.2975 209.733 18.7436 209.046 19.4151L208.369 20.0781L208.436 19.0962L208.503 18.1146H205.677H202.851V29.2969V40.4792H205.755H208.659V33.393V26.3069L209.162 25.2756C209.879 23.8055 210.963 23.1797 212.812 23.1692C214.42 23.1601 215.336 23.6218 216.055 24.8042C216.494 25.5262 216.502 25.6416 216.597 32.9583L216.694 40.3802L219.561 40.435L222.429 40.4899L222.36 32.6173C222.292 24.9999 222.276 24.7048 221.847 23.5132C220.892 20.8526 219.469 19.2239 217.178 18.1684C215.851 17.5573 212.86 17.353 211.739 17.7969ZM194.139 29.2969V40.4792H197.043H199.947V29.2969V18.1146H197.043H194.139V29.2969ZM50.4865 25.2396V28.4163L53.5357 28.3617L56.585 28.3073V25.2396V22.1719L53.5357 22.1174L50.4865 22.0628V25.2396ZM133.936 23.3631C134.945 23.8858 135.937 24.9583 136.357 25.9818L136.621 26.625H131.403C128.533 26.625 126.185 26.5583 126.186 26.4766C126.187 26.245 126.955 24.9934 127.415 24.4736C127.965 23.8532 129.083 23.1337 129.89 22.8824C130.884 22.5729 132.865 22.8082 133.936 23.3631ZM71.6371 23.2594C73.2218 23.7598 74.4738 24.8554 75.2083 26.3847C75.6819 27.3706 75.7514 27.744 75.7502 29.2969C75.749 30.7708 75.6724 31.2248 75.3063 31.9282C74.6248 33.2368 73.5991 34.2774 72.3947 34.8821C70.9336 35.6156 68.8622 35.652 67.4861 34.9686C65.626 34.0447 64.3875 32.3521 64.0733 30.3043C63.4733 26.3923 66.1001 23.0884 69.9716 22.8864C70.1998 22.8743 70.9494 23.0423 71.6371 23.2594ZM183.011 23.4603C184.293 24.0948 185.362 25.1618 185.939 26.3828C186.655 27.9 186.717 30.3799 186.073 31.8057C184.103 36.1687 178.376 36.7661 175.798 32.8772C173.941 30.0767 174.569 25.9454 177.127 24.1334C178.961 22.8343 181.223 22.5754 183.011 23.4603ZM157.431 23.2757C158.695 23.6012 160.029 24.7517 160.725 26.1177C161.273 27.194 161.323 27.4523 161.321 29.1855C161.318 30.7888 161.245 31.2281 160.845 32.0594C160.311 33.1673 159.235 34.3493 158.285 34.8728C157.382 35.3696 154.813 35.3692 153.835 34.8722C152.77 34.3303 151.748 33.2174 151.181 31.982C150.488 30.4707 150.461 28.0023 151.123 26.526C152.317 23.8585 154.775 22.5921 157.431 23.2757ZM41 34.3438V40.4792H44.0976H47.1953V34.3438V28.2083H44.0976H41V34.3438Z" fill="white"/>
</svg>
