<svg width="276" height="59" viewBox="0 0 276 59" fill="none" xmlns="http://www.w3.org/2000/svg">
<g clip-path="url(#clip0_2001_3589)">
<path d="M151.03 23.2545V19H155.867V38.9273H151.03V23.2545ZM129.734 19H148.395V23.2909H139.624V38.9636H134.824V23.2909H129.734V19ZM226 19V23.2909H217.229V38.9636H212.428V23.2909H207.339V19H226ZM50 19H70.9352V23.2909H54.8368V27.5455H68.5529V31.8364H54.8368V38.9273H50V19ZM185.176 19H204.668V23.2909H190.013V26.8545H202.033V31.1455H190.013V34.7091H204.92V39H185.176V19ZM181.459 24.6364V38.9273H176.622V24.6364C176.622 23.8727 176.044 23.2909 175.286 23.2909H164.458V38.9636H159.621V19H175.864C178.932 19 181.459 21.5455 181.459 24.6364ZM122.299 19H105.803V38.9273H110.64V31.8364H121.468C122.046 31.8727 122.515 32.3455 122.515 32.9273V38.9636H127.352V32.8545C127.352 31.8 126.774 30.8909 125.908 30.3818C126.955 29.4 127.605 27.9818 127.605 26.4545V24.3455C127.641 21.4 125.258 19 122.299 19ZM122.804 26.4545C122.804 27.0364 122.335 27.5455 121.721 27.5455H110.64V23.2909H121.721C122.299 23.2909 122.804 23.7636 122.804 24.3818V26.4545Z" fill="white"/>
<path d="M102.049 26.4182V31.5818H94.0359V26.4182H102.049ZM83.8932 38.9273H91.8702V33.7636H83.8932V38.9273ZM102.049 23.3273C102.049 20.9273 100.136 19 97.7537 19H94.072V24.1636H102.049V23.3273ZM83.8932 19V24.1636H91.8702V19H83.8932ZM73.7144 26.4182V31.5818H81.6914V26.4182H73.7144ZM94.0359 38.9273H97.7176C100.1 38.9273 102.013 37 102.013 34.6V33.7636H94.0359V38.9273ZM73.7144 34.6C73.7144 37 75.6274 38.9273 78.0097 38.9273H81.6914V33.7636H73.7144V34.6ZM73.7144 23.3273V24.1636H81.6914V19H78.0097C75.6274 19 73.7144 20.9273 73.7144 23.3273Z" fill="#B9B9B9"/>
</g>
<path d="M264.5 3C264.102 3 263.721 3.15804 263.439 3.43934C263.158 3.72064 263 4.10218 263 4.5V11.5C263 11.8978 263.158 12.2794 263.439 12.5607C263.721 12.842 264.102 13 264.5 13H271.5C271.898 13 272.279 12.842 272.561 12.5607C272.842 12.2794 273 11.8978 273 11.5V9.27C273 9.13739 273.053 9.01021 273.146 8.91645C273.24 8.82268 273.367 8.77 273.5 8.77C273.633 8.77 273.76 8.82268 273.854 8.91645C273.947 9.01021 274 9.13739 274 9.27V11.5C274 12.163 273.737 12.7989 273.268 13.2678C272.799 13.7366 272.163 14 271.5 14H264.5C263.837 14 263.201 13.7366 262.732 13.2678C262.263 12.7989 262 12.163 262 11.5V4.5C262 3.83696 262.263 3.20107 262.732 2.73223C263.201 2.26339 263.837 2 264.5 2H266.73C266.863 2 266.99 2.05268 267.084 2.14645C267.177 2.24021 267.23 2.36739 267.23 2.5C267.23 2.63261 267.177 2.75979 267.084 2.85355C266.99 2.94732 266.863 3 266.73 3H264.5ZM268.77 2.5C268.77 2.36739 268.823 2.24021 268.916 2.14645C269.01 2.05268 269.137 2 269.27 2H273.5C273.633 2 273.76 2.05268 273.854 2.14645C273.947 2.24021 274 2.36739 274 2.5V6.73C274 6.86261 273.947 6.98979 273.854 7.08355C273.76 7.17732 273.633 7.23 273.5 7.23C273.367 7.23 273.24 7.17732 273.146 7.08355C273.053 6.98979 273 6.86261 273 6.73V3.708L269.623 7.084C269.577 7.13176 269.522 7.16985 269.461 7.19605C269.4 7.22226 269.334 7.23605 269.268 7.23663C269.201 7.2372 269.135 7.22455 269.074 7.19941C269.013 7.17427 268.957 7.13714 268.91 7.0902C268.863 7.04325 268.826 6.98743 268.801 6.92598C268.775 6.86453 268.763 6.79869 268.763 6.7323C268.764 6.66591 268.778 6.6003 268.804 6.5393C268.83 6.4783 268.868 6.42312 268.916 6.377L272.293 3H269.269C269.136 3 269.009 2.94732 268.915 2.85355C268.822 2.75979 268.769 2.63261 268.769 2.5" fill="white"/>
<defs>
<clipPath id="clip0_2001_3589">
<rect width="176" height="20" fill="white" transform="translate(50 19)"/>
</clipPath>
</defs>
</svg>
