<svg width="276" height="59" viewBox="0 0 276 59" fill="none" xmlns="http://www.w3.org/2000/svg">
<g clip-path="url(#clip0_929_4059)">
<path d="M151.03 23.2545V19H155.867V38.9273H151.03V23.2545ZM129.734 19H148.395V23.2909H139.624V38.9636H134.824V23.2909H129.734V19ZM226 19V23.2909H217.229V38.9636H212.428V23.2909H207.339V19H226ZM50 19H70.9352V23.2909H54.8368V27.5455H68.5529V31.8364H54.8368V38.9273H50V19ZM185.176 19H204.668V23.2909H190.013V26.8545H202.033V31.1455H190.013V34.7091H204.92V39H185.176V19ZM181.459 24.6364V38.9273H176.622V24.6364C176.622 23.8727 176.044 23.2909 175.286 23.2909H164.458V38.9636H159.621V19H175.864C178.932 19 181.459 21.5455 181.459 24.6364ZM122.299 19H105.803V38.9273H110.64V31.8364H121.468C122.046 31.8727 122.515 32.3455 122.515 32.9273V38.9636H127.352V32.8545C127.352 31.8 126.774 30.8909 125.908 30.3818C126.955 29.4 127.605 27.9818 127.605 26.4545V24.3455C127.641 21.4 125.258 19 122.299 19ZM122.804 26.4545C122.804 27.0364 122.335 27.5455 121.721 27.5455H110.64V23.2909H121.721C122.299 23.2909 122.804 23.7636 122.804 24.3818V26.4545Z" fill="white"/>
<path d="M102.049 26.4182V31.5818H94.0359V26.4182H102.049ZM83.8932 38.9273H91.8702V33.7636H83.8932V38.9273ZM102.049 23.3273C102.049 20.9273 100.136 19 97.7537 19H94.072V24.1636H102.049V23.3273ZM83.8932 19V24.1636H91.8702V19H83.8932ZM73.7144 26.4182V31.5818H81.6914V26.4182H73.7144ZM94.0359 38.9273H97.7176C100.1 38.9273 102.013 37 102.013 34.6V33.7636H94.0359V38.9273ZM73.7144 34.6C73.7144 37 75.6274 38.9273 78.0097 38.9273H81.6914V33.7636H73.7144V34.6ZM73.7144 23.3273V24.1636H81.6914V19H78.0097C75.6274 19 73.7144 20.9273 73.7144 23.3273Z" fill="#B9B9B9"/>
</g>
<defs>
<clipPath id="clip0_929_4059">
<rect width="176" height="20" fill="white" transform="translate(50 19)"/>
</clipPath>
</defs>
</svg>
