<svg width="276" height="59" viewBox="0 0 276 59" fill="none" xmlns="http://www.w3.org/2000/svg">
<g clip-path="url(#clip0_2001_3583)">
<mask id="mask0_2001_3583" style="mask-type:luminance" maskUnits="userSpaceOnUse" x="38" y="10" width="200" height="38">
<path d="M238 10H38V48H238V10Z" fill="white"/>
</mask>
<g mask="url(#mask0_2001_3583)">
<path d="M79.3167 28.6805C79.3167 35.7557 83.8753 40.3475 90.9907 40.3475C97.8889 40.3475 102.013 35.6385 102.013 28.9382V27.2749H91.7383L88.2651 31.1169H97.2376C96.6829 34.6781 94.3432 36.4117 90.9907 36.4117C86.5768 36.4117 83.8512 33.413 83.8512 28.6571C83.8512 23.9011 86.5768 20.879 90.9907 20.879C93.9332 20.879 96.2004 22.4253 96.9482 24.932H101.579C100.663 20.059 96.5622 16.9666 91.0147 16.9666C83.8753 16.99 79.3167 21.6053 79.3167 28.6805ZM124.975 28.6805C124.975 35.6854 129.654 40.3475 136.649 40.3475C143.668 40.3475 148.323 35.662 148.323 28.6805C148.347 21.6756 143.716 16.99 136.649 16.99C129.606 16.99 124.975 21.6287 124.975 28.6805ZM129.486 28.6805C129.486 23.9246 132.259 20.9493 136.649 20.9493C141.015 20.9493 143.813 23.9011 143.813 28.6805C143.813 33.4598 141.063 36.3882 136.649 36.3882C132.259 36.3882 129.486 33.4363 129.486 28.6805ZM150.638 31.3513C150.638 37.1146 154.642 40.3475 160.769 40.3475C166.823 40.3475 170.827 37.1379 170.827 31.3513V17.4585H166.364V30.6485C166.364 34.4672 164.194 36.3414 160.769 36.3414C157.271 36.3414 155.125 34.4907 155.125 30.6485V17.4585H150.638V31.3513ZM174.179 39.8791H178.617V31.445H185.95C190.46 31.445 193.282 28.6102 193.282 24.4401C193.282 20.2465 190.436 17.482 185.95 17.482H174.179V39.8791ZM178.617 27.3685V21.4881H185.467C187.565 21.4881 188.772 22.519 188.772 24.4166C188.772 26.3143 187.542 27.3685 185.467 27.3685H178.617ZM229.992 35.8963H222.804V30.5547L230.112 30.5313C232.332 30.5313 233.465 31.3513 233.465 33.1552C233.465 35.0763 232.332 35.8963 229.992 35.8963ZM229.919 21.4413C231.849 21.4413 232.862 22.2613 232.862 23.8778C232.862 25.6349 231.776 26.5485 229.919 26.5485H222.804V21.4413H229.919ZM235.154 28.3524C236.529 27.2749 237.444 25.6114 237.444 23.5264C237.444 19.8482 235.008 17.4585 230.45 17.4585H218.39V39.8556H230.475C235.057 39.8556 237.975 37.3488 237.975 33.366C238 31.0936 236.89 29.4068 235.154 28.3524ZM210.214 39.8791H214.676V17.4585H210.214V39.8791ZM104.353 39.8791H108.791V31.1169H113.494L118.969 39.8556H124.348L118.559 30.8359C121.502 29.9221 123.528 27.5559 123.528 24.2995C123.528 20.223 120.899 17.4585 116.003 17.4585H104.353V39.8791ZM108.791 27.2749V21.4178H115.472C117.787 21.4178 118.993 22.4955 118.993 24.3698C118.993 26.2205 117.739 27.2749 115.472 27.2749H108.791Z" fill="white"/>
<path d="M207.32 31.3749H195.332V26.5723H207.32V31.3749Z" fill="#B9B9B9"/>
<path d="M61.3478 14.6387V10L58.164 13.5376C56.9097 13.233 55.6074 13.0456 54.2325 13.0456C45.26 13.0456 38 20.074 38 28.7658C38 34.9741 41.7385 40.3157 47.1413 42.8693V48L50.6628 44.0641C51.8205 44.3219 53.0024 44.4623 54.2325 44.4623C63.205 44.4623 70.465 37.4341 70.465 28.7658C70.465 22.5573 66.7506 17.1924 61.3478 14.6387ZM42.0521 28.7658C42.0521 22.2762 47.5273 16.9815 54.2325 16.9815C54.4978 16.9815 54.7632 17.0049 55.0285 17.0284L48.1785 24.6423C47.5031 25.3922 47.1413 26.3293 47.1413 27.3132V38.2774C44.0782 36.169 42.0521 32.6781 42.0521 28.7658ZM54.2325 40.5265C54.1119 40.5265 53.9672 40.5031 53.8465 40.5031L60.3107 33.3107C60.986 32.561 61.3478 31.6239 61.3478 30.64V25.7904H56.7651V30.5228L51.6999 36.169V27.4538L59.9006 18.3403C63.7597 20.3083 66.4129 24.2442 66.4129 28.7658C66.4129 35.2552 60.9619 40.5265 54.2325 40.5265Z" fill="#B9B9B9"/>
</g>
</g>
<path d="M264.5 3C264.102 3 263.721 3.15804 263.439 3.43934C263.158 3.72064 263 4.10218 263 4.5V11.5C263 11.8978 263.158 12.2794 263.439 12.5607C263.721 12.842 264.102 13 264.5 13H271.5C271.898 13 272.279 12.842 272.561 12.5607C272.842 12.2794 273 11.8978 273 11.5V9.27C273 9.13739 273.053 9.01021 273.146 8.91645C273.24 8.82268 273.367 8.77 273.5 8.77C273.633 8.77 273.76 8.82268 273.854 8.91645C273.947 9.01021 274 9.13739 274 9.27V11.5C274 12.163 273.737 12.7989 273.268 13.2678C272.799 13.7366 272.163 14 271.5 14H264.5C263.837 14 263.201 13.7366 262.732 13.2678C262.263 12.7989 262 12.163 262 11.5V4.5C262 3.83696 262.263 3.20107 262.732 2.73223C263.201 2.26339 263.837 2 264.5 2H266.73C266.863 2 266.99 2.05268 267.084 2.14645C267.177 2.24021 267.23 2.36739 267.23 2.5C267.23 2.63261 267.177 2.75979 267.084 2.85355C266.99 2.94732 266.863 3 266.73 3H264.5ZM268.77 2.5C268.77 2.36739 268.823 2.24021 268.916 2.14645C269.01 2.05268 269.137 2 269.27 2H273.5C273.633 2 273.76 2.05268 273.854 2.14645C273.947 2.24021 274 2.36739 274 2.5V6.73C274 6.86261 273.947 6.98979 273.854 7.08355C273.76 7.17732 273.633 7.23 273.5 7.23C273.367 7.23 273.24 7.17732 273.146 7.08355C273.053 6.98979 273 6.86261 273 6.73V3.708L269.623 7.084C269.577 7.13176 269.522 7.16985 269.461 7.19605C269.4 7.22226 269.334 7.23605 269.268 7.23663C269.201 7.2372 269.135 7.22455 269.074 7.19941C269.013 7.17427 268.957 7.13714 268.91 7.0902C268.863 7.04325 268.826 6.98743 268.801 6.92598C268.775 6.86453 268.763 6.79869 268.763 6.7323C268.764 6.66591 268.778 6.6003 268.804 6.5393C268.83 6.4783 268.868 6.42312 268.916 6.377L272.293 3H269.269C269.136 3 269.009 2.94732 268.915 2.85355C268.822 2.75979 268.769 2.63261 268.769 2.5" fill="white"/>
<defs>
<clipPath id="clip0_2001_3583">
<rect width="200" height="38" fill="white" transform="translate(38 10)"/>
</clipPath>
</defs>
</svg>
