<svg width="276" height="59" viewBox="0 0 276 59" fill="none" xmlns="http://www.w3.org/2000/svg">
<g clip-path="url(#clip0_928_3913)">
<mask id="mask0_928_3913" style="mask-type:luminance" maskUnits="userSpaceOnUse" x="38" y="10" width="200" height="38">
<path d="M238 10H38V48H238V10Z" fill="white"/>
</mask>
<g mask="url(#mask0_928_3913)">
<path d="M79.3169 28.6805C79.3169 35.7557 83.8755 40.3475 90.9909 40.3475C97.8891 40.3475 102.014 35.6385 102.014 28.9382V27.2749H91.7386L88.2654 31.1169H97.2379C96.6831 34.6781 94.3434 36.4117 90.9909 36.4117C86.577 36.4117 83.8515 33.413 83.8515 28.6571C83.8515 23.9011 86.577 20.879 90.9909 20.879C93.9334 20.879 96.2006 22.4253 96.9484 24.932H101.579C100.663 20.059 96.5625 16.9666 91.015 16.9666C83.8755 16.99 79.3169 21.6053 79.3169 28.6805ZM124.975 28.6805C124.975 35.6854 129.655 40.3475 136.649 40.3475C143.668 40.3475 148.323 35.662 148.323 28.6805C148.347 21.6756 143.716 16.99 136.649 16.99C129.606 16.99 124.975 21.6287 124.975 28.6805ZM129.486 28.6805C129.486 23.9246 132.26 20.9493 136.649 20.9493C141.015 20.9493 143.813 23.9011 143.813 28.6805C143.813 33.4598 141.063 36.3882 136.649 36.3882C132.26 36.3882 129.486 33.4363 129.486 28.6805ZM150.639 31.3513C150.639 37.1146 154.643 40.3475 160.769 40.3475C166.823 40.3475 170.827 37.1379 170.827 31.3513V17.4585H166.365V30.6485C166.365 34.4672 164.194 36.3414 160.769 36.3414C157.272 36.3414 155.125 34.4907 155.125 30.6485V17.4585H150.639V31.3513ZM174.179 39.8791H178.617V31.445H185.95C190.46 31.445 193.282 28.6102 193.282 24.4401C193.282 20.2465 190.436 17.482 185.95 17.482H174.179V39.8791ZM178.617 27.3685V21.4881H185.467C187.566 21.4881 188.772 22.519 188.772 24.4166C188.772 26.3143 187.542 27.3685 185.467 27.3685H178.617ZM229.992 35.8963H222.804V30.5547L230.113 30.5313C232.332 30.5313 233.465 31.3513 233.465 33.1552C233.465 35.0763 232.332 35.8963 229.992 35.8963ZM229.92 21.4413C231.849 21.4413 232.863 22.2613 232.863 23.8778C232.863 25.6349 231.777 26.5485 229.92 26.5485H222.804V21.4413H229.92ZM235.154 28.3524C236.529 27.2749 237.445 25.6114 237.445 23.5264C237.445 19.8482 235.009 17.4585 230.45 17.4585H218.39V39.8556H230.475C235.057 39.8556 237.975 37.3488 237.975 33.366C238 31.0936 236.891 29.4068 235.154 28.3524ZM210.214 39.8791H214.677V17.4585H210.214V39.8791ZM104.353 39.8791H108.791V31.1169H113.495L118.97 39.8556H124.348L118.56 30.8359C121.502 29.9221 123.528 27.5559 123.528 24.2995C123.528 20.223 120.899 17.4585 116.003 17.4585H104.353V39.8791ZM108.791 27.2749V21.4178H115.472C117.788 21.4178 118.994 22.4955 118.994 24.3698C118.994 26.2205 117.74 27.2749 115.472 27.2749H108.791Z" fill="white"/>
<path d="M207.32 31.3749H195.333V26.5723H207.32V31.3749Z" fill="#B9B9B9"/>
<path d="M61.3478 14.6387V10L58.164 13.5376C56.9097 13.233 55.6074 13.0456 54.2325 13.0456C45.26 13.0456 38 20.074 38 28.7658C38 34.9741 41.7385 40.3157 47.1413 42.8693V48L50.6628 44.0641C51.8205 44.3219 53.0024 44.4623 54.2325 44.4623C63.205 44.4623 70.465 37.4341 70.465 28.7658C70.465 22.5573 66.7506 17.1924 61.3478 14.6387ZM42.0521 28.7658C42.0521 22.2762 47.5273 16.9815 54.2325 16.9815C54.4978 16.9815 54.7632 17.0049 55.0285 17.0284L48.1785 24.6423C47.5031 25.3922 47.1413 26.3293 47.1413 27.3132V38.2774C44.0782 36.169 42.0521 32.6781 42.0521 28.7658ZM54.2325 40.5265C54.1119 40.5265 53.9672 40.5031 53.8465 40.5031L60.3107 33.3107C60.986 32.561 61.3478 31.6239 61.3478 30.64V25.7904H56.7651V30.5228L51.6999 36.169V27.4538L59.9006 18.3403C63.7597 20.3083 66.4129 24.2442 66.4129 28.7658C66.4129 35.2552 60.9619 40.5265 54.2325 40.5265Z" fill="#B9B9B9"/>
</g>
</g>
<defs>
<clipPath id="clip0_928_3913">
<rect width="200" height="38" fill="white" transform="translate(38 10)"/>
</clipPath>
</defs>
</svg>
