<svg width="276" height="59" viewBox="0 0 276 59" fill="none" xmlns="http://www.w3.org/2000/svg">
<path fill-rule="evenodd" clip-rule="evenodd" d="M229.789 47.7291H238.375V16.6228H229.789V47.7291Z" fill="white"/>
<path fill-rule="evenodd" clip-rule="evenodd" d="M251 16.623V47.7294H242.415V16.623H251Z" fill="white"/>
<path fill-rule="evenodd" clip-rule="evenodd" d="M43.3065 28.7048H36.3627V16.623H25V47.7294H36.3627V32.3053H43.3065V47.7294H54.6704V16.623H43.3065V28.7048Z" fill="white"/>
<path fill-rule="evenodd" clip-rule="evenodd" d="M96.6503 28.1904L95.9553 26.1344H86.6122V47.7291H95.9553V34.7465C95.9553 31.9182 97.7237 30.3763 99.2385 30.3763C100.501 30.3763 102.142 30.6332 102.142 33.4615V47.7291H111.485V33.7187C111.485 25.8776 102.838 22.7934 96.6503 28.1904Z" fill="white"/>
<path fill-rule="evenodd" clip-rule="evenodd" d="M192.607 38.6664L188.251 26.1343H181.875L177.519 39.1805L172.973 26.1343H164.072H164.009H160.474L155.992 37.1232L149.679 26.1343H139.01L151.572 47.9858L149.932 52.0978C149.363 53.3842 148.002 53.4478 147.736 52.2264C147.736 50.018 145.977 48.2285 143.808 48.2285C141.638 48.2285 139.879 50.018 139.879 52.2264C139.895 54.5406 142.167 57.5611 146.648 57.3679C151.131 57.1756 153.025 53.3842 153.656 51.7773L164.038 26.2185L171.522 47.729H178.34L182.506 35.3241L186.799 47.729H193.238L200.498 26.1343H196.773L192.607 38.6664Z" fill="white"/>
<path fill-rule="evenodd" clip-rule="evenodd" d="M70.7676 25.0366C63.6187 25.0366 57.8242 30.4482 57.8242 37.1233C57.8242 43.8007 63.6187 49.2123 70.7676 49.2123C77.9179 49.2123 83.7137 43.8007 83.7137 37.1233C83.7137 30.4482 77.9179 25.0366 70.7676 25.0366ZM73.9883 42.7785C73.9883 44.5896 72.5466 46.0572 70.7676 46.0572C68.9911 46.0572 67.5494 44.5896 67.5494 42.7785V31.4691C67.5494 29.6594 68.9911 28.193 70.7676 28.193C72.5466 28.193 73.9883 29.6594 73.9883 31.4691V42.7785Z" fill="white"/>
<path fill-rule="evenodd" clip-rule="evenodd" d="M140.047 38.859C140.115 38.3532 140.15 37.6472 140.15 37.1236C140.15 30.4485 134.355 25.0369 127.206 25.0369C120.056 25.0369 114.26 30.4485 114.26 37.1236C114.26 43.801 120.056 49.2126 127.206 49.2126C132.118 49.2126 136.391 46.6567 138.585 42.8918L135.726 41.8146C133.997 44.5033 130.829 46.3037 127.206 46.3037C125.427 46.3037 123.985 44.5898 123.985 42.7788V38.86L140.047 38.859ZM123.985 31.4693C123.985 29.6596 125.427 28.1933 127.206 28.1933C128.984 28.1933 130.425 29.6596 130.425 31.4693V35.7749H123.985V31.4693Z" fill="white"/>
<path fill-rule="evenodd" clip-rule="evenodd" d="M226.533 38.8588C226.602 38.353 226.638 37.647 226.638 37.1233C226.638 30.4482 220.842 25.0366 213.692 25.0366C206.543 25.0366 200.747 30.4482 200.747 37.1233C200.747 43.8007 206.543 49.2123 213.692 49.2123C218.605 49.2123 222.878 46.6565 225.072 42.8915L222.213 41.8143C220.484 44.5031 217.316 46.3035 213.692 46.3035C211.914 46.3035 210.472 44.5896 210.472 42.7785V38.8598L226.533 38.8588ZM210.472 31.4691C210.472 29.6594 211.914 28.193 213.692 28.193C215.471 28.193 216.912 29.6594 216.912 31.4691V35.7746H210.472V31.4691Z" fill="white"/>
<path d="M264.5 3C264.102 3 263.721 3.15804 263.439 3.43934C263.158 3.72064 263 4.10218 263 4.5V11.5C263 11.8978 263.158 12.2794 263.439 12.5607C263.721 12.842 264.102 13 264.5 13H271.5C271.898 13 272.279 12.842 272.561 12.5607C272.842 12.2794 273 11.8978 273 11.5V9.27C273 9.13739 273.053 9.01021 273.146 8.91645C273.24 8.82268 273.367 8.77 273.5 8.77C273.633 8.77 273.76 8.82268 273.854 8.91645C273.947 9.01021 274 9.13739 274 9.27V11.5C274 12.163 273.737 12.7989 273.268 13.2678C272.799 13.7366 272.163 14 271.5 14H264.5C263.837 14 263.201 13.7366 262.732 13.2678C262.263 12.7989 262 12.163 262 11.5V4.5C262 3.83696 262.263 3.20107 262.732 2.73223C263.201 2.26339 263.837 2 264.5 2H266.73C266.863 2 266.99 2.05268 267.084 2.14645C267.177 2.24021 267.23 2.36739 267.23 2.5C267.23 2.63261 267.177 2.75979 267.084 2.85355C266.99 2.94732 266.863 3 266.73 3H264.5ZM268.77 2.5C268.77 2.36739 268.823 2.24021 268.916 2.14645C269.01 2.05268 269.137 2 269.27 2H273.5C273.633 2 273.76 2.05268 273.854 2.14645C273.947 2.24021 274 2.36739 274 2.5V6.73C274 6.86261 273.947 6.98979 273.854 7.08355C273.76 7.17732 273.633 7.23 273.5 7.23C273.367 7.23 273.24 7.17732 273.146 7.08355C273.053 6.98979 273 6.86261 273 6.73V3.708L269.623 7.084C269.577 7.13176 269.522 7.16985 269.461 7.19605C269.4 7.22226 269.334 7.23605 269.268 7.23663C269.201 7.2372 269.135 7.22455 269.074 7.19941C269.013 7.17427 268.957 7.13714 268.91 7.0902C268.863 7.04325 268.826 6.98743 268.801 6.92598C268.775 6.86453 268.763 6.79869 268.763 6.7323C268.764 6.66591 268.778 6.6003 268.804 6.5393C268.83 6.4783 268.868 6.42312 268.916 6.377L272.293 3H269.269C269.136 3 269.009 2.94732 268.915 2.85355C268.822 2.75979 268.769 2.63261 268.769 2.5" fill="white"/>
</svg>
