<svg width="276" height="59" viewBox="0 0 276 59" fill="none" xmlns="http://www.w3.org/2000/svg">
<path fill-rule="evenodd" clip-rule="evenodd" d="M229.789 47.7294H238.375V16.623H229.789V47.7294Z" fill="white"/>
<path fill-rule="evenodd" clip-rule="evenodd" d="M251 16.623V47.7294H242.415V16.623H251Z" fill="white"/>
<path fill-rule="evenodd" clip-rule="evenodd" d="M43.3065 28.7048H36.3627V16.623H25V47.7294H36.3627V32.3053H43.3065V47.7294H54.6704V16.623H43.3065V28.7048Z" fill="white"/>
<path fill-rule="evenodd" clip-rule="evenodd" d="M96.6504 28.1904L95.9555 26.1344H86.6123V47.7291H95.9555V34.7465C95.9555 31.9182 97.7239 30.3763 99.2386 30.3763C100.501 30.3763 102.142 30.6332 102.142 33.4615V47.7291H111.485V33.7187C111.485 25.8776 102.838 22.7934 96.6504 28.1904Z" fill="white"/>
<path fill-rule="evenodd" clip-rule="evenodd" d="M192.607 38.6664L188.251 26.1343H181.875L177.519 39.1805L172.973 26.1343H164.072H164.009H160.474L155.992 37.1232L149.679 26.1343H139.01L151.572 47.9858L149.932 52.0978C149.363 53.3842 148.002 53.4478 147.736 52.2264C147.736 50.018 145.977 48.2285 143.808 48.2285C141.638 48.2285 139.879 50.018 139.879 52.2264C139.895 54.5406 142.167 57.5611 146.648 57.3679C151.131 57.1756 153.025 53.3842 153.656 51.7773L164.038 26.2185L171.522 47.729H178.34L182.506 35.3241L186.799 47.729H193.238L200.498 26.1343H196.773L192.607 38.6664Z" fill="white"/>
<path fill-rule="evenodd" clip-rule="evenodd" d="M70.7676 25.0366C63.6187 25.0366 57.8242 30.4482 57.8242 37.1233C57.8242 43.8007 63.6187 49.2123 70.7676 49.2123C77.9179 49.2123 83.7137 43.8007 83.7137 37.1233C83.7137 30.4482 77.9179 25.0366 70.7676 25.0366ZM73.9883 42.7785C73.9883 44.5896 72.5466 46.0572 70.7676 46.0572C68.9911 46.0572 67.5494 44.5896 67.5494 42.7785V31.4691C67.5494 29.6594 68.9911 28.193 70.7676 28.193C72.5466 28.193 73.9883 29.6594 73.9883 31.4691V42.7785Z" fill="white"/>
<path fill-rule="evenodd" clip-rule="evenodd" d="M140.047 38.8588C140.115 38.353 140.15 37.647 140.15 37.1233C140.15 30.4482 134.355 25.0366 127.206 25.0366C120.056 25.0366 114.26 30.4482 114.26 37.1233C114.26 43.8007 120.056 49.2123 127.206 49.2123C132.118 49.2123 136.391 46.6565 138.585 42.8915L135.725 41.8143C133.997 44.5031 130.829 46.3035 127.206 46.3035C125.427 46.3035 123.985 44.5896 123.985 42.7785V38.8598L140.047 38.8588ZM123.985 31.4691C123.985 29.6594 125.427 28.193 127.206 28.193C128.983 28.193 130.425 29.6594 130.425 31.4691V35.7746H123.985V31.4691Z" fill="white"/>
<path fill-rule="evenodd" clip-rule="evenodd" d="M226.533 38.8588C226.602 38.353 226.638 37.647 226.638 37.1233C226.638 30.4482 220.842 25.0366 213.692 25.0366C206.543 25.0366 200.747 30.4482 200.747 37.1233C200.747 43.8007 206.543 49.2123 213.692 49.2123C218.605 49.2123 222.878 46.6565 225.072 42.8915L222.213 41.8143C220.484 44.5031 217.316 46.3035 213.692 46.3035C211.914 46.3035 210.472 44.5896 210.472 42.7785V38.8598L226.533 38.8588ZM210.472 31.4691C210.472 29.6594 211.914 28.193 213.692 28.193C215.471 28.193 216.912 29.6594 216.912 31.4691V35.7746H210.472V31.4691Z" fill="white"/>
</svg>
