<svg width="276" height="59" viewBox="0 0 276 59" fill="none" xmlns="http://www.w3.org/2000/svg">
<g clip-path="url(#clip0_2001_3590)">
<path d="M87.6518 33.2901H83.0815V13.106H87.6518V33.2901ZM113.831 33.2901H109.373V25.0704C109.373 22.9783 108.6 21.9322 107.053 21.9322C106.317 21.9322 105.718 22.2467 105.256 22.8757C104.794 23.5047 104.563 24.2881 104.563 25.2261V33.2913H100.092V24.9874C100.092 22.9514 99.3325 21.9334 97.8138 21.9334C97.0497 21.9334 96.4367 22.2339 95.9746 22.8348C95.522 23.4358 95.2956 24.252 95.2956 25.2836V33.2925H90.8242V18.8794H95.2956V21.1315H95.3522C95.8142 20.3621 96.4602 19.7382 97.2901 19.2598C98.1295 18.7722 99.0445 18.5283 100.035 18.5283C102.082 18.5283 103.482 19.4246 104.237 21.2171C105.341 19.4246 106.963 18.5283 109.104 18.5283C112.254 18.5283 113.829 20.4613 113.829 24.3273L113.831 33.2901ZM139.388 33.2901H134.931V25.0704C134.931 22.9783 134.157 21.9322 132.611 21.9322C131.875 21.9322 131.276 22.2467 130.814 22.8757C130.352 23.5047 130.121 24.2881 130.121 25.2261V33.2913H125.649V24.9874C125.649 22.9514 124.89 21.9334 123.371 21.9334C122.607 21.9334 121.994 22.2339 121.532 22.8348C121.079 23.4358 120.853 24.252 120.853 25.2836V33.2925H116.382V18.8794H120.853V21.1315H120.91C121.372 20.3621 122.018 19.7382 122.848 19.2598C123.687 18.7722 124.602 18.5283 125.593 18.5283C127.639 18.5283 129.04 19.4246 129.795 21.2171C130.898 19.4246 132.521 18.5283 134.661 18.5283C137.812 18.5283 139.387 20.4613 139.387 24.3273L139.388 33.2901ZM155.7 33.2901H151.243V31.0941H151.173C150.069 32.7922 148.592 33.6413 146.744 33.6413C143.385 33.6413 141.706 31.6189 141.706 27.5742V18.8756H146.163V27.1795C146.163 29.2155 146.974 30.2334 148.597 30.2334C149.398 30.2334 150.04 29.9568 150.521 29.4035C151.001 28.8408 151.242 28.0808 151.242 27.1233V18.8756H155.699L155.7 33.2901ZM172.487 33.2901H168.03V25.2811C168.03 23.0477 167.228 21.931 165.625 21.931C164.851 21.931 164.215 22.2268 163.715 22.8184C163.216 23.41 162.966 24.1607 162.966 25.0706V33.2902H158.494V18.8768H162.966V21.157H163.022C164.088 19.4027 165.64 18.5256 167.677 18.5256C170.884 18.5256 172.488 20.5054 172.488 24.4651L172.487 33.2901ZM177.326 16.603C176.571 16.603 175.953 16.3825 175.472 15.9417C174.991 15.4914 174.751 14.9424 174.751 14.2947C174.751 13.6283 174.991 13.084 175.472 12.6618C175.953 12.2396 176.571 12.0286 177.326 12.0286C178.09 12.0286 178.707 12.2396 179.179 12.6618C179.66 13.084 179.9 13.6283 179.9 14.2947C179.9 14.9705 179.66 15.5242 179.179 15.9558C178.707 16.3874 178.09 16.603 177.326 16.603ZM179.533 33.2964H175.061V18.8833H179.533V33.2964Z" fill="white"/>
<path d="M211.567 13.263L206.205 33.447H201.139L197.772 20.4983C197.593 19.8225 197.484 19.0671 197.446 18.2321H197.389C197.304 19.1514 197.182 19.9068 197.021 20.4983L193.569 33.447H188.291L182.958 13.263H187.952L190.811 26.7044C190.933 27.2764 191.022 28.0459 191.079 29.0128H191.164C191.201 28.2902 191.338 27.502 191.574 26.6483L195.252 13.263H200.147L203.473 26.8169C203.595 27.314 203.704 28.0366 203.799 28.9848H203.855C203.893 28.2434 203.992 27.4927 204.153 26.7326L206.954 13.263H211.567ZM224.966 27.5063H215.515C215.665 29.5985 216.991 30.6445 219.491 30.6445C221.085 30.6445 222.485 30.2691 223.692 29.5184V32.7268C222.353 33.4401 220.613 33.7967 218.472 33.7967C216.132 33.7967 214.317 33.1541 213.025 31.8688C211.733 30.5742 211.087 28.7727 211.087 26.4643C211.087 24.0717 211.785 22.1762 213.181 20.7778C214.578 19.3793 216.294 18.6801 218.332 18.6801C220.444 18.6801 222.076 19.304 223.227 20.5518C224.387 21.7996 224.967 23.4934 224.967 25.6333L224.966 27.5063ZM220.82 24.7754C220.82 22.7114 219.981 21.6793 218.302 21.6793C217.585 21.6793 216.963 21.9751 216.435 22.5667C215.916 23.1583 215.6 23.895 215.486 24.7768L220.82 24.7754ZM231.164 31.7707H231.108V33.4458H226.636V12.1074H231.108V21.2004H231.164C232.268 19.5211 233.838 18.6815 235.876 18.6815C237.743 18.6815 239.182 19.3194 240.19 20.5954C241.2 21.8713 241.705 23.6166 241.705 25.8314C241.705 28.2333 241.115 30.1616 239.936 31.6163C238.757 33.0709 237.182 33.7982 235.211 33.7982C233.428 33.7982 232.079 33.1224 231.164 31.7708L231.164 31.7707ZM231.037 25.6895V27.1679C231.037 28.0966 231.306 28.866 231.843 29.4763C232.381 30.0866 233.069 30.3917 233.908 30.3917C234.927 30.3917 235.715 30.0023 236.271 29.2235C236.837 28.4354 237.119 27.3233 237.119 25.8874C237.119 24.6958 236.86 23.7668 236.342 23.1003C235.832 22.4245 235.101 22.0866 234.148 22.0866C233.252 22.0866 232.507 22.4198 231.913 23.0863C231.327 23.7528 231.035 24.6209 231.035 25.6909L231.037 25.6895ZM245.942 20.6136C244.76 20.6136 243.787 20.2333 243.022 19.4725C242.262 18.7118 241.882 17.7591 241.882 16.6144C241.882 15.4918 242.273 14.5523 243.055 13.7961C243.842 13.04 244.82 12.662 245.988 12.662C247.152 12.662 248.119 13.0309 248.887 13.7687C249.655 14.5028 250.026 15.4509 249.999 16.6131C249.999 17.7358 249.611 18.6839 248.833 19.4575C248.06 20.2264 247.096 20.6109 245.941 20.6109L245.942 20.6136ZM245.949 13.3934C244.998 13.3934 244.212 13.7027 243.59 14.3213C242.973 14.9354 242.664 15.7066 242.664 16.6349C242.664 17.5716 242.977 18.3475 243.604 18.9625C244.235 19.5766 245.017 19.8836 245.95 19.8836C246.87 19.8836 247.645 19.5743 248.276 18.9557C248.907 18.337 249.223 17.5658 249.223 16.642C249.223 15.7053 248.912 14.9295 248.29 14.3145C247.668 13.7004 246.888 13.3934 245.95 13.3934H245.949ZM248.048 18.9968H246.662L246.256 17.7636C246.114 17.3348 245.919 17.1203 245.67 17.1203H245.349V18.9968H244.183V14.1041H245.89C247.205 14.1041 247.863 14.5683 247.863 15.4967C247.863 16.164 247.479 16.5952 246.711 16.7903V16.8096C247.03 16.8802 247.282 17.1386 247.464 17.585L248.048 18.9968ZM245.349 15.0581V16.239H245.869C246.362 16.239 246.608 16.0355 246.608 15.6286C246.608 15.2483 246.324 15.0581 245.756 15.0581H245.349Z" fill="#B9B9B9"/>
<path d="M49.8056 6.00024L42.8657 8.93252L50.7985 11.3401L57.7281 8.40765L49.8056 6.00024Z" fill="white"/>
<path d="M42.8657 8.93237V18.2954L50.7985 20.7029V11.3401L42.8657 8.93237Z" fill="white"/>
<path d="M50.7983 11.3401L57.7279 8.40771V17.7707L50.7983 20.7031V11.3401Z" fill="white"/>
<path d="M58.7311 8.71655L51.791 11.6488L59.724 14.0565L66.6536 11.1241L58.7311 8.71655Z" fill="white"/>
<path d="M51.791 11.6487V21.0117L59.7238 23.4192V14.0564L51.791 11.6487Z" fill="white"/>
<path d="M59.7241 14.0564L66.6537 11.124V20.487L59.7241 23.4194V14.0564Z" fill="white"/>
<path d="M41.8725 9.34415L34.9326 12.2764L42.8654 14.684L49.795 11.7516L41.8725 9.34399" fill="white"/>
<path d="M34.9326 12.2764V21.6394L42.8654 24.0469V14.6841L34.9326 12.2764Z" fill="white"/>
<path d="M42.8657 14.6841L49.7953 11.7517V21.1147L42.8657 24.0471V14.6841Z" fill="white"/>
<path d="M50.7983 12.0603L43.8584 14.9927L51.7912 17.4003L58.7208 14.4679L50.7983 12.0603Z" fill="white"/>
<path d="M43.8584 14.9927V24.3557L51.7912 26.7632V17.4004L43.8584 14.9927Z" fill="white"/>
<path d="M51.791 17.4004L58.7206 14.468V23.831L51.791 26.7634V17.4004Z" fill="white"/>
<path d="M33.9399 32.8647L27 35.7868L34.9328 38.2047L41.8624 35.2723L33.9399 32.8647Z" fill="white"/>
<path d="M27 35.7869V45.1498L34.9328 47.5678V38.2048L27 35.7869Z" fill="#B9B9B9"/>
<path d="M34.9326 38.2046L41.8622 35.2722V44.6352L34.9326 47.5676V38.2046Z" fill="white"/>
<path d="M67.6572 31.5991L60.7173 34.5315L68.6398 36.9391L75.5797 34.0067L67.6572 31.5991Z" fill="white"/>
<path d="M60.7065 34.5315V43.8945L68.6394 46.302V36.9391L60.7065 34.5315Z" fill="white"/>
<path d="M68.6396 36.939L75.5795 34.0066V43.3696L68.6396 46.302V36.939Z" fill="white"/>
<path d="M59.7241 34.9431L52.7842 37.8755L60.7067 40.2831L67.6466 37.3507L59.7241 34.9431Z" fill="white"/>
<path d="M52.7739 37.8755V47.2385L60.7067 49.646V40.283L52.7739 37.8755Z" fill="white"/>
<path d="M60.7065 40.283L67.6464 37.3506V46.7136L60.7065 49.646V40.283Z" fill="white"/>
<path d="M67.6572 21.5056L60.7173 24.438L68.6398 26.8456L75.5797 23.9132L67.6572 21.5056Z" fill="white"/>
<path d="M60.7065 24.438V33.801L68.6394 36.2085V26.8455L60.7065 24.438Z" fill="white"/>
<path d="M68.6396 26.8458L75.5795 23.9133V33.2763L68.6396 36.2087V26.8458Z" fill="white"/>
<path d="M59.7241 24.8599L52.7842 27.7923L60.7067 30.1998L67.6466 27.2674L59.7241 24.8599Z" fill="white"/>
<path d="M52.7739 27.7922V37.1552L60.7067 39.5628V30.1998L52.7739 27.7922Z" fill="white"/>
<path d="M60.7065 30.1998L67.6464 27.2673V36.6303L60.7065 39.5627V30.1998Z" fill="white"/>
<path d="M42.8657 35.5811L35.9258 38.5031L43.8586 40.921L50.7882 37.9886L42.8657 35.5811Z" fill="white"/>
<path d="M35.9258 38.5029V47.8659L43.8586 50.2839V40.9209L35.9258 38.5029Z" fill="#B9B9B9"/>
<path d="M43.8584 40.9209L50.788 37.9885V47.3515L43.8584 50.2839V40.9209Z" fill="white"/>
<path d="M51.7915 38.2871L44.8516 41.2195L52.7741 43.6375L59.714 40.7051L51.7915 38.2871Z" fill="white"/>
<path d="M44.8408 41.2192V50.5822L52.7736 53.0002V43.6372L44.8408 41.2192Z" fill="#B9B9B9"/>
<path d="M52.7739 43.6373L59.7138 40.7048V50.0678L52.7739 53.0002V43.6373Z" fill="white"/>
<path d="M33.9399 22.7815L27 25.7035L34.9328 28.1215L41.8624 25.1891L33.9399 22.7815Z" fill="white"/>
<path d="M27 25.7036V35.0666L34.9328 37.4846V28.1216L27 25.7036Z" fill="#B9B9B9"/>
<path d="M34.9326 28.1216L41.8622 25.1892V34.5522L34.9326 37.4846V28.1216Z" fill="white"/>
<path d="M33.9399 12.6982L27 15.6203L34.9328 18.0382L41.8624 15.1058L33.9399 12.6982Z" fill="white"/>
<path d="M27 15.6204V24.9833L34.9328 27.4013V18.0383L27 15.6204Z" fill="#B9B9B9"/>
<path d="M34.9326 18.0384L41.8622 15.106V24.4689L34.9326 27.4014V18.0384Z" fill="white"/>
<path d="M42.8657 25.4978L35.9258 28.4198L43.8586 30.8378L50.7882 27.9054L42.8657 25.4978Z" fill="white"/>
<path d="M35.9258 28.4199V37.7829L43.8586 40.2009V30.8379L35.9258 28.4199Z" fill="#B9B9B9"/>
<path d="M43.8584 30.8377L50.788 27.9053V37.2683L43.8584 40.2007V30.8377Z" fill="white"/>
<path d="M51.7915 28.2039L44.8516 31.1363L52.7741 33.5542L59.714 30.6218L51.7915 28.2039Z" fill="white"/>
<path d="M44.8408 31.136V40.499L52.7736 42.9169V33.5539L44.8408 31.136Z" fill="#B9B9B9"/>
<path d="M52.7739 33.554L59.7138 30.6216V39.9846L52.7739 42.917V33.554Z" fill="white"/>
<path d="M42.8658 15.4146L35.9258 18.3366L43.8586 20.7545L50.7882 17.8221L42.8658 15.4146Z" fill="white"/>
<path d="M35.9258 18.3367V27.6997L43.8586 30.1176V20.7546L35.9258 18.3367Z" fill="white"/>
<path d="M43.8584 20.7547L50.788 17.8223V27.1852L43.8584 30.1177V20.7547Z" fill="white"/>
<path d="M67.6572 11.4226L60.7173 14.355L68.6398 16.7626L75.5797 13.8302L67.6572 11.4226Z" fill="white"/>
<path d="M60.7065 14.3547V23.7177L68.6394 26.1253V16.7624L60.7065 14.3547Z" fill="white"/>
<path d="M68.6396 16.7625L75.5795 13.8301V23.1931L68.6396 26.1255V16.7625Z" fill="white"/>
<path d="M59.7241 14.7766L52.7842 17.709L60.7067 20.1166L67.6466 17.1842L59.7241 14.7766Z" fill="white"/>
<path d="M52.7739 17.709V27.072L60.7067 29.4795V20.1167L52.7739 17.709Z" fill="white"/>
<path d="M60.7065 20.1168L67.6464 17.1843V26.5473L60.7065 29.4797V20.1168Z" fill="#B9B9B9"/>
<path d="M51.7915 18.1206L44.8516 21.053L52.7741 23.471L59.714 20.5386L51.7915 18.1206Z" fill="white"/>
<path d="M44.8408 21.053V30.416L52.7736 32.8339V23.4709L44.8408 21.053Z" fill="#B9B9B9"/>
<path d="M52.7739 23.4708L59.7138 20.5383V29.9013L52.7739 32.8337V23.4708Z" fill="white"/>
<path d="M90.1338 44.786H88.1153L87.5304 42.9663H84.6061L84.0269 44.786H82.02L85.0132 36.606H87.2094L90.1338 44.786ZM87.1062 41.5516L86.2231 38.8022C86.1582 38.5968 86.1123 38.3515 86.0855 38.0663H86.0396C86.0205 38.3059 85.9727 38.5435 85.8963 38.7793L85.0017 41.5516H87.1062Z" fill="white"/>
<path d="M93.5435 44.7861H91.6914V36.6061H93.5435V44.7861ZM103.368 37.5188C103.135 37.4275 102.911 37.3819 102.697 37.3819C102.116 37.3819 101.825 37.6956 101.825 38.3231V38.9449H103.167V40.2739H101.825V44.7861H100.019V40.2739H99.0328V38.9449H100.019V38.2205C100.019 37.5549 100.237 37.0187 100.673 36.6118C101.109 36.2049 101.701 36.0015 102.45 36.0015C102.817 36.0015 103.123 36.0395 103.368 36.1156L103.368 37.5188ZM107.368 44.9287C106.39 44.9287 105.619 44.6567 105.058 44.1129C104.499 43.5653 104.22 42.8237 104.22 41.8882C104.22 40.9223 104.511 40.1674 105.092 39.6235C105.673 39.0759 106.459 38.8021 107.449 38.8021C108.424 38.8021 109.188 39.0759 109.742 39.6235C110.297 40.1674 110.574 40.888 110.574 41.7855C110.574 42.7553 110.287 43.5215 109.714 44.0844C109.144 44.6472 108.362 44.9287 107.368 44.9287ZM107.414 40.1826C106.986 40.1826 106.654 40.329 106.417 40.6218C106.18 40.9147 106.061 41.3292 106.061 41.8654C106.061 42.9873 106.516 43.5482 107.426 43.5482C108.294 43.5482 108.727 42.9721 108.727 41.8197C108.727 40.7283 108.29 40.1826 107.414 40.1826Z" fill="white"/>
<path d="M116.111 40.5706C115.893 40.4527 115.639 40.3938 115.348 40.3938C114.955 40.3938 114.647 40.5383 114.425 40.8273C114.204 41.1125 114.093 41.5023 114.093 41.9967V44.7861H112.281V38.9449H114.093V40.0287H114.116C114.402 39.2378 114.918 38.8423 115.664 38.8423C115.855 38.8423 116.004 38.8651 116.111 38.9107V40.5706Z" fill="white"/>
<path d="M128.665 44.786H126.647L126.062 42.9663H123.137L122.558 44.786H120.551L123.544 36.606H125.741L128.665 44.786ZM125.637 41.5516L124.754 38.8022C124.689 38.5968 124.644 38.3515 124.617 38.0663H124.571C124.552 38.3059 124.504 38.5435 124.428 38.7793L123.533 41.5516H125.637Z" fill="white"/>
<path d="M131.88 44.1073H131.857V47.4729H130.045V38.9448H131.857V39.8233H131.88C132.327 39.1426 132.956 38.8022 133.766 38.8022C134.527 38.8022 135.114 39.0628 135.527 39.5838C135.943 40.101 136.152 40.8065 136.152 41.7001C136.152 42.6737 135.909 43.4552 135.423 44.0447C134.942 44.6342 134.3 44.9289 133.497 44.9289C132.79 44.9289 132.251 44.6551 131.88 44.1076V44.1073ZM131.828 41.7115V42.1792C131.828 42.5823 131.935 42.9112 132.149 43.1661C132.363 43.4209 132.644 43.5483 132.992 43.5483C133.405 43.5483 133.724 43.3905 133.95 43.0749C134.179 42.7554 134.294 42.3048 134.294 41.7229C134.294 40.6961 133.892 40.1827 133.09 40.1827C132.719 40.1827 132.415 40.3234 132.178 40.6047C131.945 40.8824 131.828 41.2513 131.828 41.7115H131.828Z" fill="white"/>
<path d="M139.694 44.1073H139.671V47.4729H137.859V38.9448H139.671V39.8233H139.694C140.141 39.1426 140.77 38.8022 141.58 38.8022C142.341 38.8022 142.928 39.0628 143.341 39.5838C143.757 40.101 143.966 40.8065 143.966 41.7001C143.966 42.6737 143.723 43.4552 143.237 44.0447C142.756 44.6342 142.113 44.9289 141.311 44.9289C140.604 44.9289 140.065 44.6551 139.694 44.1076V44.1073ZM139.642 41.7115V42.1792C139.642 42.5823 139.749 42.9112 139.963 43.1661C140.177 43.4209 140.458 43.5483 140.806 43.5483C141.219 43.5483 141.538 43.3905 141.764 43.0749C141.993 42.7554 142.108 42.3048 142.108 41.7229C142.108 40.6961 141.706 40.1827 140.904 40.1827C140.533 40.1827 140.229 40.3234 139.992 40.6047C139.759 40.8824 139.642 41.2513 139.642 41.7115H139.642Z" fill="white"/>
<path d="M147.484 44.7862H145.672V36.1384H147.484V44.7862Z" fill="white"/>
<path d="M150.458 38.0208C150.152 38.0208 149.902 37.9314 149.707 37.7526C149.512 37.5702 149.415 37.3477 149.415 37.0852C149.415 36.8152 149.512 36.5946 149.707 36.4235C149.902 36.2523 150.152 36.1667 150.458 36.1667C150.768 36.1667 151.018 36.2523 151.209 36.4235C151.404 36.5946 151.502 36.8152 151.502 37.0852C151.502 37.359 151.404 37.5834 151.209 37.7582C151.018 37.9332 150.768 38.0207 150.458 38.0207V38.0208ZM151.353 44.7862H149.541V38.945H151.353V44.7862Z" fill="white"/>
<path d="M157.859 44.575C157.45 44.8108 156.859 44.9287 156.087 44.9287C155.185 44.9287 154.455 44.6567 153.897 44.1129C153.339 43.569 153.06 42.8674 153.06 42.008C153.06 41.0155 153.358 40.2339 153.954 39.6635C154.554 39.0893 155.355 38.8022 156.357 38.8022C157.049 38.8022 157.549 38.8934 157.859 39.0759V40.6047C157.481 40.3233 157.058 40.1826 156.592 40.1826C156.072 40.1826 155.659 40.3347 155.353 40.6389C155.051 40.9393 154.9 41.3558 154.9 41.8882C154.9 42.4054 155.046 42.8123 155.336 43.1088C155.627 43.4017 156.026 43.5481 156.534 43.5481C156.986 43.5481 157.427 43.4074 157.859 43.126V44.575ZM164.463 44.7861H162.748V43.9475H162.726C162.332 44.6016 161.749 44.9287 160.977 44.9287C160.407 44.9287 159.958 44.7689 159.629 44.4495C159.304 44.1262 159.142 43.6965 159.142 43.1602C159.142 42.027 159.816 41.3729 161.166 41.198L162.76 40.9869C162.76 40.348 162.412 40.0285 161.716 40.0285C161.017 40.0285 160.352 40.2358 159.721 40.6503V39.2926C159.973 39.1633 160.317 39.0492 160.753 38.9503C161.193 38.8514 161.592 38.802 161.952 38.802C163.626 38.802 164.463 39.6329 164.463 41.2947L164.463 44.7861ZM162.76 42.413V42.0195L161.693 42.1563C161.105 42.2324 160.81 42.4967 160.81 42.9492C160.81 43.1546 160.881 43.3238 161.022 43.4569C161.168 43.5862 161.363 43.6509 161.607 43.6509C161.947 43.6509 162.225 43.5349 162.439 43.303C162.653 43.0672 162.76 42.7706 162.76 42.413Z" fill="white"/>
<path d="M169.977 44.7177C169.71 44.8583 169.307 44.9287 168.768 44.9287C167.491 44.9287 166.852 44.2689 166.852 42.9492V40.274H165.9V38.9449H166.852V37.6843L168.659 37.1709V38.9449H169.977V40.274H168.659V42.6355C168.659 43.244 168.901 43.5483 169.387 43.5483C169.578 43.5483 169.775 43.4931 169.977 43.3829V44.7177Z" fill="white"/>
<path d="M172.447 38.0208C172.141 38.0208 171.891 37.9314 171.696 37.7526C171.501 37.5702 171.403 37.3477 171.403 37.0852C171.403 36.8152 171.501 36.5946 171.696 36.4235C171.891 36.2523 172.141 36.1667 172.447 36.1667C172.756 36.1667 173.007 36.2523 173.198 36.4235C173.393 36.5946 173.49 36.8152 173.49 37.0852C173.49 37.359 173.393 37.5834 173.198 37.7582C173.007 37.9332 172.756 38.0207 172.447 38.0207V38.0208ZM173.341 44.7862H171.53V38.945H173.341V44.7862Z" fill="white"/>
<path d="M178.196 44.9287C177.217 44.9287 176.447 44.6568 175.885 44.1129C175.327 43.5654 175.048 42.8238 175.048 41.8882C175.048 40.9223 175.338 40.1674 175.919 39.6235C176.5 39.076 177.286 38.8022 178.276 38.8022C179.251 38.8022 180.016 39.076 180.57 39.6235C181.124 40.1674 181.401 40.8881 181.401 41.7856C181.401 42.7553 181.114 43.5216 180.541 44.0844C179.971 44.6473 179.19 44.9287 178.196 44.9287H178.196ZM178.242 40.1826C177.814 40.1826 177.481 40.329 177.244 40.6219C177.007 40.9147 176.889 41.3292 176.889 41.8654C176.889 42.9873 177.343 43.5483 178.253 43.5483C179.121 43.5483 179.555 42.9721 179.555 41.8198C179.555 40.7283 179.117 40.1826 178.242 40.1826ZM188.779 44.7861H186.973V41.5403C186.973 40.6352 186.648 40.1826 185.998 40.1826C185.685 40.1826 185.427 40.3024 185.224 40.542C185.021 40.7816 184.92 41.0858 184.92 41.4547V44.786H183.108V38.9448H184.92V39.8689H184.943C185.375 39.1578 186.004 38.8022 186.829 38.8022C188.129 38.8022 188.779 39.6046 188.779 41.2094L188.779 44.7861ZM194.315 44.4724V42.647C194.647 42.9247 195.008 43.1338 195.398 43.2745C195.788 43.4114 196.182 43.4798 196.58 43.4798C196.813 43.4798 197.015 43.4589 197.187 43.4171C197.363 43.3753 197.508 43.3183 197.623 43.246C197.742 43.17 197.829 43.0825 197.887 42.9836C197.944 42.8809 197.973 42.7706 197.973 42.6527C197.973 42.4931 197.927 42.3505 197.835 42.225C197.744 42.0994 197.617 41.9835 197.457 41.8771C197.3 41.7705 197.113 41.6678 196.895 41.5689C196.677 41.4701 196.442 41.3693 196.19 41.2666C195.547 41.0004 195.067 40.6752 194.75 40.2912C194.437 39.9071 194.28 39.4431 194.28 38.8993C194.28 38.4734 194.366 38.1083 194.538 37.804C194.71 37.496 194.943 37.2431 195.238 37.0454C195.536 36.8476 195.88 36.7031 196.27 36.6118C196.66 36.5168 197.073 36.4692 197.508 36.4692C197.936 36.4692 198.315 36.4959 198.644 36.5491C198.976 36.5986 199.282 36.6766 199.561 36.7831V38.4887C199.424 38.3936 199.273 38.3099 199.108 38.2377C198.948 38.1654 198.781 38.1065 198.609 38.0609C198.437 38.0114 198.265 37.9753 198.093 37.9525C197.925 37.9297 197.764 37.9183 197.612 37.9183C197.401 37.9183 197.21 37.9392 197.038 37.981C196.866 38.019 196.721 38.0741 196.602 38.1463C196.484 38.2186 196.392 38.3061 196.327 38.4088C196.262 38.5076 196.23 38.6198 196.23 38.7454C196.23 38.8822 196.266 39.0058 196.339 39.1162C196.411 39.2227 196.515 39.3254 196.648 39.4243C196.782 39.5193 196.945 39.6144 197.136 39.7095C197.327 39.8007 197.543 39.8958 197.784 39.9947C198.112 40.1315 198.407 40.2779 198.667 40.4339C198.931 40.586 199.156 40.7591 199.343 40.953C199.531 41.147 199.674 41.3695 199.773 41.6205C199.873 41.8677 199.923 42.1567 199.923 42.4875C199.923 42.9439 199.835 43.3279 199.659 43.6398C199.487 43.9478 199.252 44.1987 198.953 44.3927C198.655 44.5828 198.307 44.7197 197.91 44.8034C197.516 44.8872 197.099 44.929 196.66 44.929C196.209 44.929 195.778 44.891 195.369 44.8149C194.964 44.7388 194.613 44.6247 194.314 44.4726L194.315 44.4724ZM206.905 42.379H203.074C203.136 43.227 203.673 43.6511 204.686 43.6511C205.332 43.6511 205.899 43.499 206.389 43.1948V44.4953C205.846 44.7844 205.141 44.9289 204.273 44.9289C203.325 44.9289 202.589 44.6683 202.065 44.1473C201.541 43.6225 201.279 42.8924 201.279 41.9568C201.279 40.9871 201.562 40.2189 202.128 39.6522C202.694 39.0855 203.39 38.8022 204.215 38.8022C205.072 38.8022 205.733 39.0551 206.199 39.5608C206.67 40.0666 206.905 40.753 206.905 41.62V42.379ZM205.225 41.2723C205.225 40.4356 204.884 40.0173 204.204 40.0173C203.913 40.0173 203.661 40.1371 203.447 40.3766C203.237 40.6162 203.109 40.9147 203.063 41.2721L205.225 41.2723ZM212.964 44.5751C212.555 44.8108 211.964 44.9287 211.192 44.9287C210.29 44.9287 209.559 44.6568 209.001 44.1129C208.443 43.5691 208.164 42.8674 208.164 42.008C208.164 41.0155 208.462 40.234 209.059 39.6635C209.659 39.0893 210.46 38.8022 211.461 38.8022C212.153 38.8022 212.654 38.8934 212.964 39.0759V40.6047C212.585 40.3233 212.163 40.1826 211.696 40.1826C211.176 40.1826 210.764 40.3347 210.458 40.6389C210.156 40.9394 210.005 41.3558 210.005 41.8882C210.005 42.4054 210.15 42.8123 210.441 43.1089C210.731 43.4017 211.131 43.5481 211.639 43.5481C212.09 43.5481 212.532 43.4074 212.964 43.1261L212.964 44.5751ZM220.261 44.7861H218.455V43.8962H218.426C217.979 44.5845 217.381 44.9287 216.632 44.9287C215.271 44.9287 214.59 44.1092 214.59 42.4702V38.9449H216.397V42.3106C216.397 43.1358 216.725 43.5484 217.383 43.5484C217.708 43.5484 217.968 43.4362 218.163 43.2118C218.358 42.9836 218.455 42.6756 218.455 42.2877V38.9449H220.261L220.261 44.7861Z" fill="white"/>
<path d="M226.148 40.5706C225.93 40.4527 225.676 40.3938 225.386 40.3938C224.992 40.3938 224.684 40.5383 224.462 40.8273C224.241 41.1125 224.13 41.5023 224.13 41.9967V44.7861H222.318V38.9449H224.13V40.0287H224.153C224.439 39.2378 224.955 38.8423 225.701 38.8423C225.892 38.8423 226.041 38.8651 226.148 38.9107V40.5706Z" fill="white"/>
<path d="M228.486 38.0208C228.18 38.0208 227.93 37.9314 227.735 37.7526C227.54 37.5702 227.442 37.3477 227.442 37.0852C227.442 36.8152 227.54 36.5946 227.735 36.4235C227.93 36.2523 228.18 36.1667 228.486 36.1667C228.796 36.1667 229.046 36.2523 229.237 36.4235C229.432 36.5946 229.529 36.8152 229.529 37.0852C229.529 37.359 229.432 37.5834 229.237 37.7582C229.046 37.9332 228.796 38.0207 228.486 38.0207V38.0208ZM229.381 44.7862H227.569V38.945H229.381V44.7862Z" fill="white"/>
<path d="M234.987 44.7177C234.719 44.8583 234.316 44.9287 233.777 44.9287C232.5 44.9287 231.862 44.2689 231.862 42.9492V40.274H230.91V38.9449H231.862V37.6843L233.668 37.1709V38.9449H234.987V40.274H233.668V42.6355C233.668 43.244 233.911 43.5483 234.396 43.5483C234.587 43.5483 234.784 43.4931 234.987 43.3829V44.7177Z" fill="white"/>
<path d="M242.129 38.9448L239.744 45.2539C239.17 46.7712 238.306 47.5299 237.152 47.5299C236.712 47.5299 236.351 47.4804 236.068 47.3815V45.9441C236.309 46.0848 236.571 46.1551 236.854 46.1551C237.32 46.1551 237.645 45.9365 237.829 45.4991L238.138 44.7747L235.753 38.9448H237.76L238.855 42.4986C238.924 42.7192 238.977 42.9797 239.016 43.2802H239.039C239.073 43.0596 239.136 42.8029 239.228 42.51L240.335 38.9448H242.129Z" fill="white"/>
</g>
<path d="M264.5 3C264.102 3 263.721 3.15804 263.439 3.43934C263.158 3.72064 263 4.10218 263 4.5V11.5C263 11.8978 263.158 12.2794 263.439 12.5607C263.721 12.842 264.102 13 264.5 13H271.5C271.898 13 272.279 12.842 272.561 12.5607C272.842 12.2794 273 11.8978 273 11.5V9.27C273 9.13739 273.053 9.01021 273.146 8.91645C273.24 8.82268 273.367 8.77 273.5 8.77C273.633 8.77 273.76 8.82268 273.854 8.91645C273.947 9.01021 274 9.13739 274 9.27V11.5C274 12.163 273.737 12.7989 273.268 13.2678C272.799 13.7366 272.163 14 271.5 14H264.5C263.837 14 263.201 13.7366 262.732 13.2678C262.263 12.7989 262 12.163 262 11.5V4.5C262 3.83696 262.263 3.20107 262.732 2.73223C263.201 2.26339 263.837 2 264.5 2H266.73C266.863 2 266.99 2.05268 267.084 2.14645C267.177 2.24021 267.23 2.36739 267.23 2.5C267.23 2.63261 267.177 2.75979 267.084 2.85355C266.99 2.94732 266.863 3 266.73 3H264.5ZM268.77 2.5C268.77 2.36739 268.823 2.24021 268.916 2.14645C269.01 2.05268 269.137 2 269.27 2H273.5C273.633 2 273.76 2.05268 273.854 2.14645C273.947 2.24021 274 2.36739 274 2.5V6.73C274 6.86261 273.947 6.98979 273.854 7.08355C273.76 7.17732 273.633 7.23 273.5 7.23C273.367 7.23 273.24 7.17732 273.146 7.08355C273.053 6.98979 273 6.86261 273 6.73V3.708L269.623 7.084C269.577 7.13176 269.522 7.16985 269.461 7.19605C269.4 7.22226 269.334 7.23605 269.268 7.23663C269.201 7.2372 269.135 7.22455 269.074 7.19941C269.013 7.17427 268.957 7.13714 268.91 7.0902C268.863 7.04325 268.826 6.98743 268.801 6.92598C268.775 6.86453 268.763 6.79869 268.763 6.7323C268.764 6.66591 268.778 6.6003 268.804 6.5393C268.83 6.4783 268.868 6.42312 268.916 6.377L272.293 3H269.269C269.136 3 269.009 2.94732 268.915 2.85355C268.822 2.75979 268.769 2.63261 268.769 2.5" fill="white"/>
<defs>
<clipPath id="clip0_2001_3590">
<rect width="223" height="47" fill="white" transform="translate(27 6)"/>
</clipPath>
</defs>
</svg>
