<svg width="276" height="59" viewBox="0 0 276 59" fill="none" xmlns="http://www.w3.org/2000/svg">
<g clip-path="url(#clip0_921_4192)">
<path d="M126.648 29.5422C126.648 38.4916 121.086 42.7129 114.241 42.7129H110.048V37.394H113.984C118.177 37.394 120.915 35.1989 120.915 29.6266C120.915 24.1388 118.262 21.3527 113.813 21.3527C109.534 21.3527 106.454 23.97 106.454 29.5422V52H100.72V16.6248H106.454V19.6642H107.309C109.192 17.1313 112.101 15.9493 115.011 15.9493C121.343 15.9493 126.648 20.5084 126.648 29.5422ZM88.7404 27.2627L84.8897 26.9249C81.8947 26.6717 80.2689 25.8274 80.2689 24.1388C80.2689 22.1126 82.3226 20.9306 85.232 20.9306C88.227 20.9306 90.1951 22.3659 90.3663 24.3077H95.9284C95.6717 19.242 91.7354 16.1182 85.3176 16.1182C78.8997 16.1182 74.5356 19.4953 74.5356 24.3921C74.5356 28.5291 77.1883 31.1463 83.1783 31.7373L87.1146 32.075C89.5106 32.3283 91.0508 32.7505 91.0508 35.03C91.0508 37.0563 89.5961 38.4916 85.6599 38.4916C82.0659 38.4916 80.2689 36.8874 79.6699 34.6923H73.6799C74.2789 39.5891 78.4719 43.4728 85.6599 43.4728C92.42 43.4728 96.7841 39.9268 96.7841 34.7767C96.7841 30.0488 93.7035 27.7692 88.7404 27.2627ZM148.982 34.6079C148.041 36.6341 145.902 38.2383 142.821 38.2383C138.628 38.2383 135.462 35.5366 135.462 29.7111C135.462 24.1388 138.372 21.015 142.907 21.015C146.929 21.015 149.239 23.379 149.41 27.0094H139.056V31.1463H155.058V28.4447C155.058 20.9306 150.009 16.0338 142.821 16.0338C136.147 16.0338 129.729 20.5084 129.729 29.7111C129.729 38.9137 136.147 43.3884 142.821 43.3884C148.982 43.3884 153.347 39.6735 154.63 34.6079H148.982ZM58.106 15.9493C51.7737 15.9493 47.0673 19.1576 46.5539 24.1388H52.715C53.1429 22.2814 54.8543 20.9306 58.106 20.9306C62.299 20.9306 63.6681 23.1257 63.6681 25.743V34.6923C61.2721 37.3096 58.5338 38.576 55.7956 38.576C52.9717 38.576 51.0036 37.2251 51.0036 34.7767C51.0036 32.4128 52.5439 30.9775 55.5388 30.9775H60.1597V26.8405H55.3677C48.7787 26.8405 45.0992 30.0488 45.0992 35.03C45.0992 39.6735 48.6932 43.2195 54.512 43.2195C57.7637 43.2195 60.6731 41.9531 62.8124 40.349H63.6681V42.5441H69.4014V25.3208C69.4014 18.8199 64.9517 15.9493 58.106 15.9493ZM19 42.7129H24.7333V7H19V42.7129ZM43.2166 16.6248H36.1998L27.8138 27.5159V30.8931L36.4565 42.7129H43.5589L33.4615 29.2045L43.2166 16.6248ZM251.497 16.6248L246.79 26.9249C245.678 29.4578 244.565 31.8218 244.223 33.5103H243.367C243.025 31.9062 241.913 29.5422 240.715 27.0094L236.094 16.6248H229.762L240.886 40.0957L235.409 51.9156H241.57L258 16.6248H251.497ZM228.392 16.6248H221.376L212.99 27.5159V30.8931L221.632 42.7129H228.735L218.637 29.2045L228.392 16.6248ZM192.367 27.2627L188.516 26.9249C185.521 26.6717 183.895 25.8274 183.895 24.1388C183.895 22.1126 185.949 20.9306 188.859 20.9306C191.854 20.9306 193.822 22.3659 193.993 24.3077H199.555C199.298 19.242 195.362 16.1182 188.944 16.1182C182.526 16.1182 178.162 19.4953 178.162 24.3921C178.162 28.5291 180.815 31.1463 186.805 31.7373L190.741 32.075C193.137 32.3283 194.677 32.7505 194.677 35.03C194.677 37.0563 193.223 38.4916 189.286 38.4916C185.692 38.4916 183.895 36.8874 183.296 34.6923H177.306C177.905 39.5891 182.098 43.4728 189.286 43.4728C196.047 43.4728 200.411 39.9268 200.411 34.7767C200.325 30.0488 197.245 27.7692 192.367 27.2627ZM204.176 42.7129H209.909V7H204.176V42.7129ZM166.182 19.6642H165.327V16.6248H159.593V42.7129H165.327V29.1201C165.327 24.4765 167.466 21.7749 171.83 21.7749H175.509V16.0338H173.37C169.434 15.9493 167.723 17.469 166.182 19.6642Z" fill="white"/>
<path d="M265.593 2.71498C265.233 2.71498 264.888 2.85799 264.634 3.11254C264.379 3.3671 264.236 3.71235 264.236 4.07235V10.4068C264.236 10.7668 264.379 11.112 264.634 11.3666C264.888 11.6211 265.233 11.7642 265.593 11.7642H271.928C272.288 11.7642 272.633 11.6211 272.888 11.3666C273.142 11.112 273.285 10.7668 273.285 10.4068V8.38881C273.285 8.26881 273.333 8.15373 273.418 8.06888C273.503 7.98402 273.618 7.93635 273.738 7.93635C273.858 7.93635 273.973 7.98402 274.058 8.06888C274.142 8.15373 274.19 8.26881 274.19 8.38881V10.4068C274.19 11.0068 273.952 11.5822 273.527 12.0065C273.103 12.4307 272.528 12.6691 271.928 12.6691H265.593C264.993 12.6691 264.418 12.4307 263.994 12.0065C263.569 11.5822 263.331 11.0068 263.331 10.4068V4.07235C263.331 3.47236 263.569 2.89693 263.994 2.47267C264.418 2.04841 264.993 1.81006 265.593 1.81006H267.611C267.731 1.81006 267.846 1.85773 267.931 1.94258C268.016 2.02743 268.064 2.14252 268.064 2.26252C268.064 2.38252 268.016 2.4976 267.931 2.58245C267.846 2.66731 267.731 2.71498 267.611 2.71498H265.593ZM269.457 2.26252C269.457 2.14252 269.505 2.02743 269.59 1.94258C269.675 1.85773 269.79 1.81006 269.91 1.81006H273.738C273.858 1.81006 273.973 1.85773 274.058 1.94258C274.142 2.02743 274.19 2.14252 274.19 2.26252V6.09032C274.19 6.21032 274.142 6.32541 274.058 6.41026C273.973 6.49511 273.858 6.54278 273.738 6.54278C273.618 6.54278 273.503 6.49511 273.418 6.41026C273.333 6.32541 273.285 6.21032 273.285 6.09032V3.35566L270.229 6.41066C270.188 6.45388 270.138 6.48835 270.082 6.51206C270.027 6.53577 269.968 6.54825 269.908 6.54878C269.848 6.5493 269.788 6.53785 269.732 6.5151C269.677 6.49235 269.626 6.45875 269.584 6.41627C269.541 6.37379 269.508 6.32327 269.485 6.26766C269.462 6.21206 269.451 6.15248 269.451 6.0924C269.452 6.03232 269.464 5.97295 269.488 5.91775C269.512 5.86255 269.546 5.81262 269.589 5.77088L272.645 2.71498H269.909C269.789 2.71498 269.674 2.66731 269.589 2.58245C269.504 2.4976 269.456 2.38252 269.456 2.26252" fill="white"/>
</g>
<defs>
<clipPath id="clip0_921_4192">
<rect width="276" height="59" fill="white"/>
</clipPath>
</defs>
</svg>
