<svg width="276" height="59" viewBox="0 0 276 59" fill="none" xmlns="http://www.w3.org/2000/svg">
<g clip-path="url(#clip0_2001_3577)">
<path d="M178.149 38.1196H163.166V50.446H178.149V38.1196Z" fill="white"/>
<path d="M93.9113 45.4976L93.8755 45.5508V50.4459H115.266V9.03271H93.8755L93.9113 13.981C101.232 24.4629 101.214 34.7674 93.9113 45.4976Z" fill="white"/>
<path d="M134.168 26.7687L133.56 26.2544L134.061 25.6336C136.352 22.7604 136.889 18.9827 135.457 15.5242C133.828 11.5868 130.194 9.06831 125.97 8.90869H117.629V50.4461H125.97C131.877 50.1268 136.621 46.5264 138.321 41.0461C139.968 35.8317 138.357 30.3691 134.168 26.7687Z" fill="white"/>
<path d="M138.554 28.2939C142.205 34.0403 142.205 39.7512 138.554 45.7637L138.518 45.8169V50.446L160.696 50.5169V8.96181L138.518 8.89087L138.554 28.2939Z" fill="white"/>
<path d="M175.732 8.90869V21.2351H163.166V8.90869H175.732Z" fill="white"/>
<path d="M178.149 23.3989H163.166V35.6012H178.149V23.3989Z" fill="white"/>
<path d="M177.683 21.0755H180.386L180.44 50.4461H201.526V8.90869H177.737L177.683 21.0755Z" fill="white"/>
<path d="M87.1987 10.6645L73.1114 34.5014L59.042 10.6467C53.0455 14.8856 49.1433 21.7671 49.1433 29.5354C49.1433 42.4294 59.8833 52.8758 73.1114 52.8758C86.3574 52.8758 97.0795 42.4294 97.0795 29.5354C97.0795 19.8516 91.2978 13.5554 87.1987 10.6645Z" fill="white"/>
<path d="M85.2477 9.42299C81.6856 7.38337 77.5507 6.19507 73.1115 6.19507C68.6902 6.19507 64.5553 7.38337 60.9932 9.42299L73.1115 29.9611L85.2477 9.42299Z" fill="#B9B9B9"/>
<path d="M206.502 35.7962V50.446H227.857V8.94409H206.502V23.5939H203.71V35.7962H206.502Z" fill="white"/>
</g>
<path d="M264.5 3C264.102 3 263.721 3.15804 263.439 3.43934C263.158 3.72064 263 4.10218 263 4.5V11.5C263 11.8978 263.158 12.2794 263.439 12.5607C263.721 12.842 264.102 13 264.5 13H271.5C271.898 13 272.279 12.842 272.561 12.5607C272.842 12.2794 273 11.8978 273 11.5V9.27C273 9.13739 273.053 9.01021 273.146 8.91645C273.24 8.82268 273.367 8.77 273.5 8.77C273.633 8.77 273.76 8.82268 273.854 8.91645C273.947 9.01021 274 9.13739 274 9.27V11.5C274 12.163 273.737 12.7989 273.268 13.2678C272.799 13.7366 272.163 14 271.5 14H264.5C263.837 14 263.201 13.7366 262.732 13.2678C262.263 12.7989 262 12.163 262 11.5V4.5C262 3.83696 262.263 3.20107 262.732 2.73223C263.201 2.26339 263.837 2 264.5 2H266.73C266.863 2 266.99 2.05268 267.084 2.14645C267.177 2.24021 267.23 2.36739 267.23 2.5C267.23 2.63261 267.177 2.75979 267.084 2.85355C266.99 2.94732 266.863 3 266.73 3H264.5ZM268.77 2.5C268.77 2.36739 268.823 2.24021 268.916 2.14645C269.01 2.05268 269.137 2 269.27 2H273.5C273.633 2 273.76 2.05268 273.854 2.14645C273.947 2.24021 274 2.36739 274 2.5V6.73C274 6.86261 273.947 6.98979 273.854 7.08355C273.76 7.17732 273.633 7.23 273.5 7.23C273.367 7.23 273.24 7.17732 273.146 7.08355C273.053 6.98979 273 6.86261 273 6.73V3.708L269.623 7.084C269.577 7.13176 269.522 7.16985 269.461 7.19605C269.4 7.22226 269.334 7.23605 269.268 7.23663C269.201 7.2372 269.135 7.22455 269.074 7.19941C269.013 7.17427 268.957 7.13714 268.91 7.0902C268.863 7.04325 268.826 6.98743 268.801 6.92598C268.775 6.86453 268.763 6.79869 268.763 6.7323C268.764 6.66591 268.778 6.6003 268.804 6.5393C268.83 6.4783 268.868 6.42312 268.916 6.377L272.293 3H269.269C269.136 3 269.009 2.94732 268.915 2.85355C268.822 2.75979 268.769 2.63261 268.769 2.5" fill="white"/>
<defs>
<clipPath id="clip0_2001_3577">
<rect width="179" height="47" fill="white" transform="translate(49 6)"/>
</clipPath>
</defs>
</svg>
