<svg width="276" height="59" viewBox="0 0 276 59" fill="none" xmlns="http://www.w3.org/2000/svg">
<g clip-path="url(#clip0_927_3601)">
<path d="M178.149 38.1196H163.166V50.446H178.149V38.1196Z" fill="white"/>
<path d="M93.9113 45.4976L93.8755 45.5508V50.4459H115.266V9.03271H93.8755L93.9113 13.981C101.232 24.4629 101.214 34.7674 93.9113 45.4976Z" fill="white"/>
<path d="M134.168 26.7687L133.56 26.2544L134.061 25.6336C136.352 22.7604 136.889 18.9827 135.457 15.5242C133.828 11.5868 130.194 9.06831 125.97 8.90869H117.629V50.4461H125.97C131.877 50.1268 136.621 46.5264 138.321 41.0461C139.968 35.8317 138.357 30.3691 134.168 26.7687Z" fill="white"/>
<path d="M138.554 28.2939C142.205 34.0403 142.205 39.7512 138.554 45.7637L138.518 45.8169V50.446L160.696 50.5169V8.96181L138.518 8.89087L138.554 28.2939Z" fill="white"/>
<path d="M175.732 8.90869V21.2351H163.166V8.90869H175.732Z" fill="white"/>
<path d="M178.149 23.3989H163.166V35.6012H178.149V23.3989Z" fill="white"/>
<path d="M177.683 21.0755H180.386L180.44 50.4461H201.526V8.90869H177.737L177.683 21.0755Z" fill="white"/>
<path d="M87.1987 10.6645L73.1114 34.5014L59.042 10.6467C53.0455 14.8856 49.1433 21.7671 49.1433 29.5354C49.1433 42.4294 59.8833 52.8758 73.1114 52.8758C86.3574 52.8758 97.0795 42.4294 97.0795 29.5354C97.0795 19.8516 91.2978 13.5554 87.1987 10.6645Z" fill="white"/>
<path d="M85.2477 9.42299C81.6856 7.38337 77.5507 6.19507 73.1115 6.19507C68.6902 6.19507 64.5553 7.38337 60.9932 9.42299L73.1115 29.9611L85.2477 9.42299Z" fill="#B9B9B9"/>
<path d="M206.502 35.7962V50.446H227.857V8.94409H206.502V23.5939H203.71V35.7962H206.502Z" fill="white"/>
</g>
<defs>
<clipPath id="clip0_927_3601">
<rect width="179" height="47" fill="white" transform="translate(49 6)"/>
</clipPath>
</defs>
</svg>
