<svg width="276" height="59" viewBox="0 0 276 59" fill="none" xmlns="http://www.w3.org/2000/svg">
<g clip-path="url(#clip0_2001_3581)">
<path d="M251.867 17.5262V17.3939C251.867 16.7324 251.333 16.2693 250.467 16.2693H248.933V19.8416H249.667V18.6508H250.467L251.067 19.8416H251.867L251.133 18.4524C251.6 18.3201 251.867 17.9231 251.867 17.5262ZM249.667 16.9308H250.467C250.933 16.9308 251.133 17.0631 251.133 17.4601V17.5262C251.133 17.857 250.933 18.0554 250.467 18.0554H249.667V16.9308Z" fill="white"/>
<path d="M250.333 14.417C248.2 14.417 246.667 16.0047 246.667 18.0555C246.667 20.1062 248.267 21.6939 250.333 21.6939C252.4 21.6939 254 20.1062 254 18.0555C254 16.0047 252.4 14.417 250.333 14.417ZM250.333 21.2308C248.533 21.2308 247.2 19.9078 247.2 18.0555C247.2 16.2031 248.533 14.8801 250.333 14.8801C252.133 14.8801 253.467 16.2031 253.467 18.0555C253.467 19.9078 252.133 21.2308 250.333 21.2308Z" fill="white"/>
<path d="M239.733 50.4708V48.9492C240.666 49.4123 241.6 49.6769 242.4 49.6769C243 49.6769 243.333 49.5446 243.333 49.28C243.333 49.0154 243.133 48.9492 241.933 48.7508C240.6 48.5523 239.733 48.1554 239.733 47.0308C239.733 45.9723 240.666 45.1785 242.466 45.1785C243.2 45.1785 243.933 45.3108 244.666 45.6415V47.1631C244 46.7662 243.133 46.5677 242.4 46.5677C241.733 46.5677 241.533 46.7 241.533 46.9646C241.533 47.2954 241.933 47.2954 242.933 47.4939C244.266 47.6923 245.133 48.0892 245.133 49.28C245.133 50.2062 244.466 51.1323 242.466 51.1323C241.333 51 240.6 50.8015 239.733 50.4708Z" fill="white"/>
<path d="M232.467 45.2446H234.133V47.2954H234.8L236.467 45.2446H238.333L236.2 47.8908L238.467 50.8016H236.533L234.867 48.6846H234.2V50.8016H232.533V45.2446H232.467Z" fill="white"/>
<path d="M224.8 45.2446H228.066C229.533 45.2446 230.266 45.9723 230.266 47.2292C230.266 48.0892 229.866 48.7508 229.2 49.0154L230.533 50.8016H228.6L227.533 49.3462H226.4V50.8016H224.733V45.2446H224.8ZM227.8 48.0892C228.333 48.0892 228.533 47.7585 228.533 47.3616C228.533 46.9646 228.333 46.6339 227.8 46.6339H226.4V48.0892H227.8Z" fill="white"/>
<path d="M216.533 48.0231C216.533 46.2369 217.8 45.0461 219.733 45.0461C221.667 45.0461 222.933 46.1708 222.933 48.0231C222.933 49.8092 221.667 51 219.733 51C217.8 51 216.533 49.8754 216.533 48.0231ZM221.267 48.0231C221.267 47.0308 220.733 46.5015 219.733 46.5015C218.733 46.5015 218.2 47.0969 218.2 48.0231C218.2 49.0154 218.733 49.5446 219.733 49.5446C220.733 49.6108 221.267 49.0154 221.267 48.0231Z" fill="white"/>
<path d="M205.866 45.2446H207.666L208.6 49.0816H208.666L209.866 45.2446H211.533L212.666 49.0816H212.733L213.6 45.2446H215.333L213.866 50.8016H211.666L210.666 47.4277H210.6L209.533 50.8016H207.333L205.866 45.2446Z" fill="white"/>
<path d="M200.866 46.7H198.933L199 45.2446H204.466L204.533 46.7H202.6V50.8016H200.933V46.7H200.866Z" fill="white"/>
<path d="M192.4 45.2446H197.267L197.333 46.5677H194.067V47.3616H196.667V48.6185H194.067V49.4785H197.467L197.4 50.8016H192.4V45.2446Z" fill="white"/>
<path d="M184.467 45.2446H186.2L188.6 48.42V45.2446H190.2V50.8016H188.533L186.067 47.56V50.8016H184.467V45.2446Z" fill="white"/>
<path d="M233.6 15.74C226.667 15.74 221.733 20.5031 221.733 27.1185V27.9123C221.733 34.5277 226.667 39.2908 233.6 39.2908C240.533 39.2908 245.467 34.5277 245.467 27.9123V27.1185C245.467 20.5031 240.533 15.74 233.6 15.74ZM238.467 27.7138C238.467 31.22 236.667 33.6677 233.6 33.6677C230.533 33.6677 228.733 31.1538 228.733 27.7138V27.3169C228.733 23.8108 230.533 21.3631 233.6 21.3631C236.667 21.3631 238.467 23.8769 238.467 27.3169V27.7138Z" fill="white"/>
<path d="M215.067 33.6678C213.067 33.6678 212.333 32.6755 212.333 30.6247V21.297H220.333V16.0709H212.333V10.9109L205.533 11.9032V31.2863C205.533 36.5786 208.267 39.2909 213.733 39.2909C216.133 39.2909 219 38.5632 221.333 37.2401L219.4 32.477C218 33.2047 216.067 33.6678 215.067 33.6678Z" fill="white"/>
<path d="M201.667 8H194.867V38.8938H201.667V8Z" fill="white"/>
<path d="M180.533 15.74C177.533 15.74 174.4 16.5338 170.6 18.5846L172.733 23.8108C176.067 21.9585 178.867 21.1646 180.867 21.1646C183.133 21.1646 184.2 22.0246 184.2 23.1492V23.2154C184.2 24.0092 183.6 24.4061 182.067 24.5385L179.4 24.8031C172.8 25.5308 170.067 28.3754 170.067 32.2785V32.5431C170.067 36.3138 173.2 39.2246 177.6 39.2246C180.467 39.2246 183 38.0338 184.533 35.8508L185 38.8277H191V25.3985C190.933 19.0477 187.267 15.74 180.533 15.74ZM179.933 34.1308C177.733 34.1308 176.667 33.2708 176.667 31.9477V31.8815C176.667 30.6908 177.333 29.8969 179.733 29.5L180.8 29.3677C182.333 29.1692 183.267 28.9046 184.133 28.3754V30.0954C184.133 32.6754 182.533 34.1308 179.933 34.1308Z" fill="white"/>
<path d="M156.6 15.74C149.667 15.74 144.733 20.5031 144.733 27.1185V27.9123C144.733 34.5277 149.667 39.2908 156.6 39.2908C163.533 39.2908 168.467 34.5277 168.467 27.9123V27.1185C168.467 20.5031 163.533 15.74 156.6 15.74ZM161.467 27.7138C161.467 31.22 159.667 33.6677 156.6 33.6677C153.533 33.6677 151.733 31.1538 151.733 27.7138V27.3169C151.733 23.8108 153.533 21.3631 156.6 21.3631C159.667 21.3631 161.467 23.8769 161.467 27.3169V27.7138Z" fill="white"/>
<path d="M141.667 8H134.867V38.8938H141.667V8Z" fill="white"/>
<path d="M120.6 15.74C117.6 15.74 114.467 16.5338 110.667 18.5846L112.8 23.8108C116.133 21.9585 118.933 21.1646 120.933 21.1646C123.2 21.1646 124.267 22.0246 124.267 23.1492V23.2154C124.267 24.0092 123.667 24.4061 122.133 24.5385L119.467 24.8031C112.867 25.5308 110.133 28.3754 110.133 32.2785V32.5431C110.133 36.3138 113.267 39.2246 117.667 39.2246C120.533 39.2246 123.067 38.0338 124.6 35.8508L125.067 38.8277H131.067V25.3985C131 19.0477 127.267 15.74 120.6 15.74ZM120 34.1308C117.8 34.1308 116.733 33.2708 116.733 31.9477V31.8815C116.733 30.6908 117.4 29.8969 119.8 29.5L120.867 29.3677C122.4 29.1692 123.333 28.9046 124.2 28.3754V30.0954C124.2 32.6754 122.533 34.1308 120 34.1308Z" fill="white"/>
<path d="M98.6 15.74C95.5333 15.74 93 17.1292 91.6666 19.2461L91.1333 16.1369H85.1333V46.6338H91.9333V36.0492C93.2 38.0338 95.6666 39.2908 98.6 39.2908C104.067 39.2908 108.467 34.5277 108.467 27.9123V27.1185C108.533 20.5031 104.067 15.74 98.6 15.74ZM101.467 27.7138C101.467 31.22 99.6666 33.6677 96.6 33.6677C93.5333 33.6677 91.7333 31.1538 91.7333 27.7138V27.3169C91.7333 23.8108 93.5333 21.3631 96.6 21.3631C99.6666 21.3631 101.467 23.8769 101.467 27.3169V27.7138Z" fill="white"/>
<path d="M64.1999 15.6077L56.5332 8L48.8666 15.6077L52.6666 19.3785L33.4666 38.4969L41.1332 46.1046L48.7999 38.4969L44.9999 34.7262L64.1999 15.6077Z" fill="#B9B9B9"/>
<path d="M41.2 8L22 27.0523L29.6667 34.66L48.8667 15.6077L41.2 8Z" fill="#B9B9B9"/>
<path d="M68.0667 19.3784L48.8 38.4969L56.4667 46.1046L75.6667 27.0523L68.0667 19.3784Z" fill="#B9B9B9"/>
</g>
<path d="M264.5 3C264.102 3 263.721 3.15804 263.439 3.43934C263.158 3.72064 263 4.10218 263 4.5V11.5C263 11.8978 263.158 12.2794 263.439 12.5607C263.721 12.842 264.102 13 264.5 13H271.5C271.898 13 272.279 12.842 272.561 12.5607C272.842 12.2794 273 11.8978 273 11.5V9.27C273 9.13739 273.053 9.01021 273.146 8.91645C273.24 8.82268 273.367 8.77 273.5 8.77C273.633 8.77 273.76 8.82268 273.854 8.91645C273.947 9.01021 274 9.13739 274 9.27V11.5C274 12.163 273.737 12.7989 273.268 13.2678C272.799 13.7366 272.163 14 271.5 14H264.5C263.837 14 263.201 13.7366 262.732 13.2678C262.263 12.7989 262 12.163 262 11.5V4.5C262 3.83696 262.263 3.20107 262.732 2.73223C263.201 2.26339 263.837 2 264.5 2H266.73C266.863 2 266.99 2.05268 267.084 2.14645C267.177 2.24021 267.23 2.36739 267.23 2.5C267.23 2.63261 267.177 2.75979 267.084 2.85355C266.99 2.94732 266.863 3 266.73 3H264.5ZM268.77 2.5C268.77 2.36739 268.823 2.24021 268.916 2.14645C269.01 2.05268 269.137 2 269.27 2H273.5C273.633 2 273.76 2.05268 273.854 2.14645C273.947 2.24021 274 2.36739 274 2.5V6.73C274 6.86261 273.947 6.98979 273.854 7.08355C273.76 7.17732 273.633 7.23 273.5 7.23C273.367 7.23 273.24 7.17732 273.146 7.08355C273.053 6.98979 273 6.86261 273 6.73V3.708L269.623 7.084C269.577 7.13176 269.522 7.16985 269.461 7.19605C269.4 7.22226 269.334 7.23605 269.268 7.23663C269.201 7.2372 269.135 7.22455 269.074 7.19941C269.013 7.17427 268.957 7.13714 268.91 7.0902C268.863 7.04325 268.826 6.98743 268.801 6.92598C268.775 6.86453 268.763 6.79869 268.763 6.7323C268.764 6.66591 268.778 6.6003 268.804 6.5393C268.83 6.4783 268.868 6.42312 268.916 6.377L272.293 3H269.269C269.136 3 269.009 2.94732 268.915 2.85355C268.822 2.75979 268.769 2.63261 268.769 2.5" fill="white"/>
<defs>
<clipPath id="clip0_2001_3581">
<rect width="232" height="43" fill="white" transform="translate(22 8)"/>
</clipPath>
</defs>
</svg>
