<svg width="276" height="59" viewBox="0 0 276 59" fill="none" xmlns="http://www.w3.org/2000/svg">
<path d="M144.816 41.6106L144.588 40.3516C144.322 38.8868 144.486 38.1096 144.282 36.5483C144.231 36.0199 143.7 34.6187 142.71 33.9801L142.203 33.6517L142.913 33.1483C143.919 32.4347 144.169 31.5949 144.461 30.4029C144.706 29.4007 144.71 28.753 144.436 27.7587C144.048 26.3542 143.512 25.3928 142.188 24.7644C141.372 24.377 140.825 24.2826 139.919 24.2826H130.863V42.2413H134.517V35.2892H138.373H138.905C139.387 35.2892 139.767 35.4642 140.046 35.7676C140.807 36.5732 140.935 37.3789 141.011 38.563C141.087 39.772 141.006 40.5447 141.366 41.7379L141.518 42.2413H144.993L144.816 41.6106ZM140.91 30.2018C140.783 31.512 139.995 32.1767 138.88 32.2415L138.017 32.2927H134.517V27.4564H138.448H138.905C139.945 27.5575 140.68 27.8598 140.91 29.32C140.935 29.5723 140.935 29.8995 140.91 30.2018ZM253.168 29.6557V29.2409C253.168 25.9137 250.15 23.849 246.497 23.882C243.212 23.882 240.227 25.9898 240.326 29.6386C240.376 31.6465 241.76 33.0397 243.495 33.7204C247.897 35.4783 249.999 34.7147 250.15 37.3532C250.25 39.0952 248.115 39.5271 246.982 39.4259C245.448 39.2941 244.071 38.86 243.596 37.4021C243.487 37.0726 243.444 36.8714 243.444 36.5237V36.2737H239.792V36.8066C239.792 40.6531 243.339 42.7792 246.963 42.6952C250.451 42.6122 253.92 40.7373 253.769 36.9214C253.486 29.5898 243.26 32.6249 243.896 28.6432C244.328 25.8728 249.767 26.6364 249.599 29.158C249.599 29.2739 249.658 29.3182 249.65 29.4227L249.633 29.6557H253.168ZM217.445 30.4029H220.971L220.894 29.9495C220.743 29.0427 220.489 27.5064 218.689 25.6178C217.343 24.2076 215.837 23.8701 213.817 23.8804C212.068 23.8894 211.005 24.219 209.504 25.1144C206.545 26.8814 205.801 29.7234 205.698 33.0472C205.573 37.7323 208.034 42.6686 213.311 42.7697C217.014 42.8197 220.272 40.6698 220.92 37.0267C221.016 36.4937 221.038 36.1812 220.996 35.6415L220.971 35.3142H217.419V35.8687C217.419 37.8403 215.696 39.4948 213.766 39.3936C210.976 39.2175 210.013 37.6062 209.429 35.4403C209.201 34.6085 209.225 33.921 209.251 32.9472C209.279 31.9109 209.504 30.9075 209.709 30.3279C210.368 28.4644 211.87 27.1178 213.919 27.2042C215.279 27.2621 216.209 27.8019 216.938 28.9428C217.264 29.4518 217.356 29.8064 217.445 30.4029ZM223.635 24.2829H227.313V31.4101H234.01V24.2829H237.665V42.3655H234.01V34.6339H227.313V42.3655H223.635V24.2829ZM189.007 24.2829H192.661V34.6339L192.736 36.1463C192.793 37.2554 193.156 38.0372 194.081 38.6645C194.757 39.1213 195.293 39.169 196.11 39.1928C197.025 39.2201 197.658 39.2042 198.394 38.6645C199.273 38.019 199.586 37.2292 199.586 36.1463V34.6339V24.2829H203.265V35.7929L203.189 36.8759C202.987 39.7326 201.061 41.6428 198.267 42.3655C197.468 42.5735 196.987 42.5916 196.161 42.5928C195.288 42.5954 194.774 42.637 193.929 42.4166C191.152 41.6916 189.588 39.7076 189.108 36.9009C189.038 36.4838 189.007 36.2418 189.007 35.8179V24.2829ZM175.309 24.2829H187.054V27.6079H178.987V31.4612H186.014V34.6339H178.987V42.2405H175.309V24.2829ZM173.279 34.4832H168.103V29.3458H165.491V34.4832H160.291V37.0774H165.491V42.241H168.103V37.0774H173.279V34.4832ZM147.53 24.2829H151.208V38.9406H159.276V42.2405H147.53V24.2829ZM115.692 24.3099H128.148V27.6098H119.37V31.487H127.438V34.6358H119.37V38.9675H128.148V42.2674H115.692V24.3099ZM69.4967 24.2853H81.9525V27.5841H73.1748V31.4624H81.2412V34.6101H73.1748V38.9418H81.9525V42.2417H69.4967V24.2853ZM113.359 30.126C113.41 27.809 112.141 24.9625 109.275 24.3579C108.996 24.3079 108.734 24.3079 108.387 24.3079H100.117V42.2405H103.82V35.8179H108.032L108.768 35.7679C111.658 35.5702 113.308 32.7702 113.359 30.126ZM109.782 30.126C109.759 31.3282 109.122 32.5271 107.956 32.6191L107.321 32.6702H103.82V27.4567H107.448C107.647 27.4567 107.779 27.5067 107.956 27.5067C109.224 27.6328 109.806 28.884 109.782 30.126ZM97.9101 30.126C97.9611 27.809 96.6916 24.9625 93.8258 24.3579C93.5468 24.3079 93.2847 24.3079 92.9375 24.3079H84.668V42.2405H88.3711V35.8179H92.5824L93.3187 35.7679C96.2083 35.5702 97.8591 32.7702 97.9101 30.126ZM94.333 30.126C94.3103 31.3282 93.6727 32.5271 92.5064 32.6191L91.8722 32.6702H88.3711V27.4567H91.9993C92.1978 27.4567 92.3294 27.5067 92.5064 27.5067C93.7748 27.6328 94.3568 28.884 94.333 30.126ZM67.2397 30.126C67.2907 27.809 66.0212 24.9625 63.1554 24.3579C62.8763 24.3079 62.6142 24.3079 62.2671 24.3079H53.9976V42.2405H57.7006V35.8179H61.912L62.6483 35.7679C65.5379 35.5702 67.1886 32.7702 67.2397 30.126ZM63.6625 30.126C63.6398 31.3282 63.0022 32.5271 61.8359 32.6191L61.2017 32.6702H57.7006V27.4567H61.3288C61.5274 27.4567 61.659 27.5067 61.8359 27.5067C63.1043 27.6328 63.6863 28.884 63.6625 30.126Z" fill="white"/>
<path d="M49.4463 15.2295V42.2246H22.2256V15.2295H49.4463ZM29.166 40.6221H32.8916V28.498H38.9287C39.4789 28.4981 40.0112 28.7262 40.3867 29.125C40.7327 29.492 40.905 29.9596 40.8721 30.4414C40.8096 31.3753 39.9734 32.0819 38.9287 32.082H37.2705V29.6191H33.8301V34.749H39.4043C40.6238 34.7489 41.8277 34.3016 42.708 33.5176C43.6212 32.7062 44.123 31.6101 44.123 30.4307C44.1202 28.1047 42.2169 26.209 39.8799 26.209H29.166V40.6221ZM37.6914 16.7354C36.5332 16.7354 35.5021 17.1006 34.5391 17.8447C34.0592 18.3231 33.8301 19.0461 33.8301 20.1074V21.4707H29.166V23.9502H33.8301V25.4658H37.2705V23.9502H42.0283V21.4707H37.2705V20.3916C37.2705 20.085 37.3647 19.8645 37.5947 19.6328C37.9589 19.2692 38.3179 19.1201 38.833 19.1201H42.0283V16.7354H37.6914Z" fill="white"/>
<path d="M264.5 3C264.102 3 263.721 3.15804 263.439 3.43934C263.158 3.72064 263 4.10218 263 4.5V11.5C263 11.8978 263.158 12.2794 263.439 12.5607C263.721 12.842 264.102 13 264.5 13H271.5C271.898 13 272.279 12.842 272.561 12.5607C272.842 12.2794 273 11.8978 273 11.5V9.27C273 9.13739 273.053 9.01021 273.146 8.91645C273.24 8.82268 273.367 8.77 273.5 8.77C273.633 8.77 273.76 8.82268 273.854 8.91645C273.947 9.01021 274 9.13739 274 9.27V11.5C274 12.163 273.737 12.7989 273.268 13.2678C272.799 13.7366 272.163 14 271.5 14H264.5C263.837 14 263.201 13.7366 262.732 13.2678C262.263 12.7989 262 12.163 262 11.5V4.5C262 3.83696 262.263 3.20107 262.732 2.73223C263.201 2.26339 263.837 2 264.5 2H266.73C266.863 2 266.99 2.05268 267.084 2.14645C267.177 2.24021 267.23 2.36739 267.23 2.5C267.23 2.63261 267.177 2.75979 267.084 2.85355C266.99 2.94732 266.863 3 266.73 3H264.5ZM268.77 2.5C268.77 2.36739 268.823 2.24021 268.916 2.14645C269.01 2.05268 269.137 2 269.27 2H273.5C273.633 2 273.76 2.05268 273.854 2.14645C273.947 2.24021 274 2.36739 274 2.5V6.73C274 6.86261 273.947 6.98979 273.854 7.08355C273.76 7.17732 273.633 7.23 273.5 7.23C273.367 7.23 273.24 7.17732 273.146 7.08355C273.053 6.98979 273 6.86261 273 6.73V3.708L269.623 7.084C269.577 7.13176 269.522 7.16985 269.461 7.19605C269.4 7.22226 269.334 7.23605 269.268 7.23663C269.201 7.2372 269.135 7.22455 269.074 7.19941C269.013 7.17427 268.957 7.13714 268.91 7.0902C268.863 7.04325 268.826 6.98743 268.801 6.92598C268.775 6.86453 268.763 6.79869 268.763 6.7323C268.764 6.66591 268.778 6.6003 268.804 6.5393C268.83 6.4783 268.868 6.42312 268.916 6.377L272.293 3H269.269C269.136 3 269.009 2.94732 268.915 2.85355C268.822 2.75979 268.769 2.63261 268.769 2.5" fill="white"/>
</svg>
