<svg width="276" height="59" viewBox="0 0 276 59" fill="none" xmlns="http://www.w3.org/2000/svg">
<path d="M170.076 28.3784V6.65674H176.445L185.774 16.407V6.65674H193.242V28.3784H187.259L177.553 18.6503V28.3784H170.076Z" fill="white"/>
<path d="M114.416 28.3784V6.65674H121.881V14.1638H128.609V6.65674H136.099V28.3784H128.609V20.1606H121.881V28.3784H114.416Z" fill="white"/>
<path d="M204.521 6.63452H212.365L216.841 12.2537L221.34 6.63452H229.184L220.963 17.1178L230.314 28.3562H221.34L216.841 22.3816L212.365 28.3562H203.391L212.72 17.1178L204.521 6.63452Z" fill="white"/>
<path d="M110.407 31.9986C108.612 30.8881 106.132 30.6438 103.863 30.6438C97.4813 30.6438 92.2827 35.3079 92.2827 41.5047C92.2827 47.6791 97.4813 52.3655 103.863 52.3655C106.265 52.3655 108.402 52.0545 110.301 50.8552V44.8806C109.35 46.6574 107.557 47.1239 105.448 47.1239C102.361 47.1239 99.8546 44.5919 99.8546 41.5047C99.8546 38.4174 102.361 35.8632 105.448 35.8632C107.451 35.8632 109.299 36.5073 110.301 38.1065V32.1319L110.407 31.9986Z" fill="white"/>
<path d="M134.991 52.3655V30.6438H141.348L150.686 40.3942V30.6438H158.152V52.3655H152.164L142.456 42.6374V52.3655H134.991Z" fill="white"/>
<path d="M165.221 52.3655V36.263H159.604V30.6438H178.306V36.263H172.678V52.3655H165.221Z" fill="white"/>
<path d="M209.329 36.263C209.218 36.263 209.108 36.263 209.041 36.263C206.293 36.5739 204.366 38.9949 204.366 41.86C204.366 44.9694 206.87 47.1239 209.972 47.1239C212.077 47.1239 213.872 46.6574 214.825 44.8806V50.8552C212.919 52.0545 210.77 52.3655 208.376 52.3655C201.994 52.3655 196.809 48.0567 196.809 41.86C196.809 35.6855 201.994 30.6438 208.376 30.6438C208.465 30.6438 208.509 30.6438 208.598 30.6438H230.381V36.263H224.752V52.3655H217.307V36.263H209.329Z" fill="white"/>
<path d="M195.169 28.3784H202.659V6.65674H195.169V28.3784Z" fill="white"/>
<path d="M68.0403 15.4076L70.1521 15.4298V17.9174C70.1521 18.7614 70.5996 19.6053 71.26 20.0273C73.6333 21.0712 75.2687 23.4255 75.2687 26.2018C75.2687 28.8004 73.7396 31.0881 71.5502 32.1986C70.8899 32.6206 70.1521 33.6423 70.1521 34.464V38.8172V38.795C70.1521 40.1055 71.2068 41.1938 72.5253 41.1938C80.7554 41.1938 87.483 34.4418 87.483 26.2018C87.483 17.9173 80.7554 11.1654 72.5253 11.1654C71.2068 11.1654 70.1521 12.6535 70.1521 13.9417V15.9407L67.012 15.8296V13.5864C67.012 12.2537 65.9306 11.2098 64.6388 11.2098H56.3023L55.9323 6.65674H87.483C89.1184 6.65674 90.4901 8.03377 90.4901 9.65509V49.0118C90.4901 50.6553 89.0652 52.1879 87.4298 52.1879H48.5464C46.9111 52.1879 45.6191 50.8108 45.6191 49.1673V9.65509C45.6191 8.03377 46.9643 6.65674 48.5997 6.65674H56.0918L56.5394 11.2098H52.8476C51.5269 11.2098 50.4721 12.2537 50.4721 13.5864V45.1472C50.4721 46.4354 51.5269 47.5015 52.8476 47.5015H64.6653C65.9572 47.5015 67.012 46.8352 67.012 45.5247V34.464C67.012 33.6423 66.6441 32.8871 65.9572 32.4873C63.4509 31.5101 61.8953 29.0447 61.8953 26.2018C61.8953 23.6698 63.2404 21.4932 65.2969 20.3383C65.9572 19.9163 67.012 18.7614 67.012 17.9174V15.5409H68.9377L68.5942 22.6482C66.6686 22.6482 65.0598 24.2251 65.0598 26.2018C65.0598 28.1119 66.6441 29.711 68.5698 29.711C70.5198 29.711 72.1043 28.1119 72.1043 26.2018C72.1043 24.2251 70.5465 22.6482 68.5942 22.6482L68.0403 15.4076Z" fill="white"/>
<path d="M93.4707 13.4753V28.3784H101.701V21.6486H105.816C109.931 21.6486 113.281 18.2949 113.281 14.1638C113.281 10.0327 109.931 6.67897 105.816 6.67897L93.4707 6.65674V14.075L101.701 14.1416V11.543H103.6C105.025 11.543 106.212 12.7423 106.212 14.1638C106.212 15.5853 105.025 16.7846 103.6 16.7846H101.701V13.8084L93.4707 13.4753Z" fill="white"/>
<path d="M148.524 6.67897C142.457 6.98989 137.34 11.4542 137.34 17.4287C137.34 23.6254 142.43 28.3784 148.814 28.3784C149.025 28.3784 168.625 28.3784 168.625 28.3784V23.159H159.657V20.1606H168.257V14.8967H159.657V11.9205H168.625V6.65674H148.471L148.788 12.2315C151.374 12.1871 153.009 14.5858 153.009 17.4731C153.009 20.3383 151.504 22.6703 148.841 22.6925C146.572 22.6925 144.699 20.3383 144.699 17.4731C144.699 14.5858 146.572 12.2093 148.841 12.2093L148.524 6.67897Z" fill="white"/>
<path d="M122.225 36.2852C124.492 36.2852 126.418 38.6395 126.418 41.5268C126.418 44.4141 124.518 46.7685 122.252 46.7685C119.982 46.7685 118.11 44.4141 118.11 41.5268C118.11 38.6395 119.982 36.263 122.252 36.263L122.409 30.5994C116.025 30.5994 110.749 35.3079 110.749 41.5046C110.749 47.6791 115.947 52.3655 122.329 52.3655C128.713 52.3655 133.936 47.6791 133.936 41.5046C133.936 35.3079 128.74 30.6438 122.356 30.6438L122.225 36.2852Z" fill="white"/>
<path d="M186.882 44.1255H184.688L186.572 38.8838L188.433 44.1255H186.527L186.461 49.0117H189.94L191.048 52.3655H199.269L190.716 30.6438H182.45H182.494L173.852 52.3655H182.073L183.203 49.0117H186.793L186.882 44.1255Z" fill="white"/>
</svg>
