<svg width="276" height="59" viewBox="0 0 276 59" fill="none" xmlns="http://www.w3.org/2000/svg">
<path d="M62 38.6031C62 41.4027 62 42.9668 63.0161 43.9834C64.0322 45 65.5955 45 68.3937 45H87.6063C90.4045 45 91.9678 45 92.9839 43.9834C94 42.9668 94 41.4027 94 38.6031V19.3969C94 16.5973 94 15.0332 92.9839 14.0166C91.9678 13 90.4045 13 87.6063 13H68.4094C65.6111 13 64.0479 13 63.0318 14.0166C62.0156 15.0332 62.0156 16.5973 62.0156 19.3969V38.6031H62Z" fill="#B9B9B9"/>
<path d="M164.604 23.8605L161.382 13.1314H164.338L166.527 21.2215H166.981L169.171 13.1314H172.127L168.905 23.8605H164.604ZM119.262 18.5038C119.262 15.2835 121.733 12.9272 124.799 12.9272C127.88 12.9272 130.351 15.2835 130.351 18.5038C130.351 21.7241 127.911 24.0805 124.799 24.0805C121.702 24.0805 119.262 21.7084 119.262 18.5038ZM122.109 18.5038C122.109 20.2004 123.25 21.4414 124.814 21.4414C126.425 21.4414 127.536 20.2318 127.536 18.5038C127.536 16.8073 126.394 15.5663 124.814 15.5663C123.235 15.5663 122.109 16.8073 122.109 18.5038ZM145.663 9H142.832V11.6391H145.663V9ZM145.663 13.1314H142.832V23.8605H145.663V13.1314ZM160.005 9H157.174V11.6391H160.005V9ZM160.005 13.1314H157.174V23.8605H160.005V13.1314ZM172.408 18.5038C172.408 15.2835 174.879 12.9272 177.945 12.9272C181.026 12.9272 183.497 15.2835 183.497 18.5038C183.497 18.7866 183.466 19.0693 183.435 19.3364V19.3521H180.619H175.286C175.567 20.7502 176.6 21.7084 178.023 21.7084C178.93 21.7084 179.822 21.3 180.275 20.5931H183.294C182.574 22.7295 180.416 24.0962 178.023 24.0962C174.801 24.0805 172.408 21.7084 172.408 18.5038ZM175.38 17.31H180.51C180.119 16.1161 179.165 15.3149 177.929 15.3149C176.725 15.3149 175.771 16.1004 175.38 17.31ZM109.831 28.0077H107V13.1314H109.831V14.1682H110.081C110.785 13.367 111.895 12.9272 113.1 12.9272C116.009 12.9272 117.995 15.2835 117.995 18.5038C117.995 21.7241 116.009 24.0805 113.1 24.0805C111.802 24.0805 110.738 23.5621 110.081 22.8395H109.831V28.0077ZM112.474 15.5663C110.926 15.5663 109.831 16.8073 109.831 18.5038C109.831 20.2004 110.941 21.4414 112.474 21.4414C114.023 21.4414 115.149 20.2004 115.149 18.5038C115.149 16.8073 114.023 15.5663 112.474 15.5663ZM155.36 21.2215H153.139C151.653 21.2215 150.981 20.6088 150.981 19.0536V15.7705H155.344V13.1314H150.981V9H148.15V19.3992C148.15 22.3054 149.589 23.8762 152.607 23.8762H155.36V21.2215ZM126.41 39.9307C126.41 40.2134 126.378 40.4962 126.347 40.7632V40.7789H123.532H118.199C118.48 42.177 119.512 43.1352 120.936 43.1352C121.843 43.1352 122.734 42.7268 123.188 42.0199H126.206C125.487 44.1563 123.329 45.523 120.936 45.523C117.698 45.523 115.305 43.151 115.305 39.9464C115.305 36.7261 117.776 34.3697 120.842 34.3697C123.939 34.354 126.41 36.7103 126.41 39.9307ZM118.308 38.7368H123.438C123.047 37.5429 122.093 36.7418 120.857 36.7418C119.637 36.7575 118.683 37.5429 118.308 38.7368ZM146.242 34.354C145.022 34.354 143.943 34.7782 143.223 35.595H143.004V30.4425H140.173V45.3188H143.004V39.2395C143.004 37.9042 143.943 36.9931 145.288 36.9931C146.617 36.9931 147.571 37.9042 147.571 39.2395V45.3031H150.402V38.8153C150.402 36.1762 148.697 34.354 146.242 34.354ZM133.276 42.8682C131.712 42.8682 130.617 41.6272 130.617 39.9307C130.617 38.2341 131.712 36.9931 133.276 36.9931C134.449 36.9931 135.325 37.5743 135.638 38.6582H138.562C138.187 36.0349 135.935 34.3383 133.26 34.3383C130.195 34.3383 127.77 36.6946 127.77 39.9149C127.77 43.1195 130.163 45.4916 133.26 45.4916C135.966 45.4916 138.187 43.6536 138.562 41.0931H135.638C135.387 42.1927 134.465 42.8682 133.276 42.8682ZM109.831 30.4425H107V40.8418C107 43.7479 108.439 45.3188 111.458 45.3188H114.21V42.6797H111.989C110.503 42.6797 109.831 42.067 109.831 40.5119V37.2287H114.195V34.5897H109.831V30.4425ZM175.536 39.9307C175.536 43.151 173.096 45.5073 169.984 45.5073C166.887 45.5073 164.447 43.1353 164.447 39.9307C164.447 36.7103 166.918 34.354 169.984 34.354C173.065 34.354 175.536 36.7103 175.536 39.9307ZM172.705 39.9307C172.705 38.2341 171.564 36.9931 169.984 36.9931C168.42 36.9931 167.278 38.2341 167.278 39.9307C167.278 41.6272 168.42 42.8682 169.984 42.8682C171.595 42.8682 172.705 41.6586 172.705 39.9307ZM192.694 39.9307C192.694 43.151 190.254 45.5073 187.141 45.5073C184.045 45.5073 181.605 43.1353 181.605 39.9307C181.605 36.7103 184.076 34.354 187.141 34.354C190.207 34.354 192.694 36.7103 192.694 39.9307ZM189.863 39.9307C189.863 38.2341 188.721 36.9931 187.141 36.9931C185.577 36.9931 184.436 38.2341 184.436 39.9307C184.436 41.6272 185.577 42.8682 187.141 42.8682C188.737 42.8682 189.863 41.6586 189.863 39.9307ZM207.552 33.0816H210.383V30.4425H207.552V33.0816ZM207.552 45.3031H210.383V34.5739H207.552V45.3031ZM223.208 39.9307C223.208 40.2134 223.177 40.4962 223.146 40.7632V40.7789H220.33H215.013C215.294 42.177 216.326 43.1352 217.75 43.1352C218.657 43.1352 219.548 42.7268 220.002 42.0199H223.02C222.301 44.1563 220.143 45.523 217.75 45.523C214.512 45.523 212.119 43.151 212.119 39.9464C212.119 36.7261 214.59 34.3697 217.656 34.3697C220.737 34.354 223.208 36.7103 223.208 39.9307ZM215.106 38.7368H220.236C219.845 37.5429 218.891 36.7418 217.656 36.7418C216.436 36.7575 215.482 37.5429 215.106 38.7368ZM177.147 45.3031H179.978V30.4425H177.147V45.3031ZM158.77 34.354C157.55 34.354 156.471 34.7782 155.751 35.595H155.532V34.5582H152.701V45.2874H155.532V39.2395C155.532 37.9042 156.471 36.9931 157.816 36.9931C159.161 36.9931 160.099 37.9042 160.099 39.2395V45.3031H162.93V38.8153C162.93 36.1762 161.21 34.354 158.77 34.354ZM202.219 34.5739H205.05V45.523C205.05 48.4291 203.611 50 200.592 50H195.681V47.3609H200.06C201.546 47.3609 202.219 46.7483 202.219 45.1931V44.0935H201.968C201.312 44.8004 200.248 45.3188 198.95 45.3188C196.041 45.3188 194.054 43.0096 194.054 39.8521C194.054 36.6789 196.041 34.3854 198.95 34.3854C200.154 34.3854 201.265 34.8253 201.968 35.6107C201.968 35.6107 201.984 35.6264 201.984 35.6421H202.203V34.5739H202.219ZM199.576 42.7111C201.124 42.7111 202.219 41.5015 202.219 39.8364C202.219 38.1713 201.108 36.9617 199.576 36.9617C198.027 36.9617 196.901 38.1713 196.901 39.8364C196.901 41.5015 198.027 42.7111 199.576 42.7111ZM230.559 38.9253L228.776 38.6582C227.791 38.5169 227.4 38.2498 227.4 37.7471C227.4 37.0874 227.9 36.6632 229.105 36.6632C230.309 36.6632 230.966 37.2287 230.966 37.9356H233.797C233.797 36.5533 232.373 34.3697 229.105 34.3697C226.164 34.3697 224.647 35.9563 224.647 37.7314C224.647 39.5065 225.945 40.4805 228.15 40.826L229.84 41.0931C231.013 41.2816 231.247 41.69 231.247 42.2084C231.247 42.7268 230.747 43.2295 229.339 43.2295C227.932 43.2295 227.337 42.5226 227.337 41.9571H224.506C224.506 42.7425 225.367 45.523 229.339 45.523C232.467 45.523 234 43.9835 234 42.2084C234 40.292 232.749 39.2552 230.559 38.9253ZM137.624 17.4828L135.841 17.2157C134.856 17.0743 134.465 16.8073 134.465 16.3046C134.465 15.6448 134.965 15.2207 136.169 15.2207C137.374 15.2207 138.031 15.7862 138.031 16.4931H140.861C140.861 15.1107 139.438 12.9272 136.169 12.9272C133.229 12.9272 131.712 14.5138 131.712 16.2889C131.712 18.0797 133.01 19.0379 135.215 19.3835L136.904 19.6506C138.077 19.8391 138.312 20.2475 138.312 20.7659C138.312 21.2843 137.812 21.787 136.404 21.787C134.996 21.787 134.402 21.0801 134.402 20.5146H131.571C131.571 21.3 132.431 24.0805 136.404 24.0805C139.532 24.0805 141.065 22.541 141.065 20.7659C141.065 18.8494 139.829 17.8126 137.624 17.4828Z" fill="white"/>
</svg>
