<svg width="276" height="59" viewBox="0 0 276 59" fill="none" xmlns="http://www.w3.org/2000/svg">
<g clip-path="url(#clip0_2001_3586)">
<path d="M129.557 35.64L124.078 27.8H119.727V35.64H115.215V11.8H125.045C130.604 11.8 132.699 14.04 132.699 18.28V21.4C132.699 24.28 131.651 26.28 129.073 27.16L135.035 35.64H129.557ZM124.883 15.72H119.727V23.8H124.883C127.381 23.8 128.187 22.92 128.187 20.92V18.6C128.187 16.6 127.301 15.8 124.883 15.8V15.72Z" fill="white"/>
<path d="M148.813 35.6399V23.4799C148.813 22.5199 148.41 22.1199 147.443 22.1199C146.477 22.1199 144.462 22.7599 142.851 23.5599V35.6399H138.419V11.0799L142.851 10.4399V19.4799C144.785 18.4399 147.363 17.7999 149.297 17.7999C152.197 17.7999 153.245 19.7999 153.245 22.9199V35.5599H148.813V35.6399Z" fill="white"/>
<path d="M165.088 32.3601C166.78 32.3601 168.553 32.1201 170.487 31.5601L171.131 34.84C169.117 35.56 166.78 35.9601 164.686 35.9601C159.207 35.9601 157.273 33.4 157.273 29.24V24.6C157.273 20.92 158.965 17.8 164.524 17.8C170.084 17.8 171.373 21.08 171.373 24.84V28.6H161.624V29.4801C161.624 31.5601 162.349 32.44 165.088 32.44V32.3601ZM161.704 25.08H167.264V24.2C167.264 22.52 166.78 21.4 164.605 21.4C162.43 21.4 161.704 22.52 161.704 24.2V25.08Z" fill="white"/>
<path d="M190.308 28.9199C190.308 33.1599 189.018 35.9599 182.25 35.9599C175.482 35.9599 177.658 35.7999 175.402 35.3199V11.0799L179.833 10.4399V18.8399C181.122 18.2799 183.137 17.7999 184.99 17.7999C188.777 17.7999 190.308 20.1199 190.308 23.7999V28.9199ZM179.833 32.1199C180.639 32.1999 181.525 32.2799 182.492 32.2799C185.393 32.2799 185.957 31.1599 185.957 29.0799V23.7199C185.957 22.3599 185.312 21.5599 183.701 21.5599C182.089 21.5599 180.961 22.0399 179.833 22.5199V32.0399V32.1199Z" fill="white"/>
<path d="M201.265 35.9601C195.222 35.9601 193.611 32.6801 193.611 29.0801V24.68C193.611 21.08 195.222 17.8 201.265 17.8C207.308 17.8 208.919 21.08 208.919 24.68V29.0801C208.919 32.6801 207.308 35.9601 201.265 35.9601ZM201.265 21.56C198.929 21.56 198.042 22.6 198.042 24.6V29.32C198.042 31.32 198.929 32.3601 201.265 32.3601C203.602 32.3601 204.488 31.32 204.488 29.32V24.6C204.488 22.6 203.602 21.56 201.265 21.56Z" fill="white"/>
<path d="M87.0955 17.8801C89.1098 17.8801 91.0435 18.9201 92.0909 20.6801H98.9395C97.5698 15.4001 92.7355 11.5601 87.0149 11.5601C81.2943 11.5601 76.46 15.4001 75.0903 20.6801H82.0195C83.0669 18.9201 85.0006 17.8801 87.0149 17.8801H87.0955Z" fill="white"/>
<path d="M87.0955 29.56C85.0812 29.56 83.1475 28.52 82.1 26.76H75.2515C76.6212 32.04 81.4555 35.88 87.176 35.88C92.8966 35.88 97.7309 32.04 99.1006 26.76H92.1715C91.124 28.52 89.1903 29.56 87.176 29.56H87.0955Z" fill="white"/>
<path d="M74.8486 23.72C74.8486 18.12 78.6354 13.4 83.8726 11.96V5C74.8486 6.52 68 14.36 68 23.72C68 33.08 74.8486 40.84 83.8726 42.44V35.48C78.716 34.04 74.8486 29.32 74.8486 23.72Z" fill="#B9B9B9"/>
<path d="M99.4229 23.72C99.4229 29.32 95.6361 34.04 90.3989 35.48V42.44C99.4229 40.92 106.271 33.08 106.271 23.72C106.271 14.36 99.4229 6.52 90.3989 5V11.96C95.6361 13.4 99.4229 18.12 99.4229 23.72Z" fill="#B9B9B9"/>
<path d="M118.196 50.5201H117.632V50.2001C117.229 50.4401 116.746 50.6001 116.262 50.6001C115.537 50.6001 115.215 50.1201 115.215 49.4001C115.215 48.6801 115.618 48.2801 116.504 48.2801H117.632V47.6401C117.632 47.1601 117.39 46.9201 116.746 46.9201C116.101 46.9201 115.859 46.9201 115.537 47.0801V46.5201C115.94 46.4401 116.343 46.3601 116.826 46.3601C117.954 46.3601 118.357 46.8401 118.357 47.6401V50.4401L118.196 50.5201ZM117.471 48.8401H116.423C116.021 48.8401 115.859 49.0001 115.859 49.4001C115.859 49.8001 115.859 49.9601 116.423 49.9601C116.987 49.9601 117.149 49.8001 117.471 49.6401V48.8401Z" fill="#B9B9B9"/>
<path d="M121.983 49.8799H124.4V50.5199H121.258V44.9199H121.983V49.8799Z" fill="#B9B9B9"/>
<path d="M128.267 50.5201H127.703V50.2001C127.3 50.4401 126.817 50.6001 126.334 50.6001C125.608 50.6001 125.286 50.1201 125.286 49.4001C125.286 48.6801 125.689 48.2801 126.575 48.2801H127.703V47.6401C127.703 47.1601 127.462 46.9201 126.817 46.9201C126.172 46.9201 125.931 46.9201 125.608 47.0801V46.5201C126.011 46.4401 126.414 46.3601 126.898 46.3601C128.026 46.3601 128.428 46.8401 128.428 47.6401V50.4401L128.267 50.5201ZM127.542 48.8401H126.495C126.092 48.8401 125.931 49.0001 125.931 49.4001C125.931 49.8001 125.931 49.9601 126.495 49.9601C127.059 49.9601 127.22 49.8001 127.542 49.6401V48.8401Z" fill="#B9B9B9"/>
<path d="M131.974 50.52V47.4C131.974 47.16 131.813 47 131.571 47C131.329 47 130.604 47.16 130.201 47.4V50.44H129.476V46.36H130.04V46.68C130.524 46.44 131.249 46.28 131.732 46.28C132.215 46.28 132.618 46.68 132.618 47.32V50.44H131.893L131.974 50.52Z" fill="#B9B9B9"/>
<path d="M133.827 47.7199C133.827 46.9199 134.23 46.3599 135.116 46.3599C136.002 46.3599 135.922 46.3599 136.244 46.5199V44.8399H136.969C136.969 44.7599 136.969 50.5199 136.969 50.5199H136.405V50.1199C135.922 50.4399 135.519 50.5999 134.955 50.5999C134.149 50.5999 133.746 50.1999 133.746 49.3199V47.6399L133.827 47.7199ZM136.324 47.0799C135.922 47.0799 135.599 46.9999 135.196 46.9199C134.713 46.9199 134.552 47.1599 134.552 47.6399V49.3199C134.552 49.7199 134.713 49.9599 135.196 49.9599C135.68 49.9599 136.083 49.7199 136.324 49.4799V47.0799Z" fill="#B9B9B9"/>
<path d="M138.339 45.8V44.76H139.145V45.8H138.339ZM138.339 50.52V46.44H139.145V50.52H138.339Z" fill="#B9B9B9"/>
<path d="M141.562 50.6C141.159 50.6 140.595 50.52 140.272 50.36V49.8C140.756 49.88 141.159 49.96 141.562 49.96C142.206 49.96 142.287 49.88 142.287 49.4C142.287 48.92 142.287 48.92 141.4 48.68C140.353 48.44 140.272 48.2 140.272 47.4C140.272 46.6 140.595 46.28 141.723 46.28C142.851 46.28 142.528 46.28 142.851 46.44V47C142.448 47 142.045 46.92 141.642 46.92C141.078 46.92 140.917 47.08 140.917 47.4C140.917 47.72 140.917 47.96 141.642 48.12C142.851 48.44 142.931 48.52 142.931 49.4C142.931 50.28 142.69 50.6 141.562 50.6Z" fill="#B9B9B9"/>
<path d="M143.898 48.2H145.349V46.76H145.913V48.2H147.363V48.76H145.913V50.2H145.349V48.76H143.898V48.2Z" fill="#B9B9B9"/>
<path d="M149.135 48.9199C149.135 49.6399 149.377 49.9599 150.263 49.9599C151.15 49.9599 150.908 49.9599 151.311 49.8799V47.9599H152.036V50.3599C151.472 50.5199 150.827 50.5999 150.263 50.5999C148.813 50.5999 148.41 49.9599 148.41 48.9999V46.5199C148.41 45.3999 148.974 44.9199 150.344 44.9199C151.714 44.9199 151.391 44.9199 151.875 45.0799V45.7199C151.311 45.6399 150.827 45.5599 150.263 45.5599C149.377 45.5599 149.055 45.7999 149.055 46.5999V48.9999L149.135 48.9199Z" fill="#B9B9B9"/>
<path d="M154.373 50.5199H154.05L152.761 46.4399H153.486L154.534 49.9599L155.662 46.4399H156.387L155.017 50.5199L154.453 52.1199H153.809L154.373 50.5199Z" fill="#B9B9B9"/>
<path d="M158.965 47.0001C158.562 47.1601 158.159 47.4801 157.837 47.7201V50.5201H157.112V46.4401H157.756V47.0001C158.159 46.7601 158.562 46.5201 158.884 46.3601L158.965 47.0001Z" fill="#B9B9B9"/>
<path d="M161.302 49.0801V47.8001C161.302 46.8401 161.624 46.3601 162.913 46.3601C164.202 46.3601 163.638 46.3601 163.88 46.5201V47.0801C163.558 47.0801 163.235 47.0001 162.913 47.0001C162.188 47.0001 161.946 47.2401 161.946 47.8001V49.1601C161.946 49.8001 162.188 49.9601 162.913 49.9601C163.638 49.9601 163.477 49.9601 163.799 49.8801V50.4401C163.638 50.4401 163.235 50.6001 162.913 50.6001C161.624 50.6001 161.302 50.0401 161.302 49.1601V49.0801Z" fill="#B9B9B9"/>
<path d="M166.458 50.6001C165.25 50.6001 164.766 49.9601 164.766 49.0801V47.8801C164.766 47.0001 165.25 46.3601 166.458 46.3601C167.667 46.3601 168.15 47.0001 168.15 47.8801V49.0801C168.15 49.9601 167.667 50.6001 166.458 50.6001ZM166.458 47.0001C165.814 47.0001 165.491 47.3201 165.491 47.8801V49.0801C165.491 49.6401 165.814 49.9601 166.458 49.9601C167.103 49.9601 167.425 49.6401 167.425 49.0801V47.8801C167.425 47.3201 167.103 47.0001 166.458 47.0001Z" fill="#B9B9B9"/>
<path d="M174.193 50.52V47.4C174.193 47.16 174.032 47 173.79 47C173.549 47 172.823 47.16 172.421 47.4V50.44H171.695V47.32C171.695 47.08 171.534 46.92 171.293 46.92C171.051 46.92 170.326 47.08 169.923 47.32V50.36H169.198V46.2799H169.762V46.6C170.245 46.36 170.97 46.2 171.454 46.2C171.937 46.2 172.098 46.36 172.259 46.6C172.743 46.36 173.468 46.2 173.951 46.2C174.435 46.2 174.838 46.6 174.838 47.24V50.36H174.113L174.193 50.52Z" fill="#B9B9B9"/>
<path d="M179.35 49.2401C179.35 50.0401 178.947 50.6001 178.061 50.6001C177.658 50.6001 177.255 50.6001 176.933 50.4401V52.1201H176.208C176.208 52.2001 176.208 46.4401 176.208 46.4401H176.772V46.8401C177.255 46.5201 177.658 46.3601 178.141 46.3601C178.947 46.3601 179.35 46.7601 179.35 47.6401V49.3201V49.2401ZM176.852 49.8801C177.255 49.8801 177.577 49.9601 177.98 50.0401C178.464 50.0401 178.625 49.8001 178.625 49.3201V47.6401C178.625 47.2401 178.464 47.0001 177.98 47.0001C177.497 47.0001 177.094 47.2401 176.852 47.4801V49.8801Z" fill="#B9B9B9"/>
<path d="M183.459 50.5201H182.895V50.2001C182.492 50.4401 182.008 50.6001 181.525 50.6001C180.8 50.6001 180.478 50.1201 180.478 49.4001C180.478 48.6801 180.88 48.2801 181.767 48.2801H182.895V47.6401C182.895 47.1601 182.653 46.9201 182.008 46.9201C181.364 46.9201 181.122 46.9201 180.8 47.0801V46.5201C181.203 46.4401 181.606 46.3601 182.089 46.3601C183.217 46.3601 183.62 46.8401 183.62 47.6401V50.4401L183.459 50.5201ZM182.734 48.8401H181.686C181.283 48.8401 181.122 49.0001 181.122 49.4001C181.122 49.8001 181.122 49.9601 181.686 49.9601C182.25 49.9601 182.411 49.8001 182.734 49.6401V48.8401Z" fill="#B9B9B9"/>
<path d="M187.165 50.52V47.4C187.165 47.16 187.004 47 186.762 47C186.521 47 185.795 47.16 185.393 47.4V50.44H184.667V46.36H185.231V46.68C185.715 46.44 186.44 46.28 186.923 46.28C187.407 46.28 187.81 46.68 187.81 47.32V50.44H187.085L187.165 50.52Z" fill="#B9B9B9"/>
<path d="M190.146 50.5199H189.904L188.535 46.4399H189.26L190.388 49.9599L191.516 46.4399H192.16L190.871 50.5199L190.227 52.1199H189.582L190.146 50.5199Z" fill="#B9B9B9"/>
</g>
<path d="M264.5 3C264.102 3 263.721 3.15804 263.439 3.43934C263.158 3.72064 263 4.10218 263 4.5V11.5C263 11.8978 263.158 12.2794 263.439 12.5607C263.721 12.842 264.102 13 264.5 13H271.5C271.898 13 272.279 12.842 272.561 12.5607C272.842 12.2794 273 11.8978 273 11.5V9.27C273 9.13739 273.053 9.01021 273.146 8.91645C273.24 8.82268 273.367 8.77 273.5 8.77C273.633 8.77 273.76 8.82268 273.854 8.91645C273.947 9.01021 274 9.13739 274 9.27V11.5C274 12.163 273.737 12.7989 273.268 13.2678C272.799 13.7366 272.163 14 271.5 14H264.5C263.837 14 263.201 13.7366 262.732 13.2678C262.263 12.7989 262 12.163 262 11.5V4.5C262 3.83696 262.263 3.20107 262.732 2.73223C263.201 2.26339 263.837 2 264.5 2H266.73C266.863 2 266.99 2.05268 267.084 2.14645C267.177 2.24021 267.23 2.36739 267.23 2.5C267.23 2.63261 267.177 2.75979 267.084 2.85355C266.99 2.94732 266.863 3 266.73 3H264.5ZM268.77 2.5C268.77 2.36739 268.823 2.24021 268.916 2.14645C269.01 2.05268 269.137 2 269.27 2H273.5C273.633 2 273.76 2.05268 273.854 2.14645C273.947 2.24021 274 2.36739 274 2.5V6.73C274 6.86261 273.947 6.98979 273.854 7.08355C273.76 7.17732 273.633 7.23 273.5 7.23C273.367 7.23 273.24 7.17732 273.146 7.08355C273.053 6.98979 273 6.86261 273 6.73V3.708L269.623 7.084C269.577 7.13176 269.522 7.16985 269.461 7.19605C269.4 7.22226 269.334 7.23605 269.268 7.23663C269.201 7.2372 269.135 7.22455 269.074 7.19941C269.013 7.17427 268.957 7.13714 268.91 7.0902C268.863 7.04325 268.826 6.98743 268.801 6.92598C268.775 6.86453 268.763 6.79869 268.763 6.7323C268.764 6.66591 268.778 6.6003 268.804 6.5393C268.83 6.4783 268.868 6.42312 268.916 6.377L272.293 3H269.269C269.136 3 269.009 2.94732 268.915 2.85355C268.822 2.75979 268.769 2.63261 268.769 2.5" fill="white"/>
<defs>
<clipPath id="clip0_2001_3586">
<rect width="141" height="48" fill="white" transform="translate(68 5)"/>
</clipPath>
</defs>
</svg>
