<svg width="276" height="59" viewBox="0 0 276 59" fill="none" xmlns="http://www.w3.org/2000/svg">
<path d="M72.9464 11.5245C69.0749 9.78107 66.7661 9.10462 64.4735 9.10462C62.0674 9.10462 60.5263 9.97866 60.5263 11.3292C60.5263 15.4053 74.1574 14.2582 74.1574 23.6866C74.1574 28.8855 69.8574 31.9062 63.8834 31.9062C59.1973 31.9062 56.8897 30.6766 54.2316 29.2841V23.4518C58.0653 26.0286 60.4118 26.9387 63.369 26.9387C65.9332 26.9387 67.3161 26.0286 67.3161 24.4421C67.3161 20.0033 53.6851 21.6294 53.6851 11.9208C53.6851 7.23917 57.6734 4.13937 63.8834 4.13937C66.8807 4.13937 69.5847 4.77745 72.9464 6.24425V11.5245Z" fill="white"/>
<path d="M92.0313 30.6673C89.7593 31.5029 87.8378 31.9016 85.921 31.9016C79.5723 31.9016 75.4683 28.1509 75.4683 22.4441C75.4683 16.8419 79.7316 12.8844 85.685 12.8844C87.5239 12.8844 89.875 13.3621 91.7552 14.0722V18.361C90.2668 17.5591 88.5436 17.1197 87.1332 17.1197C83.7257 17.1197 81.5339 19.1967 81.5339 22.4023C81.5339 25.6532 83.6891 27.7929 86.9361 27.7929C88.3065 27.7929 89.5244 27.4745 92.0313 26.5226V30.6673Z" fill="white"/>
<path d="M141.528 20.3427C141.76 17.7973 143.218 16.3259 145.449 16.3259C147.644 16.3259 149.131 17.8392 149.366 20.3427H141.528ZM145.058 12.8902C139.487 12.8902 135.521 16.8815 135.521 22.4976C135.521 28.1556 139.645 31.9016 146.001 31.9016C147.409 31.9016 150.814 31.9016 154.058 29.4666V25.8856C151.401 27.8057 149.643 28.4671 147.374 28.4671C143.794 28.4671 141.604 26.5877 141.406 23.3798H154.377C154.646 16.6839 150.313 12.8902 145.058 12.8902Z" fill="white"/>
<path d="M156.571 31.5681H162.243V13.2285H156.571V31.5681Z" fill="white"/>
<path d="M178.026 26.5551C176.844 27.6337 175.862 28.0661 174.651 28.0661C171.981 28.0661 170.291 25.8368 170.291 22.4953C170.291 18.8341 171.981 16.7234 174.839 16.7234C175.862 16.7234 177.198 17.2011 178.026 17.7996V26.5551ZM178.026 4.47759V14.0327C176.494 13.2807 174.966 12.8844 173.315 12.8844C168.142 12.8844 164.563 16.7629 164.563 22.3756C164.563 27.8673 168.142 31.9062 172.996 31.9062C174.921 31.9062 176.408 31.3948 178.026 30.0861V31.5622H183.696V4.47759H178.026Z" fill="white"/>
<path d="M192.091 20.3427C192.327 17.7973 193.777 16.3259 196.005 16.3259C198.203 16.3259 199.705 17.8392 199.94 20.3427H192.091ZM195.618 12.8902C190.048 12.8902 186.09 16.8815 186.09 22.4976C186.09 28.1556 190.213 31.9016 196.562 31.9016C197.968 31.9016 201.38 31.9016 204.632 29.4666V25.8856C201.971 27.8057 200.21 28.4671 197.931 28.4671C194.37 28.4671 192.172 26.5877 191.973 23.3798H204.939C205.208 16.6839 200.871 12.8902 195.618 12.8902Z" fill="white"/>
<path d="M213.428 18.4797H213.512C215.195 14.6627 217.08 12.8728 219.267 12.8728C220.4 12.8728 221.378 13.311 223.023 14.5453L221.462 19.6303C219.973 18.6773 218.994 18.2786 218.095 18.2786C216.014 18.2786 214.683 20.2684 213.428 23.6321V31.5437H207.75V13.2087H213.428V18.4797Z" fill="white"/>
<path d="M162.509 5.51339C163.042 6.93835 162.083 8.92585 160.374 9.94866C158.659 10.9703 156.846 10.646 156.318 9.22107C155.78 7.79379 156.734 5.80396 158.447 4.78696C160.158 3.75951 161.971 4.08495 162.509 5.51339Z" fill="white"/>
<path d="M112.459 19.8953C112.459 14.9254 109.129 12.8903 105.843 12.8903C103.609 12.8903 101.772 13.8468 100.129 15.9564H100.051V4.47767H94.374V31.5146H100.051V19.8953C101.379 17.9462 102.513 17.1128 103.844 17.1128C105.609 17.1128 106.783 18.3867 106.783 21.1262V27.5687C108.687 26.5761 110.622 25.9671 112.459 25.7404V19.8953Z" fill="white"/>
<path d="M126.698 12.8845C124.386 12.8845 122.62 13.7562 120.814 15.853V13.2285H115.139V25.6917C117.105 25.8904 119.613 26.8051 120.814 28.3161V19.7513C122.305 17.4802 123.364 16.7235 124.776 16.7235C126.383 16.7235 127.605 17.7998 127.605 20.3859V31.5205H133.281V19.9093C133.281 14.5082 129.52 12.8845 126.698 12.8845Z" fill="white"/>
<path d="M136.415 36.7868H129.82V41.5405H136.183V43.5803H129.82V48.484H136.612V50.5215H127.609V34.7517H136.415V36.7868Z" fill="white"/>
<path d="M141.802 50.5308H143.822V34.747H141.802V50.5308Z" fill="white"/>
<path d="M153.823 41.6904C155.255 41.6904 156.143 42.6912 156.209 44.2637H151.065C151.343 42.6214 152.275 41.6904 153.823 41.6904ZM151.028 45.6317H158.225C158.225 41.7834 156.491 39.9261 153.777 39.9261C150.961 39.9261 149.005 42.038 149.005 45.1877C149.005 48.0667 150.772 50.7249 153.952 50.7249C155.686 50.7249 156.806 50.3343 158.047 49.4986V47.5042C156.849 48.3003 155.686 48.7594 154.462 48.7594C152.505 48.7594 151.343 47.6948 151.028 45.6317Z" fill="white"/>
<path d="M171.416 42.855C170.254 42.0484 169.478 41.8113 168.594 41.8113C166.745 41.8113 165.464 43.2502 165.464 45.3574C165.464 47.5042 166.827 48.7978 168.932 48.7978C169.798 48.7978 170.623 48.57 171.642 48.1074V50.1286C170.961 50.454 169.664 50.7249 168.594 50.7249C165.535 50.7249 163.412 48.5909 163.412 45.5411C163.412 42.0996 165.351 39.9261 168.455 39.9261C169.641 39.9261 170.439 40.2062 171.416 40.6421V42.855Z" fill="white"/>
<path d="M180.62 40.1249H183.862V41.9717H180.62V47.3089C180.62 48.5305 181.492 48.8838 182.081 48.8838C182.812 48.8838 183.566 48.6246 184.384 48.112V50.0345C183.675 50.4308 182.586 50.7249 181.919 50.7249C179.719 50.7249 178.607 49.3394 178.607 47.4635V41.9717H176.825V41.7427L180.62 37.9758V40.1249Z" fill="white"/>
<path d="M191.587 40.1249V42.5319H191.628C192.658 40.6897 193.638 39.9261 194.591 39.9261C195.414 39.9261 196.184 40.3178 197.031 41.1302L195.96 42.9364C195.345 42.3192 194.55 41.8939 194.07 41.8939C192.679 41.8939 191.587 43.3281 191.587 45.1052V50.5308H189.569V40.1249H191.587Z" fill="white"/>
<path d="M217.731 42.855C216.563 42.0484 215.788 41.8113 214.898 41.8113C213.054 41.8113 211.783 43.2502 211.783 45.3574C211.783 47.5042 213.147 48.7978 215.24 48.7978C216.107 48.7978 216.927 48.57 217.96 48.1074V50.1286C217.264 50.454 215.966 50.7249 214.898 50.7249C211.844 50.7249 209.711 48.5909 209.711 45.5411C209.711 42.0996 211.66 39.9261 214.764 39.9261C215.952 39.9261 216.742 40.2062 217.731 40.6421V42.855Z" fill="white"/>
<path d="M202.386 50.5308H204.406V40.1252H202.386V50.5308Z" fill="white"/>
<path d="M204.473 36.3869C204.671 36.889 204.326 37.5992 203.718 37.9606C203.107 38.3233 202.459 38.207 202.275 37.7038C202.09 37.1959 202.425 36.4915 203.039 36.1289C203.645 35.7616 204.289 35.879 204.473 36.3869Z" fill="white"/>
<path d="M114.054 37.2285C113.698 37.2285 113.547 37.2878 113.402 37.4528C113.345 37.5168 113.322 37.5818 113.301 37.712L111.49 44.681C111.065 47.1253 108.105 49.5661 104.247 49.5661H98.8841L99.8144 45.9851H103.26C103.611 45.9851 103.886 45.8526 104.117 45.5923C104.202 45.4912 104.312 45.3331 104.326 45.1704L105.756 39.0812C106.178 36.6357 108.725 33.9346 112.582 33.9346H118.074L117.372 37.2285H114.054ZM115.291 41.4755L115.904 39.2206H121.484C122.173 35.9512 121.631 32.9223 119.675 30.9382C115.716 26.9226 107.435 28.2871 101.265 34.2751C100.301 35.205 99.4879 36.2103 98.7466 37.2378H102.106L101.325 39.4973H97.3109C96.9271 40.2097 96.5673 40.9164 96.2924 41.6335H101.052L100.29 43.893H95.6129C94.8132 47.345 95.323 50.5645 97.335 52.609C101.244 56.5735 109.501 55.1799 115.667 49.193C116.746 48.1516 117.638 47.0277 118.443 45.8735H114.127L114.785 43.6187H119.831C120.201 42.9016 120.541 42.1926 120.807 41.4755H115.291Z" fill="white"/>
<path d="M264.5 3C264.102 3 263.721 3.15804 263.439 3.43934C263.158 3.72064 263 4.10218 263 4.5V11.5C263 11.8978 263.158 12.2794 263.439 12.5607C263.721 12.842 264.102 13 264.5 13H271.5C271.898 13 272.279 12.842 272.561 12.5607C272.842 12.2794 273 11.8978 273 11.5V9.27C273 9.13739 273.053 9.01021 273.146 8.91645C273.24 8.82268 273.367 8.77 273.5 8.77C273.633 8.77 273.76 8.82268 273.854 8.91645C273.947 9.01021 274 9.13739 274 9.27V11.5C274 12.163 273.737 12.7989 273.268 13.2678C272.799 13.7366 272.163 14 271.5 14H264.5C263.837 14 263.201 13.7366 262.732 13.2678C262.263 12.7989 262 12.163 262 11.5V4.5C262 3.83696 262.263 3.20107 262.732 2.73223C263.201 2.26339 263.837 2 264.5 2H266.73C266.863 2 266.99 2.05268 267.084 2.14645C267.177 2.24021 267.23 2.36739 267.23 2.5C267.23 2.63261 267.177 2.75979 267.084 2.85355C266.99 2.94732 266.863 3 266.73 3H264.5ZM268.77 2.5C268.77 2.36739 268.823 2.24021 268.916 2.14645C269.01 2.05268 269.137 2 269.27 2H273.5C273.633 2 273.76 2.05268 273.854 2.14645C273.947 2.24021 274 2.36739 274 2.5V6.73C274 6.86261 273.947 6.98979 273.854 7.08355C273.76 7.17732 273.633 7.23 273.5 7.23C273.367 7.23 273.24 7.17732 273.146 7.08355C273.053 6.98979 273 6.86261 273 6.73V3.708L269.623 7.084C269.577 7.13176 269.522 7.16985 269.461 7.19605C269.4 7.22226 269.334 7.23605 269.268 7.23663C269.201 7.2372 269.135 7.22455 269.074 7.19941C269.013 7.17427 268.957 7.13714 268.91 7.0902C268.863 7.04325 268.826 6.98743 268.801 6.92598C268.775 6.86453 268.763 6.79869 268.763 6.7323C268.764 6.66591 268.778 6.6003 268.804 6.5393C268.83 6.4783 268.868 6.42312 268.916 6.377L272.293 3H269.269C269.136 3 269.009 2.94732 268.915 2.85355C268.822 2.75979 268.769 2.63261 268.769 2.5" fill="white"/>
</svg>
