<svg width="276" height="59" viewBox="0 0 276 59" fill="none" xmlns="http://www.w3.org/2000/svg">
<path fill-rule="evenodd" clip-rule="evenodd" d="M245.406 13.5324V20.0945C241.983 18.8111 238.935 18.1622 236.267 18.1622C234.687 18.1622 233.429 18.4528 232.483 19.0145C231.537 19.5811 231.054 20.2786 231.054 21.1018C231.054 22.1963 232.122 23.1697 234.273 24.0415L240.485 27.0441C245.508 29.422 248 32.5795 248 36.5458C248 39.8438 246.679 42.4736 244.011 44.4204C241.363 46.3867 237.798 47.36 233.361 47.36C231.313 47.36 229.474 47.2729 227.841 47.0888C226.207 46.9146 224.33 46.5561 222.247 46.0428V39.1756C226.066 40.459 229.543 41.1079 232.673 41.1079C236.409 41.1079 238.267 40.0327 238.267 37.8631C238.267 36.7832 237.506 35.9115 235.96 35.2286L229.06 32.3083C226.514 31.1654 224.622 29.7803 223.383 28.1386C222.164 26.4823 221.545 24.5839 221.545 22.4143C221.545 19.3777 222.832 16.932 225.378 15.0724C227.943 13.2272 231.347 12.3022 235.58 12.3022C236.955 12.3022 238.54 12.4233 240.295 12.6461C242.065 12.8834 243.767 13.1739 245.406 13.5324Z" fill="white"/>
<path fill-rule="evenodd" clip-rule="evenodd" d="M49.9733 13.5326V20.0947C46.5499 18.8113 43.507 18.1624 40.8395 18.1624C39.2546 18.1624 38.0014 18.453 37.0553 19.0148C36.1093 19.5814 35.6265 20.2788 35.6265 21.1021C35.6265 22.1966 36.7091 23.1699 38.8597 24.0417L45.0724 27.0443C50.0757 29.4222 52.5725 32.5797 52.5725 36.5461C52.5725 39.8441 51.2461 42.4738 48.5981 44.4206C45.9306 46.3869 42.3854 47.3603 37.9332 47.3603C35.885 47.3603 34.0416 47.2732 32.408 47.0891C30.7743 46.9148 28.9164 46.5564 26.8195 46.043V39.1758C30.6525 40.4592 34.1295 41.1081 37.2407 41.1081C40.9761 41.1081 42.8341 40.033 42.8341 37.8634C42.8341 36.7834 42.0782 35.9117 40.5469 35.2288L33.6467 32.3085C31.0815 31.1656 29.1894 29.7806 27.9704 28.1388C26.7317 26.4826 26.127 24.5842 26.127 22.4145C26.127 19.3779 27.4047 16.9323 29.9648 15.0726C32.5105 13.2274 35.9191 12.3025 40.152 12.3025C41.5418 12.3025 43.1072 12.4235 44.8822 12.6463C46.6378 12.8836 48.3397 13.1742 49.9733 13.5326Z" fill="white"/>
<path fill-rule="evenodd" clip-rule="evenodd" d="M57.0938 12.9175H67.2126V46.7452H57.0938V12.9175Z" fill="white"/>
<path fill-rule="evenodd" clip-rule="evenodd" d="M99.8117 12.9175V19.1698H84.7773V26.6713H97.8173V32.3085H84.7773V40.1831H100.119V46.7452H75.0389V12.9175H99.8117Z" fill="white"/>
<path fill-rule="evenodd" clip-rule="evenodd" d="M147.05 12.9175V46.7452H137.604V24.4339L127.803 47.0552H121.97L112.544 24.4339V46.7452H105.712V12.9175H118.064L126.496 33.6258L135.317 12.9175H147.05Z" fill="white"/>
<path fill-rule="evenodd" clip-rule="evenodd" d="M179.636 12.9175V19.1698H164.684V26.6713H177.724V32.3085H164.684V40.1831H179.943V46.7452H154.864V12.9175H179.636Z" fill="white"/>
<path fill-rule="evenodd" clip-rule="evenodd" d="M215.142 12.9175V46.7452H204.409L192.365 25.049V46.7452H185.537V12.9175H196.583L208.316 34.2409V12.9175H215.142Z" fill="white"/>
<path d="M264.5 3C264.102 3 263.721 3.15804 263.439 3.43934C263.158 3.72064 263 4.10218 263 4.5V11.5C263 11.8978 263.158 12.2794 263.439 12.5607C263.721 12.842 264.102 13 264.5 13H271.5C271.898 13 272.279 12.842 272.561 12.5607C272.842 12.2794 273 11.8978 273 11.5V9.27C273 9.13739 273.053 9.01021 273.146 8.91645C273.24 8.82268 273.367 8.77 273.5 8.77C273.633 8.77 273.76 8.82268 273.854 8.91645C273.947 9.01021 274 9.13739 274 9.27V11.5C274 12.163 273.737 12.7989 273.268 13.2678C272.799 13.7366 272.163 14 271.5 14H264.5C263.837 14 263.201 13.7366 262.732 13.2678C262.263 12.7989 262 12.163 262 11.5V4.5C262 3.83696 262.263 3.20107 262.732 2.73223C263.201 2.26339 263.837 2 264.5 2H266.73C266.863 2 266.99 2.05268 267.084 2.14645C267.177 2.24021 267.23 2.36739 267.23 2.5C267.23 2.63261 267.177 2.75979 267.084 2.85355C266.99 2.94732 266.863 3 266.73 3H264.5ZM268.77 2.5C268.77 2.36739 268.823 2.24021 268.916 2.14645C269.01 2.05268 269.137 2 269.27 2H273.5C273.633 2 273.76 2.05268 273.854 2.14645C273.947 2.24021 274 2.36739 274 2.5V6.73C274 6.86261 273.947 6.98979 273.854 7.08355C273.76 7.17732 273.633 7.23 273.5 7.23C273.367 7.23 273.24 7.17732 273.146 7.08355C273.053 6.98979 273 6.86261 273 6.73V3.708L269.623 7.084C269.577 7.13176 269.522 7.16985 269.461 7.19605C269.4 7.22226 269.334 7.23605 269.268 7.23663C269.201 7.2372 269.135 7.22455 269.074 7.19941C269.013 7.17427 268.957 7.13714 268.91 7.0902C268.863 7.04325 268.826 6.98743 268.801 6.92598C268.775 6.86453 268.763 6.79869 268.763 6.7323C268.764 6.66591 268.778 6.6003 268.804 6.5393C268.83 6.4783 268.868 6.42312 268.916 6.377L272.293 3H269.269C269.136 3 269.009 2.94732 268.915 2.85355C268.822 2.75979 268.769 2.63261 268.769 2.5" fill="white"/>
</svg>
