<svg width="276" height="59" viewBox="0 0 276 59" fill="none" xmlns="http://www.w3.org/2000/svg">
<path fill-rule="evenodd" clip-rule="evenodd" d="M84.0262 43.3756C88.7894 43.3756 92.285 42.7663 92.285 37.3754V35.172H89.5833V37.0706C89.5833 40.4225 88.2443 41.0084 83.9315 41.0084H80.7441C76.2534 41.0084 76.0163 38.6059 76.0163 33.2383V26.7573C76.0163 22.4797 78.0071 21.8117 83.5523 21.8117H85.0925C88.5881 21.8117 89.2753 23.0305 89.2753 26.3237V27.0034H91.9888V26.2534C91.9888 21.6125 90.4484 19.4678 85.4717 19.4678H83.2441C77.4856 19.4678 73.3384 20.2178 73.3384 26.8628V35.9454C73.3384 40.6566 75.9098 43.3756 80.2346 43.3756H84.0262ZM108.4 28.7262V26.687H93.4225V28.7262H99.6669V43.1765H102.167V28.7262H108.4ZM116.872 41.3366C113.992 41.3366 112.689 41.2075 112.689 38.055C112.689 35.4064 113.885 35.2071 116.872 35.2071C120.059 35.2071 121.907 35.172 121.907 38.2895C121.907 41.313 119.372 41.3366 116.872 41.3366ZM124.479 43.1765V31.9491C124.479 26.9331 121.422 26.5229 117.251 26.5229C113.554 26.5229 110.603 26.7573 110.603 30.9998V31.3397H113.21V30.8006C113.21 28.527 115.58 28.527 117.559 28.527C120.367 28.527 121.978 28.7965 121.978 31.8202V34.8673H121.836C121.457 33.3437 118.234 33.2031 116.587 33.2031C112.476 33.2031 110.07 33.8125 110.07 38.3598C110.07 42.6609 112.677 43.3756 116.41 43.3756C118.495 43.3756 120.971 43.3052 121.895 41.4067L121.967 41.477V43.1765H124.479ZM140.498 26.6987H137.583L133.815 32.7343L129.941 26.6987H127.133L132.512 34.5977L126.481 43.1765H129.502L133.827 36.5314L138.152 43.1765H141.174L135.237 34.5977L140.498 26.6987ZM149.338 41.3366C146.458 41.3366 145.155 41.1959 145.155 38.0434C145.155 35.3947 146.352 35.1954 149.338 35.1954C152.525 35.1954 154.373 35.1603 154.373 38.2778C154.373 41.313 151.838 41.3366 149.338 41.3366ZM156.945 43.1765V31.9491C156.945 26.9331 153.888 26.5229 149.717 26.5229C146.02 26.5229 143.07 26.7573 143.07 30.9998V31.3397H145.676V30.8006C145.676 28.527 148.046 28.527 150.025 28.527C152.833 28.527 154.445 28.7965 154.445 31.8202V34.8673H154.302C153.923 33.3437 150.7 33.2031 149.053 33.2031C144.942 33.2031 142.536 33.8125 142.536 38.3598C142.536 42.6609 145.143 43.3756 148.876 43.3756C150.961 43.3756 153.437 43.3052 154.362 41.4067L154.433 41.477V43.1765H156.945ZM172.751 33.6133H163.77V26.6987H161.269V43.1765H163.77V35.6526H172.751V43.1765H175.251V26.6987H172.751V33.6133ZM179.09 34.9728C179.09 41.8872 180.287 43.3873 186.496 43.3873C192.669 43.3873 193.866 41.8989 193.866 34.9728C193.866 27.9879 192.669 26.5347 186.496 26.5347C180.299 26.5229 179.09 27.9879 179.09 34.9728ZM181.697 34.9728C181.697 29.2067 182.005 28.527 186.496 28.527C190.951 28.527 191.259 29.2067 191.259 34.9728C191.259 40.6683 190.951 41.3483 186.496 41.3483C182.005 41.3366 181.697 40.6683 181.697 34.9728ZM197.705 43.1765H205.62C209.187 43.1765 211.959 43.1765 211.959 38.3598C211.959 35.922 211.414 34.797 209.009 34.6329V34.5626C211.272 34.4219 211.651 32.8632 211.651 30.8006C211.651 26.5933 208.914 26.6987 205.04 26.6987H197.705V43.1765ZM200.205 33.6133V28.7262H204.767C208.677 28.7262 209.056 28.7614 209.056 31.1053C209.056 33.5781 208.061 33.6133 205.691 33.6133H200.205ZM200.205 35.6409H205.656C208.025 35.6409 209.353 35.5353 209.353 38.2895C209.353 41.2426 208.191 41.1372 205.857 41.1372H200.205V35.6409ZM227.256 38.1838V38.7934C227.256 41.1372 226.131 41.3366 222.695 41.3366C218.204 41.3366 217.825 40.6919 217.825 35.465H229.828V33.8008C229.828 27.7301 228.11 26.5112 222.695 26.5112C216.735 26.5112 215.218 28.1051 215.218 34.9493C215.218 41.2192 216.213 43.3639 222.695 43.3639C226.427 43.3639 229.828 43.1295 229.828 38.7817V38.1721H227.256V38.1838ZM217.836 33.4726C218.002 29.6755 218.18 28.527 222.706 28.527C226.51 28.527 227.091 28.7965 227.233 33.4726H217.836ZM247.281 43.1765V48.7315H249.781V41.1372H247.696V26.6987H245.196V41.1489H236.214V26.6987H233.714V43.1765H247.281Z" fill="white"/>
<path fill-rule="evenodd" clip-rule="evenodd" d="M48.8287 49.5921V29.1119H55.2638V27.0453L52.134 23.7712C47.0939 23.7712 42.0536 23.7712 37.1892 23.7712V29.1119H43.4485V39.6075L48.8287 49.5921Z" fill="white"/>
<path fill-rule="evenodd" clip-rule="evenodd" d="M65.5921 30.1733C65.5921 35.7737 63.3527 40.8318 59.756 44.4278L56.9851 39.1694C58.9418 36.7406 60.1067 33.6161 60.1067 30.2087C60.1067 27.4615 59.3489 24.903 58.0256 22.7454L61.9954 18.6069C64.2576 21.8493 65.5921 25.858 65.5921 30.1733Z" fill="white"/>
<path fill-rule="evenodd" clip-rule="evenodd" d="M31.8644 29.8315C31.8644 36.4776 36.4713 42.0357 42.6412 43.4547L45.9906 49.592C45.8848 49.592 45.7791 49.592 45.6733 49.592C34.8024 49.592 26 40.7348 26 29.7961C26 18.8574 34.8024 10 45.6733 10C50.6799 10 55.2396 11.8803 58.7065 14.9668L54.6284 19.0702C52.2194 17.0599 49.1285 15.8419 45.7556 15.8419C38.0813 15.8419 31.8644 22.1094 31.8644 29.8315Z" fill="white"/>
<path d="M264.5 3C264.102 3 263.721 3.15804 263.439 3.43934C263.158 3.72064 263 4.10218 263 4.5V11.5C263 11.8978 263.158 12.2794 263.439 12.5607C263.721 12.842 264.102 13 264.5 13H271.5C271.898 13 272.279 12.842 272.561 12.5607C272.842 12.2794 273 11.8978 273 11.5V9.27C273 9.13739 273.053 9.01021 273.146 8.91645C273.24 8.82268 273.367 8.77 273.5 8.77C273.633 8.77 273.76 8.82268 273.854 8.91645C273.947 9.01021 274 9.13739 274 9.27V11.5C274 12.163 273.737 12.7989 273.268 13.2678C272.799 13.7366 272.163 14 271.5 14H264.5C263.837 14 263.201 13.7366 262.732 13.2678C262.263 12.7989 262 12.163 262 11.5V4.5C262 3.83696 262.263 3.20107 262.732 2.73223C263.201 2.26339 263.837 2 264.5 2H266.73C266.863 2 266.99 2.05268 267.084 2.14645C267.177 2.24021 267.23 2.36739 267.23 2.5C267.23 2.63261 267.177 2.75979 267.084 2.85355C266.99 2.94732 266.863 3 266.73 3H264.5ZM268.77 2.5C268.77 2.36739 268.823 2.24021 268.916 2.14645C269.01 2.05268 269.137 2 269.27 2H273.5C273.633 2 273.76 2.05268 273.854 2.14645C273.947 2.24021 274 2.36739 274 2.5V6.73C274 6.86261 273.947 6.98979 273.854 7.08355C273.76 7.17732 273.633 7.23 273.5 7.23C273.367 7.23 273.24 7.17732 273.146 7.08355C273.053 6.98979 273 6.86261 273 6.73V3.708L269.623 7.084C269.577 7.13176 269.522 7.16985 269.461 7.19605C269.4 7.22226 269.334 7.23605 269.268 7.23663C269.201 7.2372 269.135 7.22455 269.074 7.19941C269.013 7.17427 268.957 7.13714 268.91 7.0902C268.863 7.04325 268.826 6.98743 268.801 6.92598C268.775 6.86453 268.763 6.79869 268.763 6.7323C268.764 6.66591 268.778 6.6003 268.804 6.5393C268.83 6.4783 268.868 6.42312 268.916 6.377L272.293 3H269.269C269.136 3 269.009 2.94732 268.915 2.85355C268.822 2.75979 268.769 2.63261 268.769 2.5" fill="white"/>
</svg>
