<svg width="276" height="59" viewBox="0 0 276 59" fill="none" xmlns="http://www.w3.org/2000/svg">
<g clip-path="url(#clip0_929_4157)">
<path d="M114.432 39.4062H112.841V32.1106H114.576C115.444 35.4473 116.977 37.7661 120.765 37.7661C122.818 37.7661 125.218 36.8047 125.218 34.4859C125.218 33.3831 124.582 32.5065 123.483 32.1671L116.398 30.1311C113.796 29.3676 112.697 27.0489 112.697 25.2674C112.697 21.5913 115.936 19.6401 119.406 19.6401C121.459 19.6401 123.223 20.234 124.756 21.563L125.623 20.0643H127.214V27.3034H125.421C124.987 23.9949 122.934 21.5913 119.464 21.5913C117.584 21.5913 115.704 22.3831 115.704 24.5039C115.704 25.4653 116.369 26.455 117.497 26.8227L124.842 29.0566C126.693 29.6221 128.052 31.2622 128.052 33.8921C128.052 37.964 124.814 39.8304 120.967 39.8304C118.48 39.8304 117.035 39.3496 115.299 37.8227L114.432 39.4062Z" fill="white"/>
<path d="M128.313 24.928L133.691 24.4473V35.221C133.691 36.748 134.993 37.455 136.352 37.455C138.232 37.455 140.227 35.8149 140.227 33.8637V27.2468C140.227 26.6812 139.822 26.5398 139.562 26.5398H137.827V24.9563L143.263 24.4755V36.8329C143.263 37.3984 143.639 37.5398 143.928 37.5398H145.866V39.1799H140.343V37.9357L140.516 36.4653C139.359 38.5578 137.653 39.6324 135.34 39.6324C133.084 39.6324 130.8 38.3316 130.655 35.8997V27.2185C130.655 26.6529 130.279 26.5115 129.99 26.5115H128.284V24.928H128.313Z" fill="white"/>
<path d="M146.242 39.2082V37.5116H147.803C148.093 37.5116 148.613 37.3419 148.613 36.4653V27.3034C148.613 26.7378 148.208 26.5964 147.948 26.5964H146.068V25.0129L151.65 24.5321V26.2005L151.331 27.6427C152.488 25.5784 154.194 24.4756 156.479 24.4756C158.735 24.4756 161.135 25.8046 161.135 28.2365V36.7198C161.135 37.0874 161.482 37.5116 161.887 37.5116H163.535V39.2082H156.016V37.5116H157.375C157.809 37.5116 158.156 37.1722 158.156 36.8046V28.8869C158.156 27.3882 156.855 26.6812 155.496 26.6812C153.616 26.6812 151.621 28.2931 151.621 30.2442V36.4653C151.621 37.2288 151.939 37.5116 152.459 37.5116H154.021V39.2082H146.242Z" fill="white"/>
<path d="M165.53 39.2082H163.911V21.5912C163.911 21.2236 163.824 20.2622 162.696 20.2622H161.279V18.7069L166.803 18.1414V26.964C167.67 25.2673 169.579 24.419 171.516 24.419C175.738 24.419 177.821 27.8689 177.821 31.7146C177.821 35.7866 175.623 39.5475 171.054 39.5475C169.232 39.5475 167.497 38.8406 166.514 37.257L165.53 39.2082ZM166.687 32.2519C166.687 34.8252 167.439 37.6812 170.562 37.6812C173.859 37.6812 174.466 34.5141 174.466 31.7995C174.466 29.2545 173.772 26.3984 170.707 26.3984C167.352 26.3984 166.687 29.5655 166.687 32.2519Z" fill="white"/>
<path d="M177.416 39.2082V37.5116H178.948C179.237 37.5116 179.787 37.3419 179.787 36.4653V27.2185C179.787 26.653 179.382 26.5116 179.122 26.5116H177.387V24.928L182.794 24.4473V36.437C182.794 37.2005 183.113 37.4833 183.662 37.4833H185.224V39.18H177.416V39.2082ZM181.088 18.8201C182.1 18.8201 182.997 19.6967 182.997 20.7147C182.997 21.8175 182.071 22.6093 181.001 22.6093C179.96 22.6093 179.151 21.8175 179.151 20.7995C179.151 19.7532 179.96 18.8201 181.088 18.8201Z" fill="white"/>
<path d="M185.426 25.0129L191.007 24.5039V26.7661L190.689 28.3497C191.759 26.5116 192.858 24.5039 195.577 24.5039C197.341 24.5039 198.526 25.4371 198.526 27.162C198.526 28.4345 197.861 29.2545 196.502 29.2545C195.548 29.2545 194.883 28.6607 194.883 27.6993C194.883 27.1337 195.23 26.5682 195.577 26.1723C193.176 26.0309 190.979 29.0283 190.979 31.2623V36.4088C190.979 37.1723 191.297 37.4551 191.817 37.4551H194.42V39.1517H185.571V37.4551H187.132C187.422 37.4551 187.942 37.2854 187.942 36.4088V27.3034C187.942 26.7378 187.537 26.5965 187.277 26.5965H185.426V25.0129Z" fill="white"/>
<path d="M212.031 36.4653C212.031 37.2288 212.349 37.5116 212.898 37.5116H214.344V39.2082H209.312V37.6812L209.631 36.1825C208.532 38.0489 206.941 39.5193 204.772 39.5193C200.261 39.5193 198.121 36.3522 198.121 32.3085C198.121 28.2082 200.174 24.4756 204.512 24.4756C206.565 24.4756 208.127 24.8998 209.052 26.6812V20.9409C209.052 20.3753 208.676 20.2339 208.387 20.2339H206.536V18.6504L212.031 18.1697V36.4653ZM205.38 37.653C207.288 37.653 209.197 35.2211 209.197 33.0154V30.5553C209.197 28.2648 207.953 26.3985 205.033 26.3985C201.967 26.3985 201.505 29.9049 201.505 32.3368C201.476 34.91 202.141 37.653 205.38 37.653Z" fill="white"/>
<path d="M88.839 37.9075C90.5162 37.8226 93.1767 36.8046 93.1767 36.8046C93.3213 38.2468 97.0228 39.5193 98.9314 40.1131C100.146 38.0771 101.042 35.8432 101.563 33.4396C98.5266 33.6375 95.201 34.2596 91.8176 35.6452C79.7008 40.5938 75.6523 27.0206 58.6483 35.8997C58.6483 35.8997 60.7594 32.6761 65.0104 31.6864C65.0104 31.6864 65.7044 27.5578 69.5216 26.8226C69.5216 26.8226 71.9507 26.4833 73.4256 27.1337C73.4256 27.1337 69.3481 22.2416 71.7772 13.7018C71.8351 13.5321 76.9536 25.8612 86.8147 29.3676C93.2924 31.6581 95.924 29.9614 101.939 30.838C101.997 30.2442 102.026 29.6221 102.026 29C102.026 16.8406 91.9622 7 79.5273 7C67.0925 7 57 16.8406 57 29C57 41.1594 67.0635 51 79.4984 51C87.6244 51 94.7383 46.7866 98.7001 40.4807C91.0079 40.6504 88.839 37.9075 88.839 37.9075Z" fill="#B9B9B9"/>
<path d="M216.455 18.113C216.889 18.113 217.294 18.2261 217.699 18.4241C218.104 18.622 218.422 18.9614 218.653 19.3573C218.884 19.7531 219 20.1773 219 20.6015C219 21.0256 218.884 21.4498 218.653 21.8457C218.422 22.2416 218.104 22.5526 217.699 22.7788C217.294 23.0051 216.86 23.1182 216.426 23.1182C215.992 23.1182 215.559 23.0051 215.154 22.7788C214.749 22.5526 214.431 22.2416 214.2 21.8457C213.968 21.4498 213.853 21.0256 213.853 20.6015C213.853 20.1773 213.968 19.7531 214.2 19.3573C214.431 18.9614 214.749 18.6503 215.154 18.4241C215.559 18.1979 216.021 18.113 216.455 18.113ZM216.455 18.5372C216.108 18.5372 215.732 18.622 215.414 18.82C215.096 19.0179 214.807 19.2441 214.604 19.5835C214.402 19.9228 214.315 20.2621 214.315 20.6297C214.315 20.9974 214.402 21.3367 214.604 21.676C214.807 22.0154 215.067 22.2698 215.385 22.4395C215.703 22.6092 216.079 22.7223 216.455 22.7223C216.831 22.7223 217.178 22.6375 217.525 22.4395C217.872 22.2416 218.132 21.9871 218.306 21.676C218.479 21.365 218.595 20.9974 218.595 20.6297C218.595 20.2621 218.508 19.9228 218.306 19.5835C218.104 19.2441 217.843 18.9896 217.496 18.82C217.149 18.6503 216.802 18.5372 216.455 18.5372ZM215.327 21.9871V19.3007H216.282C216.6 19.3007 216.831 19.329 216.976 19.3855C217.12 19.4421 217.236 19.5269 217.323 19.64C217.409 19.7531 217.438 19.8945 217.438 20.0359C217.438 20.2339 217.381 20.4035 217.236 20.5449C217.091 20.6863 216.889 20.7711 216.658 20.7994C216.744 20.8277 216.831 20.8842 216.889 20.9408C217.005 21.0539 217.149 21.2236 217.294 21.4781L217.641 22.0154H217.091L216.86 21.5912C216.658 21.2519 216.513 21.0539 216.397 20.9691C216.311 20.9125 216.195 20.8842 216.05 20.8842H215.79V22.0154H215.327V21.9871ZM215.79 20.4884H216.34C216.6 20.4884 216.773 20.4601 216.86 20.3752C216.947 20.2904 217.005 20.2056 217.005 20.0642C217.005 19.9794 216.976 19.9228 216.947 19.838C216.918 19.7531 216.831 19.7249 216.744 19.6966C216.658 19.6683 216.513 19.64 216.311 19.64H215.819V20.4884H215.79Z" fill="white"/>
</g>
<defs>
<clipPath id="clip0_929_4157">
<rect width="162" height="44" fill="white" transform="translate(57 7)"/>
</clipPath>
</defs>
</svg>
