<svg width="276" height="59" viewBox="0 0 276 59" fill="none" xmlns="http://www.w3.org/2000/svg">
<g clip-path="url(#clip0_929_3994)">
<path d="M194.737 29.0632H187.483L200.746 12H208L194.737 29.0632Z" fill="#B9B9B9"/>
<path d="M201.223 46.6044L181.137 20.7742H173.883L183.921 33.6837L173.883 46.6044H181.137L187.55 38.3495L193.969 46.6044H201.223Z" fill="white"/>
<path d="M164.43 20.7742H170.685V46.6099H164.43V20.7742Z" fill="white"/>
<path d="M153.797 12H160.052V46.6099H153.797V12Z" fill="white"/>
<path d="M142.905 12H149.161V46.6099H142.905V12Z" fill="white"/>
<path d="M126.768 46.9999C124.344 46.9999 122.113 46.399 120.076 45.1963C118.039 43.9943 116.439 42.3691 115.275 40.322C114.111 38.2749 113.529 36.0653 113.529 33.6924C113.529 31.3195 114.127 29.0124 115.324 26.9653C116.519 24.9182 118.136 23.3016 120.173 22.1148C122.209 20.9287 124.407 20.3357 126.768 20.3357C128.869 20.3357 130.833 20.8074 132.66 21.7493C134.486 22.692 136.022 23.9914 137.267 25.6492C138.511 27.3062 139.328 29.1432 139.716 31.1577C140.072 32.8805 140.087 34.505 139.764 36.032H119.784C120.009 37.1697 120.454 38.1449 121.118 38.9567C121.78 39.7694 122.604 40.3791 123.591 40.785C124.577 41.1917 125.635 41.3947 126.767 41.3947C127.995 41.3947 129.2 41.1592 130.38 40.6883C131.56 40.2173 132.554 39.5593 133.363 38.7141L138.891 40.2253C137.856 42.2723 136.191 43.9143 133.896 45.1487C131.6 46.3839 129.223 47.0007 126.767 47.0007L126.768 46.9999ZM133.606 31.2061C133.379 30.2642 132.951 29.3866 132.321 28.5739C131.691 27.7621 130.898 27.1199 129.944 26.6482C128.991 26.1772 127.915 25.9418 126.719 25.9418C125.523 25.9418 124.44 26.178 123.47 26.6482C122.5 27.1199 121.701 27.7621 121.07 28.5739C120.44 29.3866 120.011 30.2642 119.785 31.2061H133.606H133.606Z" fill="white"/>
<path d="M96.4478 20.7743H102.752V24.625C103.56 23.1623 104.772 22.0499 106.389 21.2857C108.005 20.523 109.993 20.3192 112.354 20.676V27.4522C110.769 26.8996 109.234 26.7942 107.747 27.1351C106.26 27.4768 105.056 28.2078 104.134 29.3289C103.213 30.4499 102.752 31.8231 102.752 33.4484V46.61H96.4478V20.7743Z" fill="white"/>
<path d="M79.6691 18.0936H69V12H96.4478V18.0936H86.1667V46.6099H79.6683V18.0936H79.6691Z" fill="white"/>
</g>
<defs>
<clipPath id="clip0_929_3994">
<rect width="139" height="35" fill="white" transform="translate(69 12)"/>
</clipPath>
</defs>
</svg>
