<svg width="276" height="59" viewBox="0 0 276 59" fill="none" xmlns="http://www.w3.org/2000/svg">
<path d="M264.5 3C264.102 3 263.721 3.15804 263.439 3.43934C263.158 3.72064 263 4.10218 263 4.5V11.5C263 11.8978 263.158 12.2794 263.439 12.5607C263.721 12.842 264.102 13 264.5 13H271.5C271.898 13 272.279 12.842 272.561 12.5607C272.842 12.2794 273 11.8978 273 11.5V9.27C273 9.13739 273.053 9.01021 273.146 8.91645C273.24 8.82268 273.367 8.77 273.5 8.77C273.633 8.77 273.76 8.82268 273.854 8.91645C273.947 9.01021 274 9.13739 274 9.27V11.5C274 12.163 273.737 12.7989 273.268 13.2678C272.799 13.7366 272.163 14 271.5 14H264.5C263.837 14 263.201 13.7366 262.732 13.2678C262.263 12.7989 262 12.163 262 11.5V4.5C262 3.83696 262.263 3.20107 262.732 2.73223C263.201 2.26339 263.837 2 264.5 2H266.73C266.863 2 266.99 2.05268 267.084 2.14645C267.177 2.24021 267.23 2.36739 267.23 2.5C267.23 2.63261 267.177 2.75979 267.084 2.85355C266.99 2.94732 266.863 3 266.73 3H264.5ZM268.77 2.5C268.77 2.36739 268.823 2.24021 268.916 2.14645C269.01 2.05268 269.137 2 269.27 2H273.5C273.633 2 273.76 2.05268 273.854 2.14645C273.947 2.24021 274 2.36739 274 2.5V6.73C274 6.86261 273.947 6.98979 273.854 7.08355C273.76 7.17732 273.633 7.23 273.5 7.23C273.367 7.23 273.24 7.17732 273.146 7.08355C273.053 6.98979 273 6.86261 273 6.73V3.708L269.623 7.084C269.577 7.13176 269.522 7.16985 269.461 7.19605C269.4 7.22226 269.334 7.23605 269.268 7.23663C269.201 7.2372 269.135 7.22455 269.074 7.19941C269.013 7.17427 268.957 7.13714 268.91 7.0902C268.863 7.04325 268.826 6.98743 268.801 6.92598C268.775 6.86453 268.763 6.79869 268.763 6.7323C268.764 6.66591 268.778 6.6003 268.804 6.5393C268.83 6.4783 268.868 6.42312 268.916 6.377L272.293 3H269.269C269.136 3 269.009 2.94732 268.915 2.85355C268.822 2.75979 268.769 2.63261 268.769 2.5" fill="white"/>
<path d="M14.9139 27.623C14.9139 15.0728 14.9139 8.79772 18.6735 4.89885C22.4331 1 28.4841 1 40.5861 1H43.2418C55.3437 1 61.3948 1 65.1544 4.89885C68.9139 8.79772 68.9139 15.0728 68.9139 27.623V30.3771C68.9139 42.9273 68.9139 49.2024 65.1544 53.1012C61.3948 57 55.3437 57 43.2418 57H40.5861C28.4841 57 22.4331 57 18.6735 53.1012C14.9139 49.2024 14.9139 42.9273 14.9139 30.3771V27.623Z" fill="#B9B9B9"/>
<path d="M27.2517 1.44858C30.7223 1 35.1882 1 41.0766 1H43.7513C49.6397 1 54.1056 1 57.5762 1.44858C57.8014 1.80321 57.9139 2.15466 57.9139 2.52281C57.9139 4.10732 55.8285 5.38243 51.6576 7.93268L51.2618 8.17468C47.0909 10.7249 45.0054 12 42.4139 12C39.8224 12 37.737 10.7249 33.5661 8.17468L33.1703 7.93268C28.9994 5.38243 26.9139 4.10732 26.9139 2.52281C26.9139 2.15466 27.0265 1.80321 27.2517 1.44858Z" fill="white"/>
<path d="M30.1108 13.3996C34.2607 15.8705 36.3356 17.1059 37.6248 19.4088C38.9139 21.7116 38.9139 24.1825 38.9139 29.1243V29.5933C38.9139 34.5351 38.9139 37.006 37.6248 37.7737C36.3356 38.5413 34.2607 37.3058 30.1108 34.8349L29.717 34.6004C25.5672 32.1295 23.4923 30.8941 22.2031 28.5912C20.9139 26.2884 20.9139 23.8175 20.9139 18.8757V18.4067C20.9139 13.4649 20.9139 10.994 22.2031 10.2263C23.4923 9.45874 25.5672 10.6942 29.717 13.1651L30.1108 13.3996Z" fill="white"/>
<path d="M53.717 13.3996C49.5672 15.8705 47.4923 17.106 46.2031 19.4088C44.9139 21.7116 44.9139 24.1825 44.9139 29.1243V29.5933C44.9139 34.5351 44.9139 37.0061 46.2031 37.7736C47.4923 38.5413 49.5672 37.3058 53.717 34.8349L54.1108 34.6004C58.2606 32.1295 60.3356 30.894 61.6248 28.5912C62.9139 26.2884 62.9139 23.8175 62.9139 18.8756V18.4067C62.9139 13.4649 62.9139 10.9939 61.6248 10.2264C60.3356 9.45871 58.2606 10.6942 54.1108 13.1651L53.717 13.3996Z" fill="white"/>
<path d="M103.724 43H96.7863L86.9139 15H92.0282L99.9184 38.0752H100.711L108.879 15H113.914L103.724 43Z" fill="white"/>
<path d="M126.452 28.5035L138.914 43H132.837L122.683 31.0057H121.529V43H116.914V15H121.529V26.3986H122.644L132.26 15H137.953L126.452 28.5035Z" fill="white"/>
<path d="M162.48 44C159.874 44 157.541 43.3867 155.482 42.16C153.423 40.9067 151.807 39.1867 150.634 37C149.488 34.7866 148.914 32.28 148.914 29.48C148.914 26.7067 149.488 24.2267 150.634 22.04C151.807 19.8267 153.423 18.1067 155.482 16.88C157.541 15.6267 159.874 15 162.48 15C165.322 15 167.837 15.7333 170.026 17.2C172.216 18.64 173.78 20.6266 174.718 23.16L170.066 23.96C169.414 22.52 168.424 21.4 167.094 20.6C165.791 19.8 164.305 19.4 162.637 19.4C160.917 19.4 159.379 19.8267 158.024 20.68C156.694 21.5333 155.652 22.72 154.896 24.24C154.166 25.76 153.801 27.5067 153.801 29.48C153.801 31.4533 154.166 33.2133 154.896 34.76C155.652 36.28 156.694 37.4667 158.024 38.32C159.379 39.1733 160.917 39.6 162.637 39.6C164.331 39.6 165.856 39.1867 167.211 38.36C168.567 37.5067 169.583 36.3333 170.261 34.84L174.914 35.64C173.924 38.2 172.307 40.24 170.066 41.76C167.85 43.2533 165.322 44 162.48 44Z" fill="white"/>
<path d="M182.914 43H178.914V15H182.914V43Z" fill="white"/>
<path d="M197.914 44C195.803 44 193.904 43.5383 192.216 42.6148C190.555 41.6642 189.249 40.3605 188.299 38.7037C187.376 37.0197 186.914 35.1185 186.914 33C186.914 30.8815 187.376 28.9938 188.299 27.337C189.249 25.6531 190.555 24.3493 192.216 23.4259C193.904 22.4753 195.803 22 197.914 22C200.024 22 201.91 22.4753 203.572 23.4259C205.261 24.3493 206.566 25.6531 207.489 27.337C208.439 28.9938 208.914 30.8815 208.914 33C208.914 35.1185 208.439 37.0197 207.489 38.7037C206.566 40.3605 205.261 41.6642 203.572 42.6148C201.91 43.5383 200.024 44 197.914 44ZM197.914 39.7222C199.76 39.7222 201.264 39.1111 202.424 37.8889C203.585 36.6395 204.165 35.0099 204.165 33C204.165 30.9901 203.585 29.374 202.424 28.1519C201.264 26.9025 199.76 26.2778 197.914 26.2778C196.068 26.2778 194.564 26.9025 193.403 28.1519C192.242 29.374 191.662 30.9901 191.662 33C191.662 35.0099 192.242 36.6395 193.403 37.8889C194.564 39.1111 196.068 39.7222 197.914 39.7222Z" fill="white"/>
<path d="M219.578 44C218.137 44 216.826 43.6302 215.647 42.8905C214.495 42.1509 213.578 41.1339 212.896 39.8396C212.242 38.5453 211.914 37.0792 211.914 35.4415V23H216.434V34.9264C216.434 36.4056 216.84 37.6075 217.652 38.5321C218.49 39.4566 219.552 39.9188 220.836 39.9188C222.145 39.9188 223.233 39.4566 224.098 38.5321C224.962 37.5811 225.395 36.3792 225.395 34.9264V23H229.914V43.6038H226.534L225.63 40.5132C224.975 41.5962 224.111 42.4547 223.036 43.0887C221.962 43.6962 220.809 44 219.578 44Z" fill="white"/>
<path d="M243.874 44C241.966 44 240.254 43.5403 238.738 42.621C237.221 41.6746 236.031 40.3767 235.169 38.7273C234.332 37.0508 233.914 35.158 233.914 33.0489C233.914 30.9398 234.332 29.0606 235.169 27.4112C236.031 25.7348 237.221 24.4368 238.738 23.5175C240.254 22.5711 241.966 22.0979 243.874 22.0979C245.522 22.0979 246.986 22.4494 248.267 23.1525C249.548 23.8284 250.593 24.6802 251.404 25.7077V15H255.914V43.5944H252.541L251.6 40.1874C250.764 41.242 249.691 42.1478 248.385 42.9049C247.077 43.635 245.574 44 243.874 44ZM244.973 39.8224C246.881 39.8224 248.424 39.2004 249.6 37.9566C250.803 36.6858 251.404 35.0499 251.404 33.0489C251.404 31.048 250.803 29.4256 249.6 28.1818C248.424 26.911 246.881 26.2755 244.973 26.2755C243.09 26.2755 241.561 26.911 240.385 28.1818C239.208 29.4256 238.62 31.048 238.62 33.0489C238.62 35.0499 239.208 36.6858 240.385 37.9566C241.561 39.2004 243.09 39.8224 244.973 39.8224Z" fill="white"/>
</svg>
