<svg width="276" height="59" viewBox="0 0 276 59" fill="none" xmlns="http://www.w3.org/2000/svg">
<path fill-rule="evenodd" clip-rule="evenodd" d="M192.417 3.30076C191.737 3.42922 191.196 3.56289 190.975 3.65693C189.637 4.22606 189.003 4.61384 188.28 5.30533C187.818 5.74695 187.119 6.62879 187.119 6.7698C187.119 6.816 187.084 6.85377 187.041 6.85377C186.998 6.85377 186.963 6.902 186.963 6.961C186.963 7.01999 186.872 7.23124 186.761 7.43055C186.573 7.7676 186.441 8.15132 186.25 8.92179C186.111 9.48101 186.027 10.4625 186.03 11.4765L186.034 12.4703L183.558 12.491L181.081 12.5116L181.06 14.5743C181.047 15.8507 181.069 16.6664 181.116 16.7138C181.164 16.7614 182.058 16.7837 183.474 16.7724C184.729 16.7625 185.817 16.778 185.892 16.8069C186.02 16.8563 186.028 17.2599 186.028 23.7574V30.6555H188.515C189.882 30.6555 191.058 30.6339 191.127 30.6074C191.24 30.5637 191.251 29.9384 191.246 23.7985C191.243 20.0801 191.243 16.9768 191.244 16.9024C191.248 16.7758 191.47 16.7675 194.642 16.7758C196.684 16.7812 198.066 16.7553 198.111 16.711C198.154 16.6672 198.176 15.7964 198.163 14.5743L198.143 12.5116L194.676 12.4913L191.209 12.471L191.22 11.2608C191.226 10.5951 191.265 10.0072 191.307 9.95439C191.348 9.90148 191.406 9.75875 191.435 9.63717C191.508 9.33094 191.799 8.89666 192.155 8.56039C192.494 8.24106 193.131 7.86827 193.339 7.86827C193.414 7.86827 193.513 7.8312 193.558 7.78602C193.702 7.64196 196.035 7.75441 196.468 7.92625C196.775 8.04838 197.288 8.15982 197.379 8.12455C197.491 8.08163 197.526 7.9538 197.591 7.36102C197.614 7.14642 197.688 6.63722 197.755 6.22947C197.822 5.82171 197.897 5.2852 197.923 5.03719C197.949 4.78911 198 4.56756 198.037 4.54485C198.074 4.52206 198.104 4.34632 198.104 4.15443C198.104 3.89066 198.07 3.79475 197.967 3.76174C197.892 3.7377 197.761 3.68986 197.675 3.65529C197.59 3.62072 197.327 3.55306 197.091 3.50483C196.855 3.45661 196.505 3.38013 196.312 3.33494C195.723 3.19689 193.088 3.17372 192.417 3.30076ZM223.788 3.62712C223.759 3.65631 223.735 9.74962 223.735 17.1679V30.6555H226.306H228.877L228.858 17.1353L228.838 3.61518L226.339 3.59458C224.965 3.58326 223.817 3.59793 223.788 3.62712ZM233.837 3.62821C233.808 3.65677 233.785 9.74962 233.785 17.1679V30.6555H236.347H238.909L238.956 30.4799C239.033 30.1961 239.001 3.94669 238.924 3.75175L238.854 3.57616H236.371C235.006 3.57616 233.865 3.59957 233.837 3.62821ZM131.563 5.92246C131.522 5.9479 131.488 7.34651 131.483 9.21958L131.473 12.4725H129.623C128.237 12.4725 127.753 12.497 127.695 12.5701C127.582 12.7104 127.669 16.7626 127.785 16.7707C127.832 16.7739 128.592 16.7717 129.473 16.7656C130.354 16.7595 131.169 16.778 131.283 16.8066L131.49 16.8588L131.495 20.382C131.5 24.534 131.558 25.3024 131.954 26.4883C132.156 27.0944 132.497 27.7426 132.939 28.3636C133.305 28.8777 134.258 29.7919 134.651 30.0057C135.297 30.3576 135.934 30.6555 136.04 30.6555C136.105 30.6555 136.178 30.6867 136.202 30.7249C136.225 30.7631 136.359 30.8136 136.498 30.8371C136.638 30.8608 136.945 30.9253 137.181 30.9807C137.73 31.1097 140.698 31.1159 141.349 30.9892C142.114 30.8403 142.276 30.8029 142.439 30.7374C142.525 30.7031 142.806 30.6089 143.063 30.5281L143.53 30.3813L143.555 30.0353C143.568 29.845 143.544 29.6169 143.5 29.5285C143.456 29.4402 143.404 29.1747 143.385 28.9386C143.365 28.7026 143.293 28.1407 143.224 27.69C143.155 27.2393 143.067 26.6293 143.028 26.3343C142.946 25.7096 142.87 25.5959 142.616 25.7177C142.353 25.8442 141.81 26.0415 141.606 26.085C141.507 26.106 141.181 26.1772 140.881 26.2433C140.177 26.3983 139.347 26.396 138.726 26.2372C137.764 25.9914 137.271 25.5937 136.908 24.7701L136.713 24.3299V20.5946C136.713 17.1825 136.724 16.8551 136.843 16.8095C136.914 16.7821 138.325 16.762 139.979 16.7647C141.632 16.7675 143.046 16.7686 143.121 16.7672C143.248 16.7648 143.257 16.6094 143.257 14.6186V12.4725H139.985H136.713L136.712 9.29247C136.711 7.5434 136.683 6.06793 136.648 6.01361C136.6 5.93799 136.006 5.9106 134.11 5.89655C132.748 5.88649 131.602 5.89819 131.563 5.92246ZM113.185 12.1253C112.257 12.2703 112.021 12.3243 111.972 12.4035C111.949 12.4415 111.851 12.4725 111.755 12.4725C111.659 12.4725 111.547 12.502 111.507 12.5381C111.466 12.5741 111.31 12.6505 111.16 12.7077C110.26 13.0517 108.982 13.9519 108.157 14.8237C107.665 15.3444 106.953 16.3038 106.953 16.447C106.953 16.4929 106.918 16.5305 106.875 16.5305C106.832 16.5305 106.797 16.5832 106.797 16.6476C106.797 16.712 106.762 16.7646 106.719 16.7646C106.676 16.7646 106.641 16.808 106.641 16.8609C106.641 16.9139 106.548 17.1509 106.434 17.3877C106.32 17.6245 106.197 17.8791 106.161 17.9536C106.125 18.0282 106.096 18.1578 106.096 18.2417C106.096 18.3256 106.061 18.4159 106.018 18.4425C105.975 18.469 105.94 18.5594 105.94 18.6433C105.94 18.7272 105.908 18.8568 105.869 18.9313C105.668 19.314 105.435 21.3413 105.504 22.1023C105.583 22.9617 105.684 23.6414 105.784 23.9832C105.834 24.1549 105.894 24.3923 105.917 24.5109C105.939 24.6294 105.989 24.7457 106.027 24.7691C106.065 24.7926 106.096 24.8905 106.096 24.9867C106.096 25.0829 106.125 25.195 106.161 25.2357C106.196 25.2765 106.302 25.5006 106.396 25.7337C106.843 26.8442 107.98 28.3156 109.095 29.2243C109.508 29.5604 110.604 30.2653 110.715 30.2653C110.751 30.2653 110.972 30.3531 111.206 30.4604C111.44 30.5677 111.666 30.6555 111.709 30.6555C111.751 30.6555 111.846 30.6872 111.921 30.7259C112.089 30.8137 112.537 30.9311 113.148 31.0478C113.712 31.1556 116.079 31.1038 116.652 30.9711C116.867 30.9215 117.156 30.8614 117.296 30.8376C117.435 30.8138 117.569 30.7631 117.592 30.7249C117.616 30.6867 117.714 30.6555 117.81 30.6555C117.906 30.6555 118.018 30.625 118.058 30.5877C118.099 30.5504 118.308 30.4566 118.522 30.3791C118.736 30.3017 118.947 30.2131 118.989 30.1821C119.032 30.1512 119.197 30.0535 119.356 29.965L119.644 29.8041L119.667 30.2103L119.691 30.6165H122.243H124.795L124.795 21.6225C124.794 16.6758 124.794 12.593 124.794 12.5495C124.794 12.4973 123.927 12.4774 122.242 12.491L119.691 12.5116L119.667 12.9213C119.646 13.2826 119.558 13.4487 119.483 13.2693C119.429 13.1414 118.019 12.5616 117.003 12.2497C116.64 12.1382 115.162 12.0023 114.432 12.0132C114.111 12.018 113.55 12.0684 113.185 12.1253ZM153.424 12.1214C152.406 12.2679 151.792 12.4568 150.814 12.9244C149.721 13.4471 149.315 13.7405 148.35 14.704C147.76 15.2924 146.841 16.4884 146.841 16.667C146.841 16.6929 146.721 16.9624 146.575 17.266C145.978 18.5047 145.655 20.0038 145.649 21.564C145.646 22.5254 145.881 24.2628 146.078 24.7246C146.187 24.9811 146.303 25.2725 146.373 25.4659C146.497 25.8084 147.039 26.8189 147.335 27.2608C147.738 27.8626 148.838 28.966 149.5 29.4329C149.784 29.6332 150.036 29.797 150.061 29.797C150.086 29.797 150.274 29.896 150.48 30.0169C150.685 30.1378 151.046 30.303 151.282 30.3838C151.517 30.4647 151.744 30.5589 151.784 30.5932C151.825 30.6275 151.937 30.6555 152.033 30.6555C152.129 30.6555 152.227 30.6867 152.25 30.7249C152.274 30.7631 152.407 30.814 152.547 30.8381C152.687 30.8621 153.029 30.9271 153.307 30.9825C153.964 31.1128 156.774 31.1188 157.359 30.9911C157.594 30.9396 157.892 30.8755 158.021 30.8486C158.149 30.8218 158.325 30.7722 158.41 30.7384C158.496 30.7047 158.706 30.6335 158.878 30.5802C159.882 30.2682 161.615 29.1486 162.189 28.4421C162.296 28.31 162.462 28.1203 162.559 28.0205C162.655 27.9207 162.734 27.8216 162.734 27.8003C162.734 27.779 162.803 27.6873 162.888 27.5964C163.065 27.4052 163.825 25.9196 163.825 25.7629C163.825 25.5433 163.386 25.5049 160.879 25.5058L158.332 25.5067L158.02 25.7984C157.681 26.1152 157.305 26.3485 157.075 26.3843C156.995 26.3967 156.879 26.4389 156.816 26.4781C156.753 26.5173 156.14 26.5468 155.453 26.5436C154.334 26.5385 154.145 26.5177 153.649 26.345C152.614 25.9846 151.832 25.3222 151.388 24.4306C151.265 24.1845 151.164 23.9481 151.163 23.9052C151.162 23.8622 151.139 23.792 151.112 23.7491C151.086 23.7062 151.051 23.5657 151.036 23.4369L151.009 23.2028L157.525 23.1828C163.325 23.1651 164.051 23.1495 164.141 23.0408C164.377 22.7558 164.221 18.6691 163.968 18.5124C163.932 18.4903 163.903 18.3711 163.903 18.2474C163.903 18.1237 163.868 18.0008 163.825 17.9742C163.782 17.9477 163.747 17.875 163.747 17.8127C163.747 17.7504 163.681 17.5506 163.599 17.3686C163.474 17.0876 163.386 16.8593 163.336 16.6866C163.33 16.6651 163.09 16.2964 162.803 15.8672C162.086 14.7945 161.24 13.9611 160.267 13.3697C159.95 13.1767 159.675 13.0188 159.656 13.0188C159.637 13.0188 159.42 12.9273 159.172 12.8157C158.576 12.5464 158.446 12.495 158.215 12.4348C158.108 12.4068 157.898 12.3504 157.748 12.3094C156.77 12.0421 154.624 11.9487 153.424 12.1214ZM207.219 12.0868C206.746 12.1476 206.426 12.2237 205.855 12.4114C205.267 12.605 204.025 13.1855 204.025 13.267C204.025 13.3022 203.985 13.331 203.937 13.331C203.813 13.331 202.97 13.9553 202.493 14.3998C201.739 15.1026 200.931 16.1928 200.502 17.0857C200.153 17.8134 199.973 18.2421 199.973 18.3505C199.973 18.4083 199.948 18.4809 199.917 18.5121C199.852 18.5776 199.686 19.3099 199.571 20.0423C199.44 20.8741 199.408 22.151 199.503 22.7346C199.67 23.7588 199.836 24.5291 199.944 24.7754C200.003 24.9106 200.051 25.0458 200.051 25.0758C200.051 25.1058 200.192 25.426 200.363 25.7874C200.534 26.1488 200.675 26.4759 200.675 26.5144C200.675 26.553 200.703 26.5961 200.737 26.6105C200.771 26.6248 200.972 26.8999 201.184 27.2218C201.998 28.4603 203.312 29.5907 204.726 30.2698C205.381 30.5847 205.482 30.6265 205.855 30.7392C206.027 30.7909 206.255 30.8603 206.362 30.8933C206.989 31.0865 207.576 31.1349 208.818 31.0961C210.23 31.052 210.797 30.9941 210.915 30.8816C210.956 30.8431 211.086 30.8115 211.203 30.8115C211.321 30.8115 211.438 30.7764 211.465 30.7335C211.491 30.6906 211.596 30.6555 211.698 30.6555C211.801 30.6555 211.903 30.6243 211.927 30.5861C211.95 30.5479 212.065 30.4927 212.182 30.4633C212.461 30.3932 213.405 29.9394 213.438 29.8595C213.52 29.6642 213.607 29.8545 213.607 30.2263V30.6555H216.177H218.748L218.768 21.6616C218.779 16.7149 218.775 12.6238 218.76 12.5701C218.739 12.4946 218.153 12.4725 216.17 12.4725H213.607V12.9082C213.607 13.1479 213.581 13.3314 213.549 13.3161C213.517 13.3008 213.192 13.1447 212.828 12.9694C211.988 12.565 211.394 12.3587 210.608 12.1991C209.894 12.054 207.97 11.9903 207.219 12.0868ZM177.614 12.2823C176.066 12.5477 174.817 13.0875 173.626 14.0062L173.174 14.3546V13.4135V12.4725H170.603C168.206 12.4725 168.032 12.4818 168.032 12.6091C168.031 13.0328 168.03 30.0482 168.031 30.3238L168.032 30.6555H170.603H173.174V25.1622V19.6688L173.646 19.2308C174.212 18.7061 174.837 18.2779 175.472 17.9806C175.729 17.8601 176 17.7304 176.075 17.6924C176.149 17.6542 176.278 17.6231 176.362 17.6231C176.446 17.6231 176.536 17.5879 176.563 17.545C176.589 17.5021 176.694 17.467 176.796 17.467C176.898 17.467 177.001 17.4366 177.024 17.3993C177.07 17.3246 177.411 17.2662 178.604 17.1292C179.042 17.0789 179.435 17.0017 179.479 16.9577C179.565 16.8709 179.606 12.3737 179.523 12.2378C179.458 12.1329 178.333 12.1591 177.614 12.2823ZM75.3228 12.7066C75.3228 12.8354 75.3533 12.9408 75.3907 12.9408C75.4281 12.9408 75.4813 13.0828 75.509 13.2564C75.5368 13.4299 75.5897 13.6318 75.6267 13.7051C75.6638 13.7783 75.7289 13.926 75.7714 14.0333C75.814 14.1406 75.8881 14.3266 75.9363 14.4467C75.9845 14.5667 76.0239 14.7335 76.0239 14.8174C76.0239 14.9012 76.059 14.9698 76.1018 14.9698C76.1447 14.9698 76.1797 15.0405 76.1797 15.1269C76.1797 15.2133 76.2125 15.345 76.2526 15.4196C76.2927 15.4941 76.417 15.836 76.5289 16.1794C76.6409 16.5227 76.7658 16.8646 76.8066 16.9391C76.8475 17.0137 76.8809 17.1283 76.8809 17.1939C76.8809 17.2594 76.9138 17.374 76.954 17.4486C77.0672 17.6587 77.4262 18.6683 77.4262 18.7769C77.4262 18.8302 77.4613 18.9436 77.5041 19.0288C77.547 19.1141 77.6171 19.2536 77.66 19.3388C77.7028 19.4241 77.7379 19.5625 77.7379 19.6464C77.7379 19.7303 77.7729 19.8206 77.8158 19.8472C77.8586 19.8737 77.8937 19.979 77.8937 20.0813C77.8937 20.1835 77.9227 20.2851 77.9581 20.307C77.9936 20.329 78.0873 20.5681 78.1666 20.8384C78.2457 21.1087 78.3331 21.365 78.3607 21.4079C78.3884 21.4508 78.4584 21.644 78.5165 21.8371C78.5744 22.0303 78.6509 22.2217 78.6863 22.2624C78.7217 22.3033 78.7506 22.4003 78.7506 22.4781C78.7506 22.5559 78.7857 22.6894 78.8286 22.7747C79.0193 23.1542 79.0454 23.223 79.0959 23.4785C79.1252 23.6273 79.1823 23.8281 79.2226 23.9247C79.263 24.0212 79.3352 24.1968 79.383 24.3149C79.4309 24.4329 79.501 24.5904 79.5388 24.6649C79.5767 24.7395 79.6076 24.8691 79.6076 24.953C79.6076 25.0369 79.6427 25.1272 79.6855 25.1538C79.7284 25.1803 79.7634 25.2818 79.7634 25.3795C79.7634 25.4771 79.7897 25.5833 79.8219 25.6155C79.854 25.6477 79.8833 25.6975 79.887 25.726C79.8907 25.7547 79.9143 25.8307 79.9394 25.8951C80.0652 26.2174 80.4062 27.202 80.4396 27.3388C80.4605 27.4247 80.5097 27.574 80.549 27.6705C80.851 28.4133 81.0099 28.8849 81.0099 29.0387C81.0099 29.1125 81.045 29.1727 81.0879 29.1727C81.1307 29.1727 81.1658 29.2434 81.1658 29.3299C81.1658 29.4163 81.1967 29.548 81.2345 29.6226C81.3301 29.8106 81.4437 30.1054 81.5272 30.3823L81.5979 30.6165L83.8749 30.6371C86.0451 30.6569 86.1518 30.6511 86.1518 30.5136C86.1518 30.4342 86.1747 30.3464 86.2027 30.3183C86.2626 30.2584 86.4874 29.6155 87.286 27.2218C87.6082 26.2561 87.9031 25.3957 87.9415 25.3098C87.9799 25.224 88.0536 25.0133 88.1053 24.8416C88.2411 24.3911 88.242 24.3884 88.6207 23.3199C88.8109 22.7834 88.9846 22.2742 89.0069 22.1883C89.0291 22.1025 89.0763 21.962 89.1118 21.8762C89.1471 21.7903 89.2712 21.4216 89.3875 21.0568C89.5037 20.6919 89.6263 20.3232 89.6601 20.2374C89.6938 20.1515 89.7483 20.011 89.7811 19.9252C89.8384 19.7755 89.8421 19.7763 89.8714 19.9447C89.8883 20.0412 89.9348 20.1203 89.9747 20.1203C90.0145 20.1203 90.0471 20.206 90.0471 20.3108C90.0471 20.4156 90.0822 20.523 90.125 20.5495C90.1679 20.576 90.2029 20.6814 90.2029 20.7836C90.2029 20.8858 90.238 20.9912 90.2808 21.0177C90.3237 21.0443 90.3587 21.1496 90.3587 21.2518C90.3587 21.3541 90.3962 21.4609 90.442 21.4892C90.4878 21.5176 90.508 21.5856 90.487 21.6404C90.466 21.6953 90.4751 21.7707 90.5071 21.8081C90.5392 21.8456 90.6129 22.0342 90.6708 22.2273C90.7289 22.4205 90.7988 22.6136 90.8262 22.6565C90.8536 22.6995 90.9237 22.8926 90.982 23.0857C91.0403 23.2789 91.1109 23.472 91.1391 23.515C91.1672 23.5579 91.2509 23.8037 91.3251 24.0612C91.3993 24.3188 91.4927 24.6101 91.5326 24.7087C91.5725 24.8073 91.6053 24.9566 91.6053 25.0404C91.6053 25.1242 91.6403 25.1928 91.6832 25.1928C91.726 25.1928 91.7611 25.2635 91.7611 25.35C91.7611 25.4363 91.7954 25.5681 91.8374 25.6426C91.8794 25.7171 92.0733 26.2697 92.2682 26.8706C92.4632 27.4715 92.6567 28.0241 92.6983 28.0986C92.7398 28.1731 92.7739 28.3028 92.7739 28.3867C92.7739 28.4706 92.8089 28.5609 92.8518 28.5875C92.8946 28.614 92.9297 28.7044 92.9297 28.7882C92.9297 28.8721 92.9645 29.0018 93.0071 29.0763C93.0497 29.1508 93.1868 29.5278 93.3118 29.9141L93.539 30.6165L95.7373 30.6372C97.1219 30.6502 97.9705 30.629 98.0298 30.5798C98.0814 30.5368 98.1686 30.3519 98.2233 30.1688C98.2782 29.9858 98.3588 29.7483 98.4025 29.641C98.522 29.3475 98.5915 29.162 98.6948 28.8606C98.7463 28.7104 98.817 28.5172 98.852 28.4314C98.887 28.3455 99.0078 27.9944 99.1204 27.651C99.2332 27.3076 99.3588 26.9657 99.3996 26.8912C99.4404 26.8167 99.4738 26.702 99.4738 26.6365C99.4738 26.5709 99.5076 26.4563 99.5488 26.3818C99.6518 26.1953 100.175 24.6884 100.175 24.5778C100.175 24.5286 100.21 24.4186 100.253 24.3333C100.296 24.2481 100.366 24.1085 100.409 24.0233C100.452 23.938 100.487 23.8146 100.487 23.7491C100.487 23.6835 100.522 23.5601 100.565 23.4748C100.607 23.3896 100.675 23.2539 100.715 23.1734C100.755 23.0928 100.811 22.8993 100.841 22.7433C100.87 22.5873 100.925 22.4404 100.963 22.417C101.001 22.3935 101.032 22.2905 101.032 22.1883C101.032 22.0861 101.063 21.9833 101.101 21.96C101.138 21.9366 101.188 21.8379 101.211 21.7408C101.276 21.4668 101.951 19.564 102.001 19.5142C102.025 19.4899 102.045 19.4051 102.045 19.3259C102.045 19.2466 102.076 19.1207 102.114 19.0462C102.247 18.7838 102.349 18.5143 102.548 17.8962C102.659 17.5528 102.784 17.2109 102.826 17.1364C102.868 17.0619 102.902 16.9372 102.902 16.8594C102.902 16.7815 102.931 16.6844 102.966 16.6437C103.001 16.6029 103.078 16.4115 103.136 16.2184C103.194 16.0252 103.263 15.8321 103.289 15.7892C103.315 15.7462 103.403 15.5004 103.483 15.2429C103.564 14.9854 103.659 14.7413 103.695 14.7005C103.73 14.6598 103.759 14.531 103.759 14.4144C103.759 14.2978 103.785 14.1907 103.817 14.1763C103.882 14.1474 104.383 12.7241 104.382 12.5691C104.382 12.4912 103.799 12.4749 101.597 12.491L98.8116 12.5116L98.787 12.7262C98.7735 12.8442 98.7296 12.9408 98.6896 12.9408C98.6496 12.9408 98.6169 13.0403 98.6169 13.1618C98.6169 13.2835 98.5906 13.4093 98.5584 13.4415C98.5263 13.4737 98.4966 13.5235 98.4924 13.552C98.4333 13.9551 98.3493 14.2792 98.295 14.3128C98.2578 14.3358 98.2273 14.4559 98.2273 14.5796C98.2273 14.7033 98.1923 14.8262 98.1494 14.8527C98.1066 14.8792 98.0715 14.9846 98.0715 15.0868C98.0715 15.189 98.0365 15.2944 97.9936 15.3209C97.9508 15.3475 97.9157 15.4554 97.9157 15.5607C97.9157 15.6661 97.8839 15.8133 97.8451 15.8878C97.8063 15.9623 97.7153 16.2515 97.643 16.5305C97.5707 16.8095 97.4797 17.0987 97.4409 17.1733C97.4021 17.2478 97.3704 17.395 97.3704 17.5003C97.3704 17.6057 97.3353 17.7136 97.2924 17.7401C97.2496 17.7667 97.2145 17.872 97.2145 17.9742C97.2145 18.0765 97.1795 18.1818 97.1366 18.2084C97.0938 18.2349 97.0587 18.3428 97.0587 18.4482C97.0587 18.5535 97.0265 18.7007 96.9871 18.7752C96.9092 18.9226 96.4414 20.506 96.3823 20.8226C96.3622 20.9299 96.3166 21.088 96.2808 21.1738C96.1691 21.4423 96.1012 21.6377 96.0774 21.7591C96.0648 21.8235 95.9961 22.0627 95.9246 22.2906C95.8022 22.6814 95.7897 22.6948 95.7056 22.5247C95.6566 22.4255 95.5491 22.1337 95.4669 21.8762C95.3846 21.6186 95.2884 21.3745 95.2531 21.3338C95.2178 21.293 95.189 21.196 95.189 21.1181C95.189 21.0403 95.158 20.9156 95.1202 20.8411C95.0096 20.6235 94.9035 20.3541 94.6826 19.7301C94.4616 19.1061 94.3555 18.8367 94.245 18.6191C94.2071 18.5446 94.1762 18.43 94.1762 18.3644C94.1762 18.2989 94.1453 18.1842 94.1074 18.1097C94.0112 17.9203 93.9152 17.6743 93.6741 16.9988C93.5592 16.6768 93.4322 16.3525 93.3921 16.278C93.352 16.2035 93.3192 16.0888 93.3192 16.0233C93.3192 15.9577 93.2883 15.8431 93.2504 15.7686C93.1399 15.551 93.0338 15.2816 92.8128 14.6576C92.6988 14.3357 92.5768 14.0021 92.5418 13.9162C92.5066 13.8304 92.4358 13.6373 92.3843 13.487C92.3328 13.3368 92.2599 13.1437 92.2223 13.0578C92.1846 12.972 92.1189 12.8052 92.0762 12.6871L91.9987 12.4725H89.8153C88.0654 12.4725 87.632 12.4928 87.632 12.5749C87.632 12.6313 87.5619 12.8227 87.4762 13.0004C87.3905 13.1781 87.3204 13.3708 87.3204 13.4287C87.3204 13.4865 87.2909 13.5673 87.2547 13.608C87.2186 13.6488 87.1253 13.8928 87.0474 14.1504C86.9121 14.5978 86.8746 14.6937 86.6971 15.0467C86.6543 15.132 86.6192 15.2704 86.6192 15.3543C86.6192 15.4381 86.5842 15.5285 86.5413 15.555C86.4985 15.5816 86.4634 15.6542 86.4634 15.7166C86.4634 15.7789 86.3976 15.9787 86.3172 16.1607C86.2368 16.3426 86.1113 16.6671 86.0384 16.8817C85.8958 17.3018 85.7845 17.5824 85.6752 17.7976C85.6374 17.8721 85.6064 17.9867 85.6064 18.0523C85.6064 18.1178 85.5739 18.2325 85.5341 18.307C85.4256 18.51 84.9053 19.921 84.9053 20.012C84.9053 20.0554 84.8352 20.2363 84.7495 20.414C84.6638 20.5917 84.5937 20.7844 84.5937 20.8423C84.5937 20.9001 84.5648 20.9809 84.5295 21.0216C84.4942 21.0624 84.3994 21.3065 84.3187 21.564C84.2381 21.8215 84.1443 22.0656 84.1102 22.1064C84.0762 22.1471 84.0483 22.2394 84.0483 22.3115C84.0483 22.3834 83.9972 22.4849 83.9346 22.5368C83.8405 22.6151 83.813 22.5933 83.7742 22.4098C83.7484 22.288 83.6943 22.1274 83.6541 22.0528C83.6138 21.9783 83.5809 21.8461 83.5809 21.7591C83.5809 21.6721 83.5491 21.5399 83.5103 21.4654C83.413 21.2786 83.0333 19.953 83.0345 19.8042C83.035 19.7377 83.0065 19.6499 82.9712 19.6091C82.9358 19.5684 82.8616 19.377 82.8063 19.1838C82.751 18.9907 82.6784 18.7449 82.645 18.6376C82.6115 18.5303 82.5251 18.2318 82.453 17.9742C82.3809 17.7167 82.2937 17.4182 82.2593 17.3109C82.2248 17.2036 82.1528 16.9578 82.0992 16.7646C82.0457 16.5715 81.9407 16.2203 81.866 15.9843C81.7116 15.4966 81.4718 14.683 81.2796 13.9943C81.2077 13.7368 81.1176 13.4651 81.0794 13.3906C81.0412 13.316 81.0099 13.1689 81.0099 13.0635C81.0099 12.9582 80.9749 12.8502 80.932 12.8237C80.8892 12.7972 80.8541 12.7073 80.8541 12.624C80.8541 12.4769 80.7742 12.4725 78.0884 12.4725H75.3228V12.7066ZM156.541 16.5632C156.848 16.6383 157.079 16.749 157.565 17.0539C158.029 17.3454 158.361 17.7221 158.605 18.2356C158.7 18.4352 158.809 18.6595 158.847 18.734C158.885 18.8085 158.917 18.9733 158.917 19.1001C158.917 19.2269 158.952 19.3528 158.996 19.3797C159.039 19.4067 159.055 19.4614 159.03 19.5014C158.963 19.611 151.228 19.5976 151.16 19.4876C151.11 19.4066 151.264 18.8007 151.357 18.7156C151.38 18.6941 151.451 18.5712 151.514 18.4425C151.941 17.575 152.719 16.9338 153.814 16.5476C154.069 16.4575 156.157 16.4694 156.541 16.5632ZM116.808 16.8571C118.004 17.1875 118.736 17.6072 119.333 18.3049L119.651 18.6766L119.651 21.5722L119.652 24.4679L119.194 24.9678C118.943 25.2427 118.636 25.5199 118.513 25.5838C118.389 25.6476 118.271 25.7194 118.249 25.7433C118.17 25.8315 117.495 26.1132 117.042 26.2472C116.442 26.4246 114.73 26.4526 114.159 26.2945C113.642 26.1515 112.874 25.813 112.874 25.7284C112.874 25.6914 112.828 25.661 112.773 25.661C112.625 25.661 111.84 24.8884 111.58 24.486C111.271 24.0097 110.926 23.3105 110.926 23.1618C110.926 23.0943 110.894 23.0055 110.856 22.9648C110.637 22.7343 110.639 20.3669 110.858 20.2313C110.895 20.2081 110.926 20.1204 110.926 20.0366C110.926 19.9527 110.958 19.823 110.997 19.7485C111.036 19.674 111.167 19.4073 111.289 19.156C111.411 18.9046 111.725 18.4656 111.988 18.1805C112.457 17.671 113.321 17.0768 113.593 17.0768C113.669 17.0768 113.731 17.0457 113.731 17.0076C113.731 16.7658 116.065 16.6516 116.808 16.8571ZM210.725 16.8581C210.96 16.9064 211.186 16.9753 211.227 17.0113C211.268 17.0473 211.357 17.0768 211.426 17.0768C211.743 17.0768 212.435 17.524 213.003 18.0967L213.607 18.7044V21.5575C213.607 24.7768 213.681 24.3979 212.906 25.1641C212.04 26.0209 210.996 26.3861 209.4 26.3908C208.444 26.3935 208.292 26.374 207.727 26.1753C207.386 26.0551 206.947 25.8506 206.753 25.7209C206.335 25.4406 205.427 24.5103 205.427 24.3611C205.427 24.3035 205.392 24.2563 205.349 24.2563C205.306 24.2563 205.271 24.2036 205.271 24.1393C205.271 24.0749 205.236 24.0222 205.193 24.0222C205.15 24.0222 205.115 23.9762 205.115 23.9198C205.115 23.8635 205.047 23.6764 204.964 23.504C204.881 23.3316 204.756 22.8036 204.687 22.3304C204.571 21.54 204.571 21.4109 204.686 20.7368C204.903 19.4672 205.631 18.2283 206.518 17.622C206.668 17.5194 206.808 17.4163 206.829 17.3927C206.869 17.3493 207.254 17.1642 207.608 17.0186C208.381 16.7011 209.641 16.6362 210.725 16.8581Z" fill="white"/>
<path d="M69.6746 0.857443C70.6173 0.553796 71.5989 0.236024 71.856 0.151352C72.4141 -0.0324283 72.3772 -0.0267304 72.5009 0.0519322C72.5753 0.0993015 72.4894 0.300951 72.1606 0.850654C71.9186 1.25513 71.6589 1.67388 71.5832 1.78118C71.2528 2.25019 69.566 5.55106 69.2105 6.42447C69.0882 6.72491 68.9585 7.00414 68.9224 7.04487C68.8862 7.08569 68.8566 7.16505 68.8566 7.22132C68.8566 7.27758 68.7886 7.47244 68.7055 7.65443C68.4478 8.21833 68.1555 8.98256 68.1555 9.09229C68.1555 9.14988 68.1245 9.25796 68.0867 9.33249C68.0224 9.45891 67.944 9.64456 67.7742 10.0728C67.696 10.2697 67.3785 11.3463 67.0664 12.4724C67.0129 12.6656 66.9407 12.8938 66.9059 12.9797C66.8712 13.0655 66.826 13.2236 66.8054 13.3309C66.7849 13.4382 66.6734 13.9474 66.5576 14.4624C66.4418 14.9775 66.3171 15.5745 66.2805 15.7891C66.2439 16.0037 66.1761 16.3724 66.1299 16.6085C65.831 18.1355 65.6537 19.9094 65.451 23.3978C65.3535 25.0763 65.4015 27.9165 65.5454 28.9776C65.6152 29.4926 65.6884 30.0896 65.7081 30.3042C65.7467 30.725 65.8309 31.3374 66.1259 33.3448C66.2143 33.9464 66.1498 34.1147 65.9234 33.8723C65.7161 33.6503 65.0151 32.6281 64.7877 32.2161C64.6811 32.023 64.4038 31.5314 64.1715 31.1236C63.6553 30.2176 63.3312 29.5533 62.8103 28.3337C62.7508 28.1942 62.6528 27.966 62.5928 27.8265C62.4779 27.5595 61.8936 25.8891 61.8217 25.6219C61.7986 25.5361 61.7038 25.22 61.611 24.9196C61.5183 24.6191 61.3897 24.1275 61.3252 23.827C61.2606 23.5266 61.1739 23.1403 61.1325 22.9686C61.0375 22.5757 60.9529 22.1138 60.7539 20.9006C60.7152 20.6645 60.6251 19.8568 60.5536 19.1057C60.3512 16.9796 60.4992 12.4067 60.7941 11.6725C60.8242 11.5975 60.8237 11.536 60.7927 11.536C60.7266 11.536 60.1098 11.8665 60.0532 11.9324C60.0317 11.9573 59.9003 12.0274 59.761 12.088C59.6217 12.1487 59.5078 12.2249 59.5078 12.2574C59.5078 12.2898 59.4706 12.3164 59.425 12.3164C59.303 12.3164 57.4239 13.5649 56.3932 14.3308C54.8474 15.4795 53.7493 16.4382 52.3014 17.9032C50.5957 19.6293 50.5076 19.7268 49.418 21.0957C48.3147 22.4816 47.6415 23.4502 46.2997 25.5829C45.9815 26.0886 45.1326 27.6456 44.8104 28.3142C44.1949 29.5918 43.7839 30.4636 43.6147 30.8505C43.5209 31.0651 43.3948 31.3427 43.3347 31.4673C43.2746 31.5919 43.2253 31.73 43.2253 31.7743C43.2253 31.8185 43.1603 31.9975 43.081 32.172C43.0016 32.3465 42.8416 32.7527 42.7255 33.0746C42.6093 33.3965 42.4882 33.7125 42.4564 33.7769C42.4245 33.8413 42.2654 34.3154 42.1028 34.8304C41.9402 35.3455 41.7756 35.8278 41.7371 35.9024C41.6987 35.9769 41.6672 36.1065 41.6672 36.1904C41.6672 36.2743 41.6362 36.3622 41.5982 36.3857C41.5604 36.4091 41.5118 36.5253 41.4904 36.6439C41.4691 36.7624 41.3764 37.1228 41.2845 37.4447C40.9608 38.5788 40.8102 39.1884 40.8102 39.3645C40.8102 39.4625 40.779 39.5618 40.7409 39.5855C40.7028 39.609 40.6528 39.7428 40.6297 39.8827C40.6066 40.0226 40.549 40.2951 40.5017 40.4882C40.4543 40.6814 40.3946 40.9894 40.3689 41.1728C40.3432 41.3562 40.2917 41.5251 40.2545 41.5481C40.2173 41.5711 40.1869 41.6845 40.1867 41.8C40.1866 41.9155 40.1133 42.3787 40.0238 42.8294C39.9344 43.28 39.8294 43.8506 39.7903 44.0975C39.7514 44.3443 39.684 44.7657 39.6406 45.0339C39.5315 45.7083 39.4502 46.368 39.2583 48.136C38.9621 50.8647 38.939 51.1318 38.9369 51.8428C38.9353 52.4218 38.8926 52.8234 38.7105 53.9739C38.695 54.0723 38.5509 53.8693 38.5509 53.749C38.5509 53.6651 38.5179 53.5355 38.4775 53.461C38.4372 53.3865 38.3286 53.0095 38.2361 52.6232C38.1437 52.2369 38.0374 51.8155 38 51.6867C37.868 51.2331 37.5458 49.463 37.3751 48.253C37.049 45.9427 37.0029 45.1363 37.0001 41.6978C36.997 37.9279 37.0596 37.0134 37.5336 33.9023C37.6212 33.3273 37.9023 31.9718 38.2392 30.4993C38.4167 29.7237 38.8649 28.1308 39.0187 27.7289C39.0516 27.6431 39.1238 27.4148 39.1793 27.2217C39.2348 27.0285 39.3027 26.8354 39.3304 26.7925C39.358 26.7496 39.4251 26.5564 39.4796 26.3633C39.5339 26.1701 39.6237 25.9067 39.6791 25.778C39.7344 25.6492 39.8583 25.3332 39.9543 25.0756C40.0503 24.8181 40.191 24.4669 40.2669 24.2952C40.3427 24.1236 40.5726 23.5968 40.7776 23.1247C41.3534 21.7994 42.6136 19.3876 43.1429 18.5984C43.258 18.4268 43.4438 18.1263 43.5558 17.9308C43.9058 17.3197 45.201 15.5482 46.1979 14.3169C47.3739 12.8643 49.5573 10.6663 50.8602 9.62326C51.3958 9.19452 51.8515 8.8261 51.873 8.80464C52.0125 8.66487 53.2796 7.76025 53.5676 7.59488C53.6425 7.55181 53.921 7.36748 54.1864 7.18518C54.4518 7.00281 54.6856 6.85368 54.7059 6.85368C54.7261 6.85368 54.9997 6.70158 55.3139 6.51561C56.0637 6.07181 57.8363 5.154 58.5729 4.82796C58.8943 4.68577 59.3325 4.4881 59.5468 4.38876C59.761 4.28934 60.1817 4.11578 60.4817 4.00294C60.7816 3.89017 61.1322 3.75165 61.2607 3.69523C61.8168 3.45097 63.101 2.99663 64.8055 2.44115C65.8124 2.11308 66.9343 1.74669 67.2985 1.62706C67.6627 1.50742 68.732 1.16109 69.6746 0.857443Z" fill="#B9B9B9"/>
</svg>
