<svg width="276" height="59" viewBox="0 0 276 59" fill="none" xmlns="http://www.w3.org/2000/svg">
<g clip-path="url(#clip0_757_3594)">
<path d="M229.744 45.393C233.331 38.3958 238.548 33.0318 245.393 29.2458C245.393 29.2642 229.757 13.6247 229.757 13.6069C221.93 21.4491 217.308 26.0167 214.111 29.2458C214.107 29.2458 214.141 29.2642 214.111 29.2458C220.729 32.8505 225.871 38.0818 229.744 45.393Z" fill="white"/>
<path d="M42.8239 40.9591H39.2801V31.4175L29.6074 17.7144H34.0923L41.0277 27.9925L48.0117 17.7257H52.4496L42.8239 31.3381V40.9591Z" fill="white"/>
<path d="M60.688 17.0186C58.9323 17.0186 49.2969 17.7955 49.2969 29.5142C49.2969 40.5562 58.9452 41.5614 60.7949 41.5759C62.7385 41.5897 72.2718 40.4575 72.2718 29.2196C72.2718 18.5643 63.6925 17.0186 60.688 17.0186ZM60.9245 38.5087C57.4827 38.5087 52.8909 36.5049 52.8909 29.2665C52.8909 22.6562 57.2624 20.0292 60.7042 20.0292C63.8512 20.0292 68.66 22.0832 68.66 29.5692C68.66 36.9225 63.354 38.5087 60.9245 38.5087Z" fill="white"/>
<path d="M77.5579 40.9491H74.0303V17.7012L77.7766 17.7104V28.7104L88.7401 17.7136H93.5553L83.8811 27.4123L94.3182 40.9389L89.7815 40.9573L81.1649 29.5688L77.5579 32.9792V40.9491Z" fill="white"/>
<path d="M102.719 16.959C99.3601 17.0741 91.0059 18.7879 91.0059 29.0806C91.0059 40.4076 100.047 41.5519 102.826 41.5374C105.936 41.519 114.07 39.3507 114.11 29.1664C114.157 16.9638 102.583 16.9606 102.719 16.959ZM102.7 38.4815C99.3343 38.4815 94.7069 36.6816 94.7069 29.2554C94.7069 22.1643 99.3538 20.0197 102.621 20.0197C106.722 20.0197 110.384 23.053 110.384 29.1033C110.384 36.9195 105.418 38.4815 102.7 38.4815Z" fill="white"/>
<path d="M127.221 28.7186L137.303 28.7278L137.27 40.835H134.477L134.072 38.5932C131.89 40.7216 129.71 41.4613 126.189 41.4516C121.106 41.4424 115.551 37.41 115.551 29.1373C115.551 23.5143 119.122 17.0869 126.587 17.1193C130.542 17.1193 136.049 18.4368 136.982 24.5518L133.328 24.5656C132.867 23.0262 131.555 20.0157 126.892 20.0157C123.076 20.0157 119.302 22.3383 119.302 29.4116C119.302 36.1046 123.497 38.5826 126.709 38.5826C129.849 38.5826 132.816 37.5144 134.015 31.9237H127.237L127.221 28.7186Z" fill="white"/>
<path d="M149.943 17.748L145.17 17.7572L137.729 40.9388H141.542L143.518 34.5049L152.609 34.4957L155.17 40.8843L159.073 40.8475L149.943 17.748ZM144.414 31.5061L147.58 21.0856L148.26 22.9534L151.43 31.5061H144.414Z" fill="white"/>
<path d="M154.786 17.7148H158.759C161.882 30.3318 162.499 32.5477 163.187 35.0128C163.735 32.6901 164.869 29.6472 167.926 17.7148H171.524C175.152 30.5778 175.693 32.5623 176.483 35.152C177.034 32.9977 177.79 30.4322 180.89 17.7148H184.651L178.427 40.8932L174.703 40.9391C171.686 30.6496 171.315 29.4049 169.787 23.9858C168.531 28.3042 168.284 29.4227 165.055 40.918H161.228L154.786 17.7148Z" fill="white"/>
<path d="M193.728 17.6792H189.148L180.93 40.9029H184.601L186.715 34.6923L195.962 34.7015L198.215 40.8911L202.055 40.8819L193.728 17.6792ZM187.817 31.617L191.394 21.3275L191.391 21.2808L194.997 31.6252L187.817 31.617Z" fill="white"/>
<path d="M264.5 3C264.102 3 263.721 3.15804 263.439 3.43934C263.158 3.72064 263 4.10218 263 4.5V11.5C263 11.8978 263.158 12.2794 263.439 12.5607C263.721 12.842 264.102 13 264.5 13H271.5C271.898 13 272.279 12.842 272.561 12.5607C272.842 12.2794 273 11.8978 273 11.5V9.27C273 9.13739 273.053 9.01021 273.146 8.91645C273.24 8.82268 273.367 8.77 273.5 8.77C273.633 8.77 273.76 8.82268 273.854 8.91645C273.947 9.01021 274 9.13739 274 9.27V11.5C274 12.163 273.737 12.7989 273.268 13.2678C272.799 13.7366 272.163 14 271.5 14H264.5C263.837 14 263.201 13.7366 262.732 13.2678C262.263 12.7989 262 12.163 262 11.5V4.5C262 3.83696 262.263 3.20107 262.732 2.73223C263.201 2.26339 263.837 2 264.5 2H266.73C266.863 2 266.99 2.05268 267.084 2.14645C267.177 2.24021 267.23 2.36739 267.23 2.5C267.23 2.63261 267.177 2.75979 267.084 2.85355C266.99 2.94732 266.863 3 266.73 3H264.5ZM268.77 2.5C268.77 2.36739 268.823 2.24021 268.916 2.14645C269.01 2.05268 269.137 2 269.27 2H273.5C273.633 2 273.76 2.05268 273.854 2.14645C273.947 2.24021 274 2.36739 274 2.5V6.73C274 6.86261 273.947 6.98979 273.854 7.08355C273.76 7.17732 273.633 7.23 273.5 7.23C273.367 7.23 273.24 7.17732 273.146 7.08355C273.053 6.98979 273 6.86261 273 6.73V3.708L269.623 7.084C269.577 7.13176 269.522 7.16985 269.461 7.19605C269.4 7.22226 269.334 7.23605 269.268 7.23663C269.201 7.2372 269.135 7.22455 269.074 7.19941C269.013 7.17427 268.957 7.13714 268.91 7.0902C268.863 7.04325 268.826 6.98743 268.801 6.92598C268.775 6.86453 268.763 6.79869 268.763 6.7323C268.764 6.66591 268.778 6.6003 268.804 6.5393C268.83 6.4783 268.868 6.42312 268.916 6.377L272.293 3H269.269C269.136 3 269.009 2.94732 268.915 2.85355C268.822 2.75979 268.769 2.63261 268.769 2.5" fill="white"/>
</g>
<defs>
<clipPath id="clip0_757_3594">
<rect width="276" height="59" fill="white"/>
</clipPath>
</defs>
</svg>
