<svg width="56" height="56" viewBox="0 0 56 56" fill="none" xmlns="http://www.w3.org/2000/svg">
<rect x="0.5" y="0.5" width="55" height="55" rx="23.5" stroke="white"/>
<g clip-path="url(#clip0_708_447)">
<path fill-rule="evenodd" clip-rule="evenodd" d="M31.707 28.707C31.8944 28.5194 31.9998 28.2651 31.9998 28C31.9998 27.7348 31.8944 27.4805 31.707 27.293L26.05 21.636C25.9577 21.5405 25.8474 21.4643 25.7254 21.4119C25.6034 21.3595 25.4721 21.3319 25.3394 21.3307C25.2066 21.3296 25.0749 21.3549 24.952 21.4052C24.8291 21.4554 24.7175 21.5297 24.6236 21.6236C24.5297 21.7175 24.4554 21.8291 24.4051 21.952C24.3549 22.0749 24.3296 22.2066 24.3307 22.3394C24.3319 22.4722 24.3595 22.6034 24.4119 22.7254C24.4643 22.8474 24.5405 22.9577 24.636 23.05L29.586 28L24.636 32.95C24.4538 33.1386 24.353 33.3912 24.3553 33.6534C24.3576 33.9156 24.4627 34.1664 24.6482 34.3518C24.8336 34.5372 25.0844 34.6424 25.3466 34.6447C25.6088 34.6469 25.8614 34.5461 26.05 34.364L31.707 28.707Z" fill="white"/>
</g>
<defs>
<clipPath id="clip0_708_447">
<rect width="24" height="24" fill="white" transform="translate(16 16)"/>
</clipPath>
</defs>
</svg>
