<svg width="56" height="56" viewBox="0 0 56 56" fill="none" xmlns="http://www.w3.org/2000/svg">
<rect x="0.5" y="0.5" width="55" height="55" rx="23.5" stroke="#315494"/>
<g clip-path="url(#clip0_757_3498)">
<path fill-rule="evenodd" clip-rule="evenodd" d="M31.707 28.7071C31.8944 28.5196 31.9998 28.2653 31.9998 28.0001C31.9998 27.7349 31.8944 27.4806 31.707 27.2931L26.05 21.6361C25.9577 21.5406 25.8474 21.4644 25.7254 21.412C25.6034 21.3596 25.4721 21.332 25.3394 21.3308C25.2066 21.3297 25.0749 21.355 24.952 21.4053C24.8291 21.4556 24.7175 21.5298 24.6236 21.6237C24.5297 21.7176 24.4554 21.8292 24.4051 21.9521C24.3549 22.075 24.3296 22.2067 24.3307 22.3395C24.3319 22.4723 24.3595 22.6035 24.4119 22.7255C24.4643 22.8475 24.5405 22.9579 24.636 23.0501L29.586 28.0001L24.636 32.9501C24.4538 33.1387 24.353 33.3913 24.3553 33.6535C24.3576 33.9157 24.4627 34.1665 24.6482 34.3519C24.8336 34.5373 25.0844 34.6425 25.3466 34.6448C25.6088 34.6471 25.8614 34.5463 26.05 34.3641L31.707 28.7071Z" fill="#315494"/>
</g>
<defs>
<clipPath id="clip0_757_3498">
<rect width="24" height="24" fill="white" transform="translate(16 16)"/>
</clipPath>
</defs>
</svg>
