<svg width="56" height="56" viewBox="0 0 56 56" fill="none" xmlns="http://www.w3.org/2000/svg">
<rect x="0.5" y="0.5" width="55" height="55" rx="23.5" stroke="#315494"/>
<path d="M22.6 19V21.4M33.4 19V21.4M28.6 32.8H32.2M28.6 26.8H32.2M20.2 20.2H35.8C35.8 20.2 37 20.2 37 21.4V35.8C37 35.8 37 37 35.8 37H20.2C20.2 37 19 37 19 35.8V21.4C19 21.4 19 20.2 20.2 20.2Z" stroke="#315494" stroke-width="1.5" stroke-linecap="round" stroke-linejoin="round"/>
<path d="M26.32 30.6399L23.8 33.9999L22 32.1999M26.32 24.3999L23.8 27.7599L22 25.9599" stroke="#315494" stroke-width="1.5" stroke-linecap="round" stroke-linejoin="round"/>
</svg>
