<svg width="56" height="56" viewBox="0 0 56 56" fill="none" xmlns="http://www.w3.org/2000/svg">
<rect x="0.5" y="0.5" width="55" height="55" rx="23.5" stroke="#315494"/>
<path d="M28 25C26.895 25 26 25.672 26 26.5C26 27.328 26.895 28 28 28C29.105 28 30 28.672 30 29.5C30 30.328 29.105 31 28 31M28 25C28.87 25 29.612 25.417 29.886 26M28 25V24M28 31C27.13 31 26.388 30.583 26.114 30M28 31V32" stroke="#315494" stroke-width="1.5" stroke-linecap="round"/>
<path d="M37 27.183V24.28C37 22.64 37 21.82 36.596 21.285C36.192 20.75 35.278 20.491 33.451 19.971C32.349 19.6545 31.2702 19.2626 30.222 18.798C29.023 18.266 28.424 18 28 18C27.576 18 26.977 18.266 25.778 18.798C24.898 19.188 23.798 19.616 22.549 19.971C20.722 20.491 19.809 20.751 19.404 21.285C19 21.82 19 22.64 19 24.28V27.183C19 32.808 24.063 36.183 26.594 37.519C27.201 37.839 27.504 38 28 38C28.496 38 28.799 37.84 29.406 37.52C31.937 36.182 37 32.808 37 27.183Z" stroke="#315494" stroke-width="1.5" stroke-linecap="round"/>
</svg>
