<svg width="56" height="56" viewBox="0 0 56 56" fill="none" xmlns="http://www.w3.org/2000/svg">
<rect x="0.5" y="0.5" width="55" height="55" rx="23.5" stroke="#315494"/>
<path d="M18.5273 26.5791C18.5273 25.8497 18.5397 25.1364 18.5652 24.4477C18.6439 22.1998 18.6836 21.0753 19.5978 20.1536C20.5119 19.2328 21.6686 19.1836 23.98 19.0841C25.3194 19.0279 26.6598 19.0001 28.0003 19.0007C29.4023 19.0007 30.7522 19.0292 32.0207 19.0841C34.3321 19.1836 35.4878 19.2328 36.4029 20.1546C37.317 21.0753 37.3568 22.1998 37.4354 24.4477C37.4854 25.8682 37.4854 27.2901 37.4354 28.7106C37.3568 30.9585 37.317 32.083 36.4029 33.0047C35.4887 33.9254 34.3321 33.9747 32.0207 34.0742C31.3247 34.1039 30.6064 34.126 29.8656 34.1405C29.1646 34.1537 28.8131 34.1594 28.5043 34.2778C28.1955 34.3963 27.9359 34.617 27.4168 35.0622L25.3526 36.8337C25.2522 36.9197 25.1291 36.9752 24.9981 36.9935C24.8671 37.0117 24.7335 36.992 24.6134 36.9367C24.4932 36.8813 24.3914 36.7927 24.3201 36.6812C24.2488 36.5698 24.211 36.4402 24.2111 36.3079V34.0836L23.98 34.0742C21.6686 33.9747 20.5129 33.9254 19.5978 33.0037C18.6836 32.0829 18.6439 30.9585 18.5652 28.7106C18.5401 28.0004 18.5275 27.2898 18.5273 26.5791Z" stroke="#315494" stroke-width="1.5" stroke-linecap="round" stroke-linejoin="round"/>
<path d="M30.4716 23.3565C29.7744 23.0003 28.9218 22.79 28.0001 22.79C27.0784 22.79 26.2258 23.0003 25.5286 23.3565C25.1876 23.5318 25.0161 23.6189 24.8503 23.8946C24.6846 24.1703 24.6846 24.4355 24.6846 24.9679V26.2903C24.6846 28.4435 26.3584 29.6409 27.3275 30.1543C27.5975 30.2964 27.733 30.3684 28.0001 30.3684C28.2682 30.3684 28.4027 30.2974 28.6727 30.1543C29.6418 29.6409 31.3157 28.4435 31.3157 26.2894V24.9688C31.3157 24.4364 31.3157 24.1703 31.1499 23.8955C30.9841 23.6208 30.8136 23.5318 30.4716 23.3565Z" stroke="#315494" stroke-width="1.5" stroke-linecap="round" stroke-linejoin="round"/>
</svg>
