<svg width="56" height="56" viewBox="0 0 56 56" fill="none" xmlns="http://www.w3.org/2000/svg">
<rect x="0.5" y="0.5" width="55" height="55" rx="23.5" stroke="#315494"/>
<path d="M37.0002 37L32.6572 32.657M32.6572 32.657C33.4001 31.9141 33.9894 31.0321 34.3914 30.0615C34.7935 29.0909 35.0004 28.0506 35.0004 27C35.0004 25.9494 34.7935 24.909 34.3914 23.9384C33.9894 22.9678 33.4001 22.0858 32.6572 21.343C31.9143 20.6001 31.0324 20.0108 30.0618 19.6087C29.0911 19.2067 28.0508 18.9998 27.0002 18.9998C25.9496 18.9998 24.9093 19.2067 23.9387 19.6087C22.968 20.0108 22.0861 20.6001 21.3432 21.343C19.8429 22.8433 19 24.8782 19 27C19 29.1217 19.8429 31.1566 21.3432 32.657C22.8435 34.1573 24.8784 35.0002 27.0002 35.0002C29.122 35.0002 31.1569 34.1573 32.6572 32.657Z" stroke="#315494" stroke-width="1.5" stroke-linecap="round" stroke-linejoin="round"/>
</svg>
