<svg xmlns="http://www.w3.org/2000/svg" version="1.1" xmlns:xlink="http://www.w3.org/1999/xlink" width="256" height="256"><svg width="256" height="256" viewBox="0 0 256 256" fill="none" xmlns="http://www.w3.org/2000/svg">
<rect width="256" height="256" rx="32" fill="#285193"></rect>
<path d="M125.923 223.33C111.201 223.33 97.0929 221.402 83.598 217.547C70.1031 213.516 59.2371 208.346 51 202.036L65.4588 169.964C73.3454 175.572 82.6341 180.217 93.3248 183.897C104.191 187.402 115.144 189.155 126.186 189.155C134.598 189.155 141.346 188.366 146.428 186.789C151.686 185.036 155.541 182.67 157.995 179.691C160.449 176.712 161.675 173.294 161.675 169.438C161.675 164.531 159.748 160.675 155.892 157.871C152.036 154.892 146.954 152.526 140.644 150.773C134.335 148.846 127.325 147.093 119.614 145.516C112.077 143.763 104.454 141.66 96.7423 139.206C89.2062 136.753 82.2836 133.598 75.9743 129.742C69.665 125.887 64.4949 120.804 60.4639 114.495C56.6083 108.186 54.6804 100.124 54.6804 90.3094C54.6804 79.7939 57.4845 70.2423 63.0928 61.6547C68.8763 52.8918 77.464 45.9691 88.8557 40.8866C100.423 35.6289 114.882 33 132.232 33C143.799 33 155.191 34.4021 166.407 37.2062C177.624 39.8351 187.526 43.866 196.114 49.299L182.969 81.6341C174.382 76.7269 165.794 73.1341 157.206 70.8557C148.619 68.4021 140.206 67.1753 131.969 67.1753C123.732 67.1753 116.985 68.1392 111.727 70.0671C106.469 71.9949 102.701 74.5361 100.423 77.6908C98.1444 80.6702 97.0052 84.1753 97.0052 88.2063C97.0052 92.9382 98.9331 96.7939 102.789 99.7733C106.644 102.577 111.727 104.856 118.036 106.608C124.345 108.361 131.268 110.114 138.804 111.866C146.516 113.619 154.139 115.634 161.675 117.912C169.387 120.191 176.397 123.258 182.706 127.114C189.016 130.969 194.098 136.052 197.954 142.361C201.985 148.67 204 156.645 204 166.284C204 176.624 201.108 186.088 195.325 194.676C189.541 203.263 180.866 210.186 169.299 215.444C157.907 220.701 143.449 223.33 125.923 223.33Z" fill="white"></path>
</svg><style>@media (prefers-color-scheme: light) { :root { filter: none; } }
@media (prefers-color-scheme: dark) { :root { filter: none; } }
</style></svg>